<svg xmlns="http://www.w3.org/2000/svg" width="120" height="120"><path fill="#EE3424" d="M31.524 67.123l3.549 8.114H27.98l3.544-8.114zM119 60.997C119 93.584 92.587 120 60.001 120 27.416 120 1 93.584 1 60.997a58.699 58.699 0 0 1 8.07-29.776c5.392 4.395 14.774 7.969 26.423 10.089v-6.039c-6.155-.411-11.785-4.361-14.028-10.53l6.034-2.196a12.786 12.786 0 0 1 .113-9.075 12.801 12.801 0 0 1 7.561-7.383C40.552 4.126 46.381 6 49.714 10.295l5.037 2.383-2.247 4.816c.798 7.188-3.365 14.259-10.467 16.841-.936.341-1.888.588-2.837.746v6.842c6.466.968 13.523 1.502 20.925 1.502 3.012 0 5.963-.094 8.846-.264v-4.129a9.321 9.321 0 0 1-1.6-.42c-4.23-1.54-6.709-5.751-6.24-10.032l-1.338-2.872 3.007-1.422a7.646 7.646 0 0 1 8.663-2.506 7.625 7.625 0 0 1 4.502 4.399 7.604 7.604 0 0 1 .064 5.407l3.599 1.308a9.538 9.538 0 0 1-6.951 6.067v3.938c6.479-.551 12.528-1.516 17.935-2.82v-5.091a9.813 9.813 0 0 1-1.604-.422c-4.229-1.537-6.711-5.75-6.233-10.032l-1.338-2.871 3.002-1.422c1.985-2.559 5.458-3.671 8.663-2.506a7.637 7.637 0 0 1 4.504 4.399 7.641 7.641 0 0 1 .068 5.407l3.593 1.308c-1.162 3.198-3.856 5.391-6.955 6.067v4.183c7.11-2.036 12.876-4.687 16.7-7.743A58.732 58.732 0 0 1 119 60.997zM87.399 22.215a1.507 1.507 0 1 0-1.033 2.831 1.507 1.507 0 0 0 1.033-2.831zM65.76 26.258a1.509 1.509 0 0 0-1.932.903 1.5 1.5 0 0 0 .899 1.929 1.51 1.51 0 0 0 1.93-.9 1.509 1.509 0 0 0-.897-1.932zm-22.529-9.414a2.53 2.53 0 0 0 4.754-1.728 2.535 2.535 0 0 0-3.244-1.514 2.531 2.531 0 0 0-1.51 3.242zm1.763 68.368L33.685 60.257a2.372 2.372 0 0 0-2.164-1.406 2.36 2.36 0 0 0-2.088 1.258l-.002-.002-11.377 25.105h5.565l2.46-5.631h10.89l2.461 5.631h5.564zm11.242-23.517c0-1.551-1.15-2.822-2.595-2.822-.392 0-.773.078-1.111.23l-1.487.777-6.719 3.626 2.162 4.035 4.568-2.294v19.964h5.183V61.695zm27.681 10.677c0-3.687-.996-6.856-3.021-9.475-1.991-2.616-4.684-3.941-8.073-3.941-4.572 0-8.146 2.834-9.882 6.853-.843 1.991-1.251 4.167-1.251 6.563 0 4.755 1.701 8.956 5.127 11.499 1.73 1.291 3.723 1.919 6.006 1.919 3.39 0 6.082-1.327 8.073-3.946 2.025-2.617 3.021-5.786 3.021-9.472zm13.577-10.684c0-1.553-1.157-2.82-2.601-2.82a2.68 2.68 0 0 0-1.107.229l-1.487.777-6.719 3.628 2.16 4.033 4.568-2.293v19.965h5.174l.012-23.519zM70.63 16.168a7.695 7.695 0 0 0 0-15.389 7.695 7.695 0 0 0 0 15.389zm2.193 47.761c-1.768 0-3.17.812-4.237 2.472-1.064 1.623-1.587 3.611-1.587 5.972 0 2.359.522 4.348 1.587 6.014 1.067 1.616 2.47 2.428 4.237 2.428 1.772 0 3.17-.812 4.2-2.428 1.071-1.666 1.588-3.654 1.588-6.014 0-2.36-.517-4.349-1.588-5.972-1.03-1.66-2.427-2.472-4.2-2.472z"/></svg>