<svg xmlns="http://www.w3.org/2000/svg" width="512" height="512" viewBox="0 0 612 612"><path d="M259.107 322.451c0 16.933-13.727 30.659-30.66 30.659s-30.658-13.727-30.658-30.659 13.726-30.659 30.658-30.659c16.933 0 30.66 13.727 30.66 30.659zm124.447-30.659c-16.932 0-30.66 13.726-30.66 30.659s13.729 30.659 30.66 30.659c16.934 0 30.658-13.727 30.658-30.659s-13.725-30.659-30.658-30.659zm130.963 124.804v-3.492c-3.514 10.198-7.734 19.885-12.273 29.303.842 5.773 2.4 13.831 5.02 23.043 12.6 19.488 48.158 44.316 72.537 50.712-13.145 5.583-28.979 7.882-44.379 5.525 14.107 17.751 33.988 33.869 62.039 43.459-65.568 59.097-173.604 60.411-249.119 14.516-14.635 4.304-28.936 6.56-42.341 6.56-13.405 0-27.707-2.256-42.34-6.56-75.517 45.896-183.551 44.581-249.119-14.516 28.613-9.781 48.68-26.366 62.835-44.538-12.52.479-24.944-1.8-35.589-6.321 17.862-4.686 41.716-19.281 58.174-34.413 5.759-15.225 8.539-28.836 9.796-37.468-4.539-9.418-8.759-19.104-12.272-29.303v3.493H60.407c-29.254 0-52.969-23.716-52.969-52.969v-58.266c0-20.131 11.231-37.637 27.769-46.599.555-82.724 24.666-147.331 71.765-191.997C153.69 22.465 220.653 0 306 0c85.348 0 152.311 22.465 199.028 66.767 47.1 44.665 71.209 109.271 71.766 191.997 16.537 8.962 27.768 26.467 27.768 46.598v58.265c0 29.254-23.715 52.969-52.969 52.969h-37.076zm-22.063-93.95c0-13.63-.697-26.436-1.729-38.845-23.898-21.863-67.617-38.353-122.746-44.168 8.746 7.841 16.256 18.297 20.273 33.226-32.055-23.431-99.236-30.687-121.551-55.793l.022-.002c-35.52-23.512-44.841-57.189-45.141-43.25-1.438 66.848-48.818 118.961-101.431 126.313-.333 7.352-.606 14.773-.606 22.519 0 28.256 4.614 54.006 12.458 77.214 29.553 35.648 78.359 45.714 121.558 48.385 8.019-12.76 26.012-21.666 46.966-21.666 28.409 0 51.438 16.347 51.438 36.513 0 20.167-23.029 36.514-51.438 36.514-21.853 0-40.475-9.688-47.929-23.332-30.191-1.755-63.38-6.9-92.96-20.869 41.601 61.315 106.087 93.739 146.359 93.739 63.287-.001 186.457-79.947 186.457-226.498zm32.07-70.252h20.381C541.534 108.039 459.136 31.782 306 31.782S70.468 108.039 67.097 252.394h20.379c7.451-48.654 23.2-88.67 47.111-119.436C172.691 83.931 230.363 59.07 306 59.07c75.637 0 133.309 24.859 171.415 73.887 23.91 30.767 39.658 70.782 47.109 119.437z" fill="#FFF"/></svg>