<?xml version="1.0" encoding="utf-8"?>
<!-- Generator: Adobe Illustrator 17.1.0, SVG Export Plug-In . SVG Version: 6.00 Build 0)  -->
<!DOCTYPE svg PUBLIC "-//W3C//DTD SVG 1.1//EN" "http://www.w3.org/Graphics/SVG/1.1/DTD/svg11.dtd">
<svg version="1.1" id="Слой_1" xmlns="http://www.w3.org/2000/svg" xmlns:xlink="http://www.w3.org/1999/xlink" x="0px" y="0px"
	 viewBox="0 0 256 256" enable-background="new 0 0 256 256" xml:space="preserve">
<path fill="#D91C5C" d="M3,137.8c-2-2-3-4.9-3-6.9c0-2,1-4.9,3-6.9l13.8-13.8c3.9-3.9,9.8-3.9,13.8,0l1,1l54.2,58.1c2,2,4.9,2,6.9,0
	L224.5,32.5h1l0,0c3.9-3.9,9.8-3.9,13.8,0L253,46.3c3.9,3.9,3.9,9.8,0,13.8l0,0L95.5,223.5c-2,2-3.9,3-6.9,3s-4.9-1-6.9-3L4.9,140.8
	C4.9,140.8,3,137.8,3,137.8z"/>
</svg>
