<?xml version="1.0" encoding="utf-8"?>
<!-- Generator: Adobe Illustrator 17.1.0, SVG Export Plug-In . SVG Version: 6.00 Build 0)  -->
<!DOCTYPE svg PUBLIC "-//W3C//DTD SVG 1.1//EN" "http://www.w3.org/Graphics/SVG/1.1/DTD/svg11.dtd">
<svg version="1.1" id="Layer_1" xmlns="http://www.w3.org/2000/svg" xmlns:xlink="http://www.w3.org/1999/xlink" x="0px" y="0px"
	 viewBox="0 0 1700 664.9" enable-background="new 0 0 1700 664.9" xml:space="preserve">
<g transform="scale(1.689583104169) translate(0, 0)">
	<g>
		
			<radialGradient id="SVGID_1_" cx="554.1965" cy="330.9861" r="42.4084" gradientTransform="matrix(7.5455 -3.0571 -3.0571 -7.5455 -2993.2747 4255.8252)" gradientUnits="userSpaceOnUse">
			<stop  offset="0" style="stop-color:#EF5323"/>
			<stop  offset="0.228" style="stop-color:#D91C5C"/>
			<stop  offset="1" style="stop-color:#6D2C90"/>
		</radialGradient>
		<path fill="url(#SVGID_1_)" d="M45.1,224.9c-3.7,1.5-5.5,5.3-4.1,8.6c1.4,3.3,5.5,4.7,9.2,3.2c3.7-1.5,5.5-5.3,4.1-8.6
			C52.9,224.8,48.8,223.4,45.1,224.9z"/>
		
			<radialGradient id="SVGID_2_" cx="554.192" cy="330.9944" r="42.4063" gradientTransform="matrix(7.5455 -3.0571 -3.0571 -7.5455 -2993.2747 4255.8252)" gradientUnits="userSpaceOnUse">
			<stop  offset="0" style="stop-color:#EF5323"/>
			<stop  offset="0.228" style="stop-color:#D91C5C"/>
			<stop  offset="1" style="stop-color:#6D2C90"/>
		</radialGradient>
		<path fill="url(#SVGID_2_)" d="M118.9,244.9c-7,2.8-10.4,10.2-7.4,16.3c3,6.1,11.1,8.8,18.2,6c7-2.9,10.4-10.2,7.4-16.3
			C134,244.7,125.9,242,118.9,244.9z"/>
		
			<radialGradient id="SVGID_3_" cx="554.192" cy="330.9661" r="42.3727" gradientTransform="matrix(7.5455 -3.0571 -3.0571 -7.5455 -2993.2747 4255.8252)" gradientUnits="userSpaceOnUse">
			<stop  offset="0" style="stop-color:#EF5323"/>
			<stop  offset="0.228" style="stop-color:#D91C5C"/>
			<stop  offset="1" style="stop-color:#6D2C90"/>
		</radialGradient>
		<path fill="url(#SVGID_3_)" d="M88.3,259.8c-3.1,1.2-4.5,4.4-3.2,7.1c1.3,2.7,4.9,3.8,8,2.5c3.1-1.2,4.5-4.4,3.1-7
			C94.9,259.7,91.4,258.6,88.3,259.8z"/>
		
			<radialGradient id="SVGID_4_" cx="554.1856" cy="330.9953" r="42.4037" gradientTransform="matrix(7.5455 -3.0571 -3.0571 -7.5455 -2993.2747 4255.8252)" gradientUnits="userSpaceOnUse">
			<stop  offset="0" style="stop-color:#EF5323"/>
			<stop  offset="0.228" style="stop-color:#D91C5C"/>
			<stop  offset="1" style="stop-color:#6D2C90"/>
		</radialGradient>
		<path fill="url(#SVGID_4_)" d="M143,211.2c8.5-3.4,13.2-12.7,10.5-20.8c-1.7-4.9-5.9-8.3-11.2-9.2c-1.9-0.3-5.1-0.1-8.6,1.3
			c-3.3,1.3-6.1,3.5-8.5,6.5l-1.3,1.6c-2.9,3.7-5.9,7.4-11.2,9.6c-4.1,1.6-8.7,1.2-13.6,0.8c-5.3-0.5-10.8-1-16,1.1
			c-8.5,3.4-12.8,12.5-9.6,20.3c3.1,7.8,12.6,11.3,21,7.9c5.6-2.3,8.8-6.2,11.8-9.9c2.8-3.4,5.5-6.7,9.8-8.4c4.8-1.9,9.3-1,13.2-0.3
			c2.6,0.5,5.1,1,7.8,0.7C139.2,212.3,141.2,211.9,143,211.2z"/>
		
			<radialGradient id="SVGID_5_" cx="554.1914" cy="330.9959" r="42.4107" gradientTransform="matrix(7.5455 -3.0571 -3.0571 -7.5455 -2993.2747 4255.8252)" gradientUnits="userSpaceOnUse">
			<stop  offset="0" style="stop-color:#EF5323"/>
			<stop  offset="0.228" style="stop-color:#D91C5C"/>
			<stop  offset="1" style="stop-color:#6D2C90"/>
		</radialGradient>
		<path fill="url(#SVGID_5_)" d="M59.4,167.7c-2.5-6.3-9.9-9.2-16.6-6.5c-6.5,2.7-9.9,10-7.4,16.2c2.5,6.3,10.1,9.2,16.6,6.5
			C58.7,181.2,61.9,174,59.4,167.7z"/>
		
			<radialGradient id="SVGID_6_" cx="554.1827" cy="330.9953" r="42.3935" gradientTransform="matrix(7.5455 -3.0571 -3.0571 -7.5455 -2993.2747 4255.8252)" gradientUnits="userSpaceOnUse">
			<stop  offset="0" style="stop-color:#EF5323"/>
			<stop  offset="0.228" style="stop-color:#D91C5C"/>
			<stop  offset="1" style="stop-color:#6D2C90"/>
		</radialGradient>
		<path fill="url(#SVGID_6_)" d="M4.8,124.5c-3.7,1.5-5.7,5.4-4.4,8.7c1.3,3.3,5.3,4.8,9,3.3c3.7-1.5,5.7-5.4,4.4-8.7
			C12.5,124.5,8.5,123,4.8,124.5z"/>
		
			<radialGradient id="SVGID_7_" cx="554.1909" cy="330.997" r="42.4064" gradientTransform="matrix(7.5455 -3.0571 -3.0571 -7.5455 -2993.2747 4255.8252)" gradientUnits="userSpaceOnUse">
			<stop  offset="0" style="stop-color:#EF5323"/>
			<stop  offset="0.228" style="stop-color:#D91C5C"/>
			<stop  offset="1" style="stop-color:#6D2C90"/>
		</radialGradient>
		<path fill="url(#SVGID_7_)" d="M48.4,70.9c7.1-2.9,11-10.4,8.9-16.9c-2.1-6.5-9.6-9.4-16.6-6.6c-7.1,2.9-11,10.4-8.9,16.9
			C33.9,70.8,41.3,73.7,48.4,70.9z"/>
		
			<radialGradient id="SVGID_8_" cx="554.1695" cy="330.9901" r="42.3692" gradientTransform="matrix(7.5455 -3.0571 -3.0571 -7.5455 -2993.2747 4255.8252)" gradientUnits="userSpaceOnUse">
			<stop  offset="0" style="stop-color:#EF5323"/>
			<stop  offset="0.228" style="stop-color:#D91C5C"/>
			<stop  offset="1" style="stop-color:#6D2C90"/>
		</radialGradient>
		<path fill="url(#SVGID_8_)" d="M16,81.4c3.1-1.2,4.8-4.5,3.9-7.4c-0.9-2.8-4.1-4.1-7.2-2.9c-3.1,1.3-4.8,4.6-4,7.4
			C9.7,81.4,13,82.7,16,81.4z"/>
		
			<radialGradient id="SVGID_9_" cx="554.1867" cy="330.9936" r="42.4" gradientTransform="matrix(7.5455 -3.0571 -3.0571 -7.5455 -2993.2747 4255.8252)" gradientUnits="userSpaceOnUse">
			<stop  offset="0" style="stop-color:#EF5323"/>
			<stop  offset="0.228" style="stop-color:#D91C5C"/>
			<stop  offset="1" style="stop-color:#6D2C90"/>
		</radialGradient>
		<path fill="url(#SVGID_9_)" d="M31.5,118.6c3.1,7.8,12.6,11.3,21,7.9c5.1-2.1,8.7-6.3,12.2-10.3c3.2-3.7,6.2-7.3,10.3-8.9
			c5.3-2.1,10.1-1.5,14.7-0.8l2.1,0.3c3.8,0.5,7.4,0.1,10.7-1.3c3.4-1.4,5.9-3.5,7-5.1c3.3-4.3,3.9-9.7,1.7-14.4
			c-3.6-7.7-13.5-11-22-7.6c-1.8,0.7-3.5,1.8-5,3.2c-2.1,1.6-3.6,3.7-5.1,5.9c-2.3,3.3-4.8,7-9.7,9c-4.3,1.7-8.5,1.3-12.9,0.8
			c-4.8-0.5-9.8-1.1-15.4,1.1C32.6,101.7,28.3,110.8,31.5,118.6z"/>
		
			<radialGradient id="SVGID_10_" cx="554.1896" cy="330.9956" r="42.4104" gradientTransform="matrix(7.5455 -3.0571 -3.0571 -7.5455 -2993.2747 4255.8252)" gradientUnits="userSpaceOnUse">
			<stop  offset="0" style="stop-color:#EF5323"/>
			<stop  offset="0.228" style="stop-color:#D91C5C"/>
			<stop  offset="1" style="stop-color:#6D2C90"/>
		</radialGradient>
		<path fill="url(#SVGID_10_)" d="M75.2,161.3c4.4,10.7,17,15.8,28.2,11.3c11.3-4.6,16.9-17,12.5-27.8c-4.4-10.8-17-15.8-28.3-11.3
			C76.4,138.1,70.8,150.6,75.2,161.3z"/>
		
			<radialGradient id="SVGID_11_" cx="554.1856" cy="330.9915" r="42.397" gradientTransform="matrix(7.5455 -3.0571 -3.0571 -7.5455 -2993.2747 4255.8252)" gradientUnits="userSpaceOnUse">
			<stop  offset="0" style="stop-color:#EF5323"/>
			<stop  offset="0.228" style="stop-color:#D91C5C"/>
			<stop  offset="1" style="stop-color:#6D2C90"/>
		</radialGradient>
		<path fill="url(#SVGID_11_)" d="M5.7,180.8c-4.2,1.7-6.2,6.5-4.6,10.5c1.6,4.1,6.4,6.1,10.6,4.4c4.1-1.7,6.2-6.4,4.6-10.5
			C14.7,181.1,9.8,179.1,5.7,180.8z"/>
		
			<radialGradient id="SVGID_12_" cx="554.1873" cy="330.993" r="42.401" gradientTransform="matrix(7.5455 -3.0571 -3.0571 -7.5455 -2993.2747 4255.8252)" gradientUnits="userSpaceOnUse">
			<stop  offset="0" style="stop-color:#EF5323"/>
			<stop  offset="0.228" style="stop-color:#D91C5C"/>
			<stop  offset="1" style="stop-color:#6D2C90"/>
		</radialGradient>
		<path fill="url(#SVGID_12_)" d="M75.4,30.6c-20,1.7-10.2,36,21,24.6c12.7-4.6,26.6-11.1,47.4-7.2c4.8,0.9,7.7,5.2,7.6,8.9
			c-0.1,5-7.5,7-12.7,6c-3.2-0.6-7.3-0.9-12.5,0.9c-1.3,0.5-2.3,1.2-3.2,2c-5,3.8-5.6,11.1-1.1,17.4c4.5,6.5,12,7.5,13.7,7.5
			c2.5-0.1,5.6-0.5,7.7-2.5c4.9-4.4,4.3-11.6,7.2-16.3c1.7-4,15.3-11.2,25.9,5.3c8.4,12.9,2.3,20.7-4,22.9c-7.6,2.6-15-2.6-24.3,1.5
			c-13.7,5.9-20.5,21.8-15,36.3c6.2,14.3,22.1,20.9,36,15.7c9.5-3.5,11.2-12.4,18.5-15.8c6.1-2.8,15.9-1.5,18.8,13.6
			c3.9,19.3-10.9,23.5-14.9,21.8c-5.3-1.4-9.9-7-16.5-6.7c-2.9,0.1-5.4,1.9-7.3,3.6c-1.3,1.2-5.9,7.2-4.6,15
			c1.2,7.6,6.7,12.5,12.9,11.7c1.2-0.1,2.4-0.3,3.7-0.8c5-2.3,7.7-5.4,9.6-8.1c3.1-4.4,9.7-8.1,13.3-4.6c2.7,2.6,3.5,7.8,0.7,11.7
			c-12.2,17.2-26.7,22.2-39.1,27.8c-30.4,13.6-13.5,45,2,32.3c45.1-36.9,65.5-95.9,44.2-148.6C189.2,53.8,133.5,25.6,75.4,30.6z"/>
	</g>
</g>
<g transform="scale(0.0255) translate(3639.2156862745, 1641.9188121844)">
	<path fill="#FFFFFF" d="M16927.6,8257.7h-1407c-1156.5,0-1431.1-722.8-1431.1-1686.5s274.7-1686.5,1431.1-1686.5h1354v506h-1055.3
		c-819.2,0-1074.5,265-1074.5,1180.6s255.4,1180.6,1074.5,1180.6h1108.3V8257.7z"/>
	<path fill="#FFFFFF" d="M18575.5,5674.9c915.5,0,1358.8,289.1,1358.8,1301c0,1021.5-443.3,1310.7-1358.8,1310.7
		s-1358.8-289.1-1358.8-1310.7C17216.7,5964,17660,5674.9,18575.5,5674.9z M17799.7,6975.9c0,626.4,197.6,877,775.8,877
		s775.8-250.6,775.8-877s-197.6-867.3-775.8-867.3S17799.7,6349.5,17799.7,6975.9z"/>
	<path fill="#FFFFFF" d="M20300.6,8257.7V6137.5c0-289.1,144.6-433.7,433.7-433.7h896.3c578.2,0,992.6,197.6,992.6,872.2v1681.7
		h-563.8V6725.3c0-385.5-149.4-587.9-534.9-587.9h-515.6c-96.4,0-144.6,48.2-144.6,144.6v1975.6H20300.6z"/>
	<path fill="#FFFFFF" d="M24488,8257.7h-351.8c-578.2,0-939.6-207.2-939.6-833.6V6137.5h-351.8v-433.7h351.8v-819.2h563.8v819.2
		h727.6v433.7h-727.6v1170.9c0,385.5,202.4,515.6,587.9,515.6h139.7V8257.7z"/>
	<path fill="#FFFFFF" d="M24709.6,8257.7V5703.8h563.8v2553.9H24709.6z M25273.4,5366.5h-563.8v-520.4h563.8V5366.5z"/>
	<path fill="#FFFFFF" d="M25716.7,8257.7V6137.5c0-289.1,144.6-433.7,433.7-433.7h896.3c578.2,0,992.6,197.6,992.6,872.2v1681.7
		h-563.8V6725.3c0-385.5-149.4-587.9-534.9-587.9H26425c-96.4,0-144.6,48.2-144.6,144.6v1975.6H25716.7z"/>
	<path fill="#FFFFFF" d="M30785.9,8257.7h-1416.7c-819.2,0-963.7-462.6-963.7-1281.7c0-1011.9,366.2-1301,1233.6-1301
		c722.8,0,1228.7,192.7,1228.7,1011.9c0,289.1-106,481.9-395.1,481.9h-1484.1c0,385.5,67.5,655.3,549.3,655.3h1248V8257.7z
		 M28988.5,6735h1170.9c110.8,0,125.3-77.1,125.3-149.4c0-337.3-308.4-477-645.7-477C29157.2,6108.6,28988.5,6301.3,28988.5,6735z"
		/>
	<path fill="#FFFFFF" d="M31234,8257.7V6137.5c0-289.1,144.6-433.7,433.7-433.7h896.3c578.2,0,992.6,197.6,992.6,872.2v1681.7
		h-563.8V6725.3c0-385.5-149.4-587.9-534.9-587.9h-515.6c-96.4,0-144.6,48.2-144.6,144.6v1975.6H31234z"/>
	<path fill="#FFFFFF" d="M35421.3,8257.7h-351.8c-578.2,0-939.6-207.2-939.6-833.6V6137.5h-351.8v-433.7h351.8v-819.2h563.8v819.2
		h727.6v433.7h-727.6v1170.9c0,385.5,202.4,515.6,587.9,515.6h139.7V8257.7z"/>
	<path fill="#FFFFFF" d="M35753.8,5703.8h1450.4c481.9,0,718,318,718,751.7V7824c0,289.1-144.6,433.7-433.7,433.7H36202
		c-433.7,0-636.1-265-636.1-795.1c0-481.9,202.4-795.1,636.1-795.1h1156.5v-163.8c0-240.9-115.6-366.2-356.6-366.2h-1248V5703.8z
		 M37358.4,7101.2h-939.6c-192.7,0-269.8,120.5-269.8,361.4c0,240.9,77.1,361.4,269.8,361.4h795.1c96.4,0,144.6-48.2,144.6-144.6
		V7101.2z"/>
	<path fill="#FFFFFF" d="M38365.5,8257.7v-3373h563.8v3373H38365.5z"/>
	<path fill="#FFFFFF" d="M39343.7,7207.2v-496.3h1720.2v496.3H39343.7z"/>
	<path fill="#FFFFFF" d="M41478.3,8257.7V6137.5c0-289.1,144.6-433.7,433.7-433.7h2211.7c578.2,0,992.6,197.6,992.6,872.2v1681.7
		h-563.8V6725.3c0-385.5-149.4-587.9-534.9-587.9h-438.5v2120.2h-563.8V6137.5h-828.8c-96.4,0-144.6,48.2-144.6,144.6v1975.6
		H41478.3z"/>
	<path fill="#FFFFFF" d="M47863,8257.7h-1416.7c-819.2,0-963.7-462.6-963.7-1281.7c0-1011.9,366.2-1301,1233.6-1301
		c722.8,0,1228.7,192.7,1228.7,1011.9c0,289.1-106,481.9-395.1,481.9h-1484.1c0,385.5,67.5,655.3,549.3,655.3h1248V8257.7z
		 M46065.6,6735h1170.9c110.8,0,125.3-77.1,125.3-149.4c0-337.3-308.4-477-645.7-477C46234.3,6108.6,46065.6,6301.3,46065.6,6735z"
		/>
	<path fill="#FFFFFF" d="M50604.7,4884.6V7824c0,289.1-144.6,433.7-433.7,433.7h-891.4c-819.2,0-1045.6-510.8-1045.6-1281.7
		s226.5-1272.1,1045.6-1272.1h761.3v-819.2H50604.7z M50041,6137.5h-621.6c-544.5,0-602.3,356.6-602.3,838.4s57.8,848.1,602.3,848.1
		h477c96.4,0,144.6-48.2,144.6-144.6V6137.5z"/>
	<path fill="#FFFFFF" d="M51048,8257.7V5703.8h563.8v2553.9H51048z M51611.8,5366.5H51048v-520.4h563.8V5366.5z"/>
	<path fill="#FFFFFF" d="M52166,5703.8h1450.4c481.9,0,718,318,718,751.7V7824c0,289.1-144.6,433.7-433.7,433.7h-1286.6
		c-433.7,0-636.1-265-636.1-795.1c0-481.9,202.4-795.1,636.1-795.1h1156.5v-163.8c0-240.9-115.6-366.2-356.6-366.2h-1248V5703.8z
		 M53770.6,7101.2h-939.6c-192.7,0-269.8,120.5-269.8,361.4c0,240.9,77.1,361.4,269.8,361.4h795.1c96.4,0,144.6-48.2,144.6-144.6
		V7101.2z"/>
</g>
<g transform="scale(0.016) translate(5800, 3879.3081069189)">
	<path fill="#FFFFFF" d="M24880,17981.6l-318-905.9h-1561.2l-318,905.9h-303.6l1219.1-3392.3h385.5l1219.1,3392.3H24880z
		 M23087.5,16834.8H24480l-698.7-1980.4L23087.5,16834.8z"/>
	<path fill="#FFFFFF" d="M26735.1,18015.3c-679.4,0-1026.4-573.4-1026.4-1305.8c0-708.3,327.7-1267.3,1108.3-1267.3
		c380.7,0,616.8,125.3,756.5,245.7v-448.1l-28.9-785.4l327.7-24.1v2862.2c0,269.8,9.6,496.3,38.5,689.1h-284.3
		c-19.3-120.5-24.1-269.8-28.9-414.4C27424.2,17851.5,27086.9,18015.3,26735.1,18015.3z M26797.8,17788.9
		c380.7,0,660.1-240.9,775.8-496.3v-1368.5c-96.4-81.9-327.7-255.4-674.6-255.4c-626.4,0-891.4,414.4-891.4,1050.5
		C26007.5,17379.3,26291.8,17788.9,26797.8,17788.9z"/>
	<path fill="#FFFFFF" d="M30267.2,15475.9h269.8l-867.3,2505.7h-356.6l-857.7-2505.7h308.4l501.1,1503.4l231.3,718h24.1
		c77.1-236.1,154.2-481.9,236.1-718L30267.2,15475.9z"/>
	<path fill="#FFFFFF" d="M32093.4,15442.2c674.6,0,1060.1,515.6,1016.7,1195c-4.8,86.7-19.3,163.8-28.9,192.7l-1826.2-9.6
		c14.5,636.1,371,973.4,934.8,973.4c260.2,0,563.8-86.7,799.9-212v250.6c-207.2,96.4-486.7,183.1-828.8,183.1
		c-780.6,0-1204.6-496.3-1204.6-1272.1C30956.2,15938.5,31399.5,15442.2,32093.4,15442.2z M31259.8,16646.9l1570.9-19.3
		c38.6-568.6-250.6-963.7-727.6-963.7C31592.3,15663.9,31288.7,16020.4,31259.8,16646.9z"/>
	<path fill="#FFFFFF" d="M34700.3,15447c62.6,0,144.6,9.6,216.8,19.3v269.8c-77.1-19.3-168.7-28.9-245.8-28.9
		c-308.4,0-457.8,255.4-554.1,462.6v1811.8h-289.1v-1792.5c0-236.1-9.6-462.6-57.8-708.3l284.3-33.7
		c28.9,149.4,43.4,293.9,48.2,438.5C34199.1,15683.1,34377.4,15447,34700.3,15447z"/>
	<path fill="#FFFFFF" d="M36126.6,18015.3c-419.2,0-587.9-173.5-587.9-693.9V15688h-356.6v-212h356.6c0-231.3,0-462.6-33.7-693.9
		l318-28.9v722.8l718-33.7v245.7h-718v1604.6c0,385.5,91.6,491.5,385.5,491.5c110.8,0,269.8-43.4,361.4-77.1v245.7
		C36478.3,17991.2,36266.3,18015.3,36126.6,18015.3z"/>
	<path fill="#FFFFFF" d="M37340.9,15003.7c-120.5,0-192.7-57.8-192.7-187.9c0-130.1,72.3-192.7,197.6-192.7
		c125.3,0,197.6,62.6,197.6,192.7C37543.3,14945.9,37471,15003.7,37340.9,15003.7z M37196.3,17981.6l-4.8-1720.2l-28.9-785.4
		l318-24.1v2529.8H37196.3z"/>
	<path fill="#FFFFFF" d="M39037,18010.5c-356.6,0-679.4-96.4-857.7-183.1v-260.2c154.2,81.9,477,231.3,833.6,231.3
		c385.5,0,597.5-154.2,597.5-443.3c0-318-255.4-395.1-665-530c-371-120.5-727.6-255.4-727.6-713.2c0-448.1,337.3-669.8,833.6-669.8
		c289.1,0,587.9,67.5,771,134.9v255.4c-115.6-57.8-433.7-178.3-737.2-178.3c-366.2,0-578.2,154.2-578.2,443.3
		c0,327.7,284.3,395.1,645.7,515.6c390.3,130.1,751.7,260.2,751.7,718C39904.4,17803.3,39533.3,18010.5,39037,18010.5z"/>
	<path fill="#FFFFFF" d="M40742.8,15003.7c-120.5,0-192.7-57.8-192.7-187.9c0-130.1,72.3-192.7,197.6-192.7
		c125.3,0,197.6,62.6,197.6,192.7C40945.2,14945.9,40872.9,15003.7,40742.8,15003.7z M40598.2,17981.6l-4.8-1720.2l-28.9-785.4
		l318-24.1v2529.8H40598.2z"/>
	<path fill="#FFFFFF" d="M41764.3,17981.6v-1792.5c0-236.1-9.6-462.6-62.6-708.3l289.1-33.7c38.6,159,48.2,327.7,48.2,486.7
		c192.7-265,481.9-491.5,867.3-491.5c501.1,0,824,313.2,824,954.1v790.3c0,289.1,4.8,568.6,33.7,795.1h-293.9
		c-28.9-245.7-28.9-587.9-28.9-838.4v-732.4c0-477-226.5-742.1-621.6-742.1c-327.7,0-607.1,255.4-766.2,501.1v1811.8H41764.3z"/>
	<path fill="#FFFFFF" d="M46525.1,15461.5v216.8l-424-24.1c192.7,149.4,274.7,371,274.7,621.6c0,491.5-298.8,809.5-968.5,809.5
		c-154.2,0-293.9-19.3-419.2-53c-96.4,57.8-187.9,139.7-187.9,284.3c0,274.7,342.1,293.9,732.4,293.9
		c520.4,0,939.6,62.6,939.6,549.3c0,616.8-645.7,713.2-1146.8,713.2c-645.7,0-968.5-168.7-968.5-559c0-327.7,216.8-477,467.4-568.6
		c-163.8-62.6-274.7-178.3-274.7-385.5c0-202.4,106-318,260.2-399.9c-245.8-125.3-385.5-346.9-385.5-679.4
		c0-534.9,366.2-833.6,1002.3-833.6c110.8,0,240.9,9.6,346.9,33.7L46525.1,15461.5z M45402.4,16887.8c443.3,0,684.2-221.7,684.2-612
		c0-409.6-260.2-631.2-674.6-631.2c-385.5,0-698.7,192.7-698.7,640.9C44713.3,16709.5,45002.4,16887.8,45402.4,16887.8z
		 M45546.9,17827.4c-163.8,0-337.3,0-491.5-24.1c-250.6,101.2-414.4,221.7-414.4,462.6c0,327.7,279.5,399.9,693.9,399.9
		c549.3,0,867.3-130.1,867.3-462.6C46202.3,17880.4,45908.3,17827.4,45546.9,17827.4z"/>
	<path fill="#FFFFFF" d="M50240.3,17981.6h-289.1c-14.5-120.5-19.3-269.8-24.1-409.6c-250.6,293.9-506,443.3-881.8,443.3
		c-428.9,0-799.9-197.6-799.9-713.2c0-568.6,443.3-746.9,1026.4-746.9c236.1,0,477,28.9,645.7,57.8l-4.8-332.5
		c-4.8-472.2-192.7-616.8-607.1-616.8c-313.2,0-674.6,81.9-905.9,159v-255.4c269.8-81.9,626.4-125.3,910.7-125.3
		c592.7,0,886.6,192.7,886.6,857.7v910.7C50196.9,17446.7,50201.7,17745.5,50240.3,17981.6z M49117.5,17803.3
		c342.1,0,573.4-173.5,804.7-457.8l-4.8-549.3c-178.3-33.7-399.9-53-583.1-53c-486.7,0-790.3,120.5-790.3,530
		C48544.1,17692.5,48847.7,17803.3,49117.5,17803.3z"/>
	<path fill="#FFFFFF" d="M53001.3,15461.5v216.8l-424-24.1c192.7,149.4,274.7,371,274.7,621.6c0,491.5-298.8,809.5-968.5,809.5
		c-154.2,0-293.9-19.3-419.2-53c-96.4,57.8-187.9,139.7-187.9,284.3c0,274.7,342.1,293.9,732.4,293.9
		c520.4,0,939.6,62.6,939.6,549.3c0,616.8-645.7,713.2-1146.8,713.2c-645.7,0-968.5-168.7-968.5-559c0-327.7,216.8-477,467.4-568.6
		c-163.8-62.6-274.7-178.3-274.7-385.5c0-202.4,106-318,260.2-399.9c-245.8-125.3-385.5-346.9-385.5-679.4
		c0-534.9,366.2-833.6,1002.3-833.6c110.8,0,240.9,9.6,346.9,33.7L53001.3,15461.5z M51878.6,16887.8c443.3,0,684.2-221.7,684.2-612
		c0-409.6-260.2-631.2-674.6-631.2c-385.5,0-698.7,192.7-698.7,640.9C51189.5,16709.5,51478.6,16887.8,51878.6,16887.8z
		 M52023.1,17827.4c-163.8,0-337.3,0-491.5-24.1c-250.6,101.2-414.4,221.7-414.4,462.6c0,327.7,279.5,399.9,693.9,399.9
		c549.3,0,867.3-130.1,867.3-462.6C52678.5,17880.4,52384.5,17827.4,52023.1,17827.4z"/>
	<path fill="#FFFFFF" d="M54630,15442.2c674.6,0,1060.1,515.6,1016.7,1195c-4.8,86.7-19.3,163.8-28.9,192.7l-1826.3-9.6
		c14.5,636.1,371,973.4,934.8,973.4c260.2,0,563.8-86.7,799.9-212v250.6c-207.2,96.4-486.7,183.1-828.8,183.1
		c-780.6,0-1204.6-496.3-1204.6-1272.1C53492.8,15938.5,53936.1,15442.2,54630,15442.2z M53796.4,16646.9l1570.9-19.3
		c38.5-568.6-250.6-963.7-727.6-963.7C54128.9,15663.9,53825.3,16020.4,53796.4,16646.9z"/>
	<path fill="#FFFFFF" d="M56364.7,17981.6v-1792.5c0-236.1-9.6-462.6-62.6-708.3l289.1-33.7c38.5,159,48.2,327.7,48.2,486.7
		c192.7-265,481.9-491.5,867.3-491.5c501.1,0,824,313.2,824,954.1v790.3c0,289.1,4.8,568.6,33.7,795.1h-293.9
		c-28.9-245.7-28.9-587.9-28.9-838.4v-732.4c0-477-226.5-742.1-621.6-742.1c-327.7,0-607.1,255.4-766.2,501.1v1811.8H56364.7z"/>
	<path fill="#FFFFFF" d="M60234,18015.3c-708.3,0-1223.9-452.9-1223.9-1291.4c0-833.6,510.8-1281.7,1209.5-1281.7
		c212,0,452.9,33.7,645.7,110.8l-4.8,250.6c-110.8-48.2-342.1-134.9-592.7-134.9c-597.5,0-958.9,395.1-958.9,1055.3
		c0,665,366.2,1064.9,963.7,1064.9c255.4,0,472.2-86.7,597.5-154.2l4.8,245.7C60658.1,17981.6,60441.2,18015.3,60234,18015.3z"/>
	<path fill="#FFFFFF" d="M62359,18858.6c-313.2,0-645.7-62.6-910.7-197.6v-260.2c212,110.8,559,236.1,891.4,236.1
		c481.9,0,877-192.7,877-761.3v-371c-192.7,265-477,491.5-862.5,491.5c-506,0-828.8-313.2-828.8-949.3v-809.5
		c0-231.3,0-520.4-38.6-761.3l293.9-28.9c38.6,260.2,33.7,621.6,33.7,843.3v737.2c0,481.9,231.3,742.1,626.4,742.1
		c322.8,0,607.1-250.6,761.3-501.1v-1792.5h289.1v2361.1C63501,18583.9,63019.2,18858.6,62359,18858.6z"/>
</g>
</svg>
