<svg xmlns="http://www.w3.org/2000/svg" viewBox="0 80 256 74"><g transform="scale(1.68958)"><radialGradient id="a" cx="328.008" cy="-44.381" r="42.408" gradientTransform="rotate(-22.057 731.978 1656.95) scale(2.0714)" gradientUnits="userSpaceOnUse"><stop offset="0" stop-color="#ef5323"/><stop offset=".228" stop-color="#d91c5c"/><stop offset="1" stop-color="#6d2c90"/></radialGradient><path fill="url(#a)" d="M6.8 80c-.6.2-.8.8-.6 1.3.2.5.8.7 1.4.5.6-.2.8-.8.6-1.3-.2-.5-.9-.7-1.4-.5z"/><radialGradient id="b" cx="328.005" cy="-44.386" r="42.406" gradientTransform="rotate(-22.057 731.978 1656.95) scale(2.0714)" gradientUnits="userSpaceOnUse"><stop offset="0" stop-color="#ef5323"/><stop offset=".228" stop-color="#d91c5c"/><stop offset="1" stop-color="#6d2c90"/></radialGradient><path fill="url(#b)" d="M17.9 83c-1.1.4-1.6 1.5-1.1 2.5s1.7 1.3 2.7.9c1.1-.4 1.6-1.5 1.1-2.5-.4-.9-1.6-1.3-2.7-.9z"/><radialGradient id="c" cx="328.005" cy="-44.37" r="42.373" gradientTransform="rotate(-22.057 731.978 1656.95) scale(2.0714)" gradientUnits="userSpaceOnUse"><stop offset="0" stop-color="#ef5323"/><stop offset=".228" stop-color="#d91c5c"/><stop offset="1" stop-color="#6d2c90"/></radialGradient><path fill="url(#c)" d="M13.3 85.3c-.5.2-.7.7-.5 1.1.2.4.7.6 1.2.4.5-.2.7-.7.5-1.1-.2-.5-.7-.6-1.2-.4z"/><radialGradient id="d" cx="328.001" cy="-44.387" r="42.404" gradientTransform="rotate(-22.057 731.978 1656.95) scale(2.0714)" gradientUnits="userSpaceOnUse"><stop offset="0" stop-color="#ef5323"/><stop offset=".228" stop-color="#d91c5c"/><stop offset="1" stop-color="#6d2c90"/></radialGradient><path fill="url(#d)" d="M21.5 77.9c1.3-.5 2-1.9 1.6-3.1-.3-.7-.9-1.2-1.7-1.4-.3 0-.8 0-1.3.2s-.9.5-1.3 1l-.2.2c-.4.6-.9 1.1-1.7 1.4-.6.2-1.3.2-2 .1-.8-.1-1.6-.2-2.4.2-1.3.5-1.9 1.9-1.4 3.1.5 1.2 1.9 1.7 3.2 1.2.8-.3 1.3-.9 1.8-1.5.4-.5.8-1 1.5-1.3.7-.3 1.4-.2 2 0 .4.1.8.2 1.2.1.2 0 .5-.1.7-.2z"/><radialGradient id="e" cx="328.005" cy="-44.387" r="42.411" gradientTransform="rotate(-22.057 731.978 1656.95) scale(2.0714)" gradientUnits="userSpaceOnUse"><stop offset="0" stop-color="#ef5323"/><stop offset=".228" stop-color="#d91c5c"/><stop offset="1" stop-color="#6d2c90"/></radialGradient><path fill="url(#e)" d="M8.9 71.4c-.4-.9-1.5-1.4-2.5-1-1 .4-1.5 1.5-1.1 2.4.4.9 1.5 1.4 2.5 1 1-.4 1.5-1.5 1.1-2.4z"/><radialGradient id="f" cx="328" cy="-44.387" r="42.394" gradientTransform="rotate(-22.057 731.978 1656.95) scale(2.0714)" gradientUnits="userSpaceOnUse"><stop offset="0" stop-color="#ef5323"/><stop offset=".228" stop-color="#d91c5c"/><stop offset="1" stop-color="#6d2c90"/></radialGradient><path fill="url(#f)" d="M.7 64.9c-.6.2-.9.8-.7 1.3.2.5.8.7 1.4.5s.9-.8.7-1.3-.8-.7-1.4-.5z"/><radialGradient id="g" cx="328.005" cy="-44.388" r="42.406" gradientTransform="rotate(-22.057 731.978 1656.95) scale(2.0714)" gradientUnits="userSpaceOnUse"><stop offset="0" stop-color="#ef5323"/><stop offset=".228" stop-color="#d91c5c"/><stop offset="1" stop-color="#6d2c90"/></radialGradient><path fill="url(#g)" d="M7.3 56.8c1.1-.4 1.7-1.6 1.3-2.5-.3-1-1.4-1.4-2.5-1-1.1.4-1.7 1.6-1.3 2.5.3 1 1.4 1.4 2.5 1z"/><radialGradient id="h" cx="327.992" cy="-44.384" r="42.369" gradientTransform="rotate(-22.057 731.978 1656.95) scale(2.0714)" gradientUnits="userSpaceOnUse"><stop offset="0" stop-color="#ef5323"/><stop offset=".228" stop-color="#d91c5c"/><stop offset="1" stop-color="#6d2c90"/></radialGradient><path fill="url(#h)" d="M2.4 58.4c.5-.2.7-.7.6-1.1-.1-.4-.6-.6-1.1-.4-.5.2-.7.7-.6 1.1.2.4.7.6 1.1.4z"/><radialGradient id="i" cx="328.002" cy="-44.386" r="42.4" gradientTransform="rotate(-22.057 731.978 1656.95) scale(2.0714)" gradientUnits="userSpaceOnUse"><stop offset="0" stop-color="#ef5323"/><stop offset=".228" stop-color="#d91c5c"/><stop offset="1" stop-color="#6d2c90"/></radialGradient><path fill="url(#i)" d="M4.7 64c.5 1.2 1.9 1.7 3.2 1.2.8-.3 1.3-.9 1.8-1.6.5-.6.9-1.1 1.6-1.3.8-.3 1.5-.2 2.2-.1h.3c.6.1 1.1 0 1.6-.2s.9-.5 1.1-.8c.5-.6.6-1.5.3-2.2-.5-1.2-2-1.7-3.3-1.1-.3.1-.5.3-.8.5-.3.2-.5.6-.8.9-.3.5-.7 1.1-1.5 1.4-.6.3-1.3.2-1.9.1-.7-.1-1.5-.2-2.3.2-1.3.4-1.9 1.8-1.5 3z"/><radialGradient id="j" cx="328.004" cy="-44.387" r="42.41" gradientTransform="rotate(-22.057 731.978 1656.95) scale(2.0714)" gradientUnits="userSpaceOnUse"><stop offset="0" stop-color="#ef5323"/><stop offset=".228" stop-color="#d91c5c"/><stop offset="1" stop-color="#6d2c90"/></radialGradient><path fill="url(#j)" d="M11.3 70.4c.7 1.6 2.6 2.4 4.2 1.7 1.7-.7 2.5-2.6 1.9-4.2-.7-1.6-2.6-2.4-4.3-1.7-1.6.7-2.4 2.6-1.8 4.2z"/><radialGradient id="k" cx="328.001" cy="-44.385" r="42.397" gradientTransform="rotate(-22.057 731.978 1656.95) scale(2.0714)" gradientUnits="userSpaceOnUse"><stop offset="0" stop-color="#ef5323"/><stop offset=".228" stop-color="#d91c5c"/><stop offset="1" stop-color="#6d2c90"/></radialGradient><path fill="url(#k)" d="M.9 73.4c-.6.3-.9 1-.7 1.6.2.6 1 .9 1.6.7.6-.3.9-1 .7-1.6-.3-.7-1-1-1.6-.7z"/><radialGradient id="l" cx="328.002" cy="-44.386" r="42.401" gradientTransform="rotate(-22.057 731.978 1656.95) scale(2.0714)" gradientUnits="userSpaceOnUse"><stop offset="0" stop-color="#ef5323"/><stop offset=".228" stop-color="#d91c5c"/><stop offset="1" stop-color="#6d2c90"/></radialGradient><path fill="url(#l)" d="M11.4 50.7c-3 .3-1.5 5.4 3.2 3.7 1.9-.7 4-1.7 7.1-1.1.7.1 1.2.8 1.1 1.3 0 .8-1.1 1.1-1.9.9-.5-.1-1.1-.1-1.9.1-.2.1-.3.2-.5.3-.8.6-.8 1.7-.2 2.6.7 1 1.8 1.1 2.1 1.1.4 0 .8-.1 1.2-.4.7-.7.6-1.7 1.1-2.5.3-.6 2.3-1.7 3.9.8 1.3 1.9.3 3.1-.6 3.4-1.1.4-2.3-.4-3.7.2-2.1.9-3.1 3.3-2.3 5.5.9 2.2 3.3 3.1 5.4 2.4 1.4-.5 1.7-1.9 2.8-2.4.9-.4 2.4-.2 2.8 2 .6 2.9-1.6 3.5-2.2 3.3-.8-.2-1.5-1.1-2.5-1-.4 0-.8.3-1.1.5-.2.2-.9 1.1-.7 2.3.2 1.1 1 1.9 1.9 1.8.2 0 .4 0 .6-.1.8-.3 1.2-.8 1.4-1.2.5-.7 1.5-1.2 2-.7.4.4.5 1.2.1 1.8-1.8 2.6-4 3.3-5.9 4.2-4.6 2-2 6.8.3 4.9 6.8-5.6 9.9-14.4 6.7-22.4-3.1-7.8-11.5-12-20.2-11.3z"/></g><g fill="#FFF"><path d="M78.976 115.952h-5.403c-4.442 0-5.495-2.775-5.495-6.477 0-3.7 1.055-6.477 5.495-6.477h5.2v1.943H74.72c-3.146 0-4.125 1.017-4.125 4.534 0 3.516.981 4.533 4.125 4.533h4.256v1.944zM85.306 106.035c3.516 0 5.217 1.109 5.217 4.995 0 3.922-1.704 5.034-5.217 5.034s-5.218-1.11-5.218-5.034c-.002-3.886 1.701-4.995 5.218-4.995zm-2.981 4.995c0 2.405.76 3.369 2.978 3.369s2.978-.962 2.978-3.369c0-2.405-.76-3.33-2.978-3.33s-2.978.923-2.978 3.33zM91.928 115.952v-8.143c0-1.109.556-1.665 1.665-1.665h3.443c2.22 0 3.812.76 3.812 3.348v6.457h-2.165v-5.885c0-1.482-.574-2.257-2.053-2.257H94.65c-.37 0-.556.186-.556.556v7.586l-2.165.003zM108.008 115.952h-1.351c-2.221 0-3.609-.796-3.609-3.2v-4.94h-1.351v-1.665h1.351V103h2.165v3.147h2.795v1.665h-2.795v4.496c0 1.481.778 1.978 2.257 1.978h.536v1.666zM108.86 115.952v-9.808h2.165v9.808h-2.165zm2.165-11.103h-2.165v-2h2.165v2zM112.726 115.952v-8.143c0-1.109.556-1.665 1.665-1.665h3.442c2.221 0 3.813.76 3.813 3.348v6.457h-2.165v-5.885c0-1.482-.574-2.257-2.053-2.257h-1.979c-.37 0-.556.186-.556.556v7.586l-2.167.003zM132.192 115.952h-5.439c-3.146 0-3.7-1.778-3.7-4.922 0-3.886 1.405-4.995 4.738-4.995 2.774 0 4.718.74 4.718 3.886 0 1.109-.408 1.851-1.518 1.851h-5.699c0 1.482.26 2.517 2.109 2.517h4.791v1.663zm-6.902-5.848h4.495c.426 0 .482-.295.482-.573 0-1.296-1.183-1.831-2.478-1.831-1.852 0-2.5.74-2.5 2.404zM133.914 115.952v-8.143c0-1.109.556-1.665 1.665-1.665h3.442c2.221 0 3.813.76 3.813 3.348v6.457h-2.165v-5.885c0-1.482-.574-2.257-2.053-2.257h-1.979c-.37 0-.556.186-.556.556v7.586l-2.167.003zM149.991 115.952h-1.351c-2.221 0-3.608-.796-3.608-3.2v-4.94h-1.352v-1.665h1.352V103h2.165v3.147h2.794v1.665h-2.794v4.496c0 1.481.777 1.978 2.256 1.978h.536l.002 1.666zM151.269 106.144h5.57c1.85 0 2.756 1.222 2.756 2.887v5.255c0 1.11-.556 1.666-1.665 1.666h-4.94c-1.665 0-2.443-1.018-2.443-3.053 0-1.851.778-3.052 2.443-3.052h4.442v-.63c0-.926-.443-1.405-1.37-1.405h-4.79l-.003-1.668zm6.16 5.365h-3.608c-.739 0-1.035.462-1.035 1.388 0 .925.296 1.387 1.035 1.387h3.053c.37 0 .556-.186.556-.556v-2.219zM161.298 115.952V103h2.165v12.952h-2.165zM165.054 111.917v-1.904h6.605v1.904h-6.605zM173.252 115.952v-8.143c0-1.109.556-1.665 1.666-1.665h8.494c2.22 0 3.812.76 3.812 3.348v6.457h-2.165v-5.885c0-1.482-.574-2.257-2.053-2.257h-1.683v8.142h-2.165v-8.142h-3.182c-.37 0-.556.186-.556.556v7.586h-2.168zM197.768 115.952h-5.439c-3.147 0-3.7-1.778-3.7-4.922 0-3.886 1.405-4.995 4.738-4.995 2.774 0 4.717.74 4.717 3.886 0 1.109-.408 1.851-1.517 1.851h-5.7c0 1.482.261 2.517 2.11 2.517h4.791v1.663zm-6.903-5.848h4.496c.426 0 .482-.295.482-.573 0-1.296-1.183-1.831-2.479-1.831-1.851 0-2.499.74-2.499 2.404zM208.297 102.998v11.286c0 1.11-.556 1.665-1.665 1.665h-3.422c-3.147 0-4.016-1.961-4.016-4.922s.87-4.885 4.016-4.885h2.922v-3.147l2.165.003zm-2.165 4.811h-2.387c-2.09 0-2.312 1.37-2.312 3.221s.221 3.256 2.312 3.256h1.831c.37 0 .556-.186.556-.556v-5.92zM209.998 115.952v-9.808h2.165v9.808h-2.165zm2.165-11.103h-2.165v-2h2.165v2zM214.292 106.144h5.57c1.85 0 2.756 1.222 2.756 2.887v5.255c0 1.11-.556 1.666-1.665 1.666h-4.94c-1.665 0-2.442-1.018-2.442-3.053 0-1.851.777-3.052 2.442-3.052h4.44v-.63c0-.926-.444-1.405-1.37-1.405h-4.79v-1.668zm6.161 5.365h-3.608c-.74 0-1.036.462-1.036 1.388 0 .925.296 1.387 1.036 1.387h3.052c.37 0 .556-.186.556-.556v-2.219z"/></g><g fill="#FFF"><path d="M73.92 130.608l-.766-2.182h-3.762l-.766 2.182h-.732l2.938-8.173h.93l2.937 8.173h-.779zm-4.318-2.761h3.355l-1.683-4.772-1.672 4.772zM78.39 130.69c-1.636 0-2.473-1.381-2.473-3.146 0-1.707.789-3.053 2.67-3.053.917 0 1.487.303 1.823.592v-1.08l-.07-1.892.788-.058v6.896c0 .65.022 1.195.093 1.66h-.685c-.046-.289-.058-.649-.07-.998-.415.685-1.228 1.079-2.076 1.079zm.15-.546c.918 0 1.591-.58 1.87-1.195v-3.298a2.495 2.495 0 0 0-1.626-.616c-1.509 0-2.147.999-2.147 2.532 0 1.59.685 2.577 1.904 2.577zM86.9 124.571h.65l-2.09 6.037h-.858l-2.068-6.037h.743l1.208 3.623.557 1.73h.057c.186-.57.371-1.162.57-1.73l1.232-3.623zM91.3 124.49c1.626 0 2.554 1.241 2.45 2.88-.01.21-.046.395-.07.464l-4.4-.023c.035 1.533.894 2.346 2.253 2.346.627 0 1.358-.21 1.928-.51v.603a4.71 4.71 0 0 1-1.997.441c-1.88 0-2.902-1.195-2.902-3.065 0-1.94 1.067-3.136 2.739-3.136zm-2.007 2.904l3.785-.047c.093-1.37-.603-2.321-1.753-2.321-1.232-.002-1.963.857-2.032 2.368zM97.582 124.503c.15 0 .35.022.522.046v.65a2.58 2.58 0 0 0-.592-.07c-.742 0-1.102.615-1.334 1.114v4.365h-.696v-4.318c0-.57-.023-1.115-.14-1.707l.685-.082c.07.36.104.709.117 1.056.23-.486.66-1.054 1.438-1.054zM101.02 130.69c-1.01 0-1.417-.418-1.417-1.672v-3.936h-.859v-.51h.86c0-.557 0-1.116-.082-1.673l.766-.07v1.74l1.73-.08v.591h-1.732v3.869c0 .93.221 1.184.93 1.184.267 0 .65-.104.87-.186v.592c-.22.093-.73.15-1.067.15zM103.944 123.434c-.29 0-.464-.14-.464-.453 0-.314.174-.464.477-.464.302 0 .477.15.477.464-.002.314-.176.453-.49.453zm-.349 7.174l-.011-4.144-.07-1.893.766-.057v6.096l-.685-.002zM108.03 130.679c-.859 0-1.636-.232-2.067-.442v-.627c.371.197 1.149.557 2.008.557.93 0 1.44-.372 1.44-1.07 0-.766-.616-.951-1.601-1.276-.895-.29-1.754-.616-1.754-1.718 0-1.08.813-1.615 2.008-1.615.696 0 1.416.163 1.858.325v.616c-.279-.14-1.045-.429-1.776-.429-.882 0-1.394.371-1.394 1.069 0 .789.685.952 1.555 1.242.941.313 1.811.627 1.811 1.73.002 1.138-.89 1.638-2.088 1.638zM112.14 123.434c-.289 0-.463-.14-.463-.453 0-.314.174-.464.477-.464.302 0 .476.15.476.464-.001.314-.176.453-.49.453zm-.348 7.174l-.011-4.144-.07-1.893.766-.057v6.096l-.685-.002zM114.602 130.608v-4.318c0-.57-.023-1.115-.15-1.707l.695-.082c.093.382.117.789.117 1.173.464-.639 1.162-1.184 2.09-1.184 1.208 0 1.985.755 1.985 2.299v1.904c0 .696.011 1.37.082 1.915h-.709c-.07-.592-.07-1.416-.07-2.02v-1.765c0-1.15-.546-1.79-1.498-1.79-.789 0-1.462.617-1.846 1.209v4.365l-.696.001zM126.072 124.536v.522l-1.02-.058c.463.36.662.895.662 1.498 0 1.184-.72 1.95-2.333 1.95-.371 0-.709-.046-1.01-.128-.232.14-.453.336-.453.685 0 .662.824.709 1.765.709 1.255 0 2.264.15 2.264 1.323 0 1.486-1.555 1.718-2.763 1.718-1.555 0-2.333-.406-2.333-1.347 0-.789.522-1.149 1.127-1.37-.396-.15-.663-.43-.663-.93 0-.487.256-.765.627-.962-.592-.303-.93-.835-.93-1.637 0-1.288.882-2.008 2.415-2.008.267 0 .581.022.835.082l1.81-.047zm-2.704 3.437c1.069 0 1.648-.534 1.648-1.475 0-.987-.627-1.522-1.626-1.522-.93 0-1.683.464-1.683 1.544 0 1.024.696 1.453 1.661 1.453zm.347 2.264c-.395 0-.813 0-1.184-.058-.603.244-.998.535-.998 1.116 0 .788.673.963 1.672.963 1.323 0 2.09-.314 2.09-1.115 0-.778-.708-.906-1.58-.906zM135.024 130.608h-.696c-.035-.29-.046-.65-.058-.987-.603.709-1.219 1.069-2.124 1.069-1.034 0-1.928-.477-1.928-1.719 0-1.37 1.068-1.8 2.473-1.8.57 0 1.149.07 1.555.14l-.01-.802c-.012-1.138-.465-1.486-1.463-1.486-.755 0-1.626.196-2.183.382v-.616c.65-.197 1.51-.302 2.194-.302 1.429 0 2.136.464 2.136 2.067v2.193c0 .573.011 1.293.104 1.861zm-2.706-.429c.824 0 1.381-.417 1.94-1.102l-.012-1.323a8.063 8.063 0 0 0-1.404-.128c-1.173 0-1.904.29-1.904 1.277 0 1.01.73 1.276 1.38 1.276zM141.677 124.536v.522l-1.021-.058c.464.36.662.895.662 1.498 0 1.184-.72 1.95-2.332 1.95-.372 0-.71-.046-1.01-.128-.232.14-.453.336-.453.685 0 .662.824.709 1.765.709 1.254 0 2.264.15 2.264 1.323 0 1.486-1.555 1.718-2.763 1.718-1.555 0-2.333-.406-2.333-1.347 0-.789.522-1.149 1.126-1.37-.395-.15-.662-.43-.662-.93 0-.487.256-.765.627-.962-.592-.303-.93-.835-.93-1.637 0-1.288.882-2.008 2.415-2.008.267 0 .58.022.835.082l1.81-.047zm-2.706 3.437c1.069 0 1.648-.534 1.648-1.475 0-.987-.627-1.522-1.625-1.522-.93 0-1.684.464-1.684 1.544 0 1.024.698 1.453 1.661 1.453zm.349 2.264c-.395 0-.813 0-1.184-.058-.603.244-.998.535-.998 1.116 0 .788.673.963 1.672.963 1.323 0 2.09-.314 2.09-1.115 0-.778-.71-.906-1.58-.906zM145.6 124.49c1.626 0 2.554 1.241 2.45 2.88-.012.21-.047.395-.07.464l-4.4-.023c.034 1.533.894 2.346 2.252 2.346.627 0 1.358-.21 1.928-.51v.603a4.71 4.71 0 0 1-1.997.441c-1.88 0-2.902-1.195-2.902-3.065 0-1.94 1.069-3.136 2.739-3.136zm-2.008 2.904l3.786-.047c.092-1.37-.604-2.321-1.754-2.321-1.23-.002-1.962.857-2.032 2.368zM149.78 130.608v-4.318c0-.57-.022-1.115-.15-1.707l.696-.082c.093.382.117.789.117 1.173.464-.639 1.162-1.184 2.09-1.184 1.208 0 1.985.755 1.985 2.299v1.904c0 .696.012 1.37.082 1.915h-.709c-.07-.592-.07-1.416-.07-2.02v-1.765c0-1.15-.546-1.79-1.498-1.79-.789 0-1.462.617-1.846 1.209v4.365l-.696.001zM159.102 130.69c-1.707 0-2.948-1.091-2.948-3.112 0-2.008 1.23-3.088 2.913-3.088.51 0 1.091.081 1.555.267l-.01.603c-.268-.117-.825-.325-1.43-.325-1.44 0-2.31.952-2.31 2.543 0 1.601.882 2.566 2.322 2.566a3.13 3.13 0 0 0 1.44-.371l.01.592a3.584 3.584 0 0 1-1.542.325zM164.222 132.722c-.755 0-1.555-.15-2.193-.477v-.627c.51.267 1.347.57 2.147.57 1.162 0 2.114-.465 2.114-1.834v-.895c-.464.639-1.15 1.184-2.079 1.184-1.219 0-1.997-.755-1.997-2.288v-1.95c0-.557 0-1.254-.092-1.834l.708-.07c.093.627.082 1.498.082 2.032v1.776c0 1.162.557 1.789 1.509 1.789.777 0 1.462-.603 1.833-1.208v-4.319h.696v5.69c.024 1.798-1.136 2.46-2.728 2.46z"/></g></svg>