<svg xmlns="http://www.w3.org/2000/svg" viewBox="0 45 1478.3 411.1">
  <g transform="scale(1.68958)">
    <radialGradient id="a" cx="566.39" cy="320.183" r="42.408" gradientTransform="scale(8.1413 -8.1413) rotate(22.056 1135.348 -1241.283)" gradientUnits="userSpaceOnUse">
      <stop offset="0" stop-color="#ef5323"/>
      <stop offset=".228" stop-color="#d91c5c"/>
      <stop offset="1" stop-color="#6d2c90"/>
    </radialGradient>
    <path fill="url(#a)" d="M45.1 223.7c-3.7 1.5-5.5 5.3-4.1 8.6 1.4 3.3 5.5 4.7 9.2 3.2 3.7-1.5 5.5-5.3 4.1-8.6-1.4-3.3-5.5-4.7-9.2-3.2z"/>
    <radialGradient id="b" cx="566.386" cy="320.191" r="42.406" gradientTransform="scale(8.1413 -8.1413) rotate(22.056 1135.348 -1241.283)" gradientUnits="userSpaceOnUse">
      <stop offset="0" stop-color="#ef5323"/>
      <stop offset=".228" stop-color="#d91c5c"/>
      <stop offset="1" stop-color="#6d2c90"/>
    </radialGradient>
    <path fill="url(#b)" d="M118.9 243.7c-7 2.8-10.4 10.2-7.4 16.3s11.1 8.8 18.2 6c7-2.9 10.4-10.2 7.4-16.3-3.1-6.2-11.2-8.9-18.2-6z"/>
    <radialGradient id="c" cx="566.386" cy="320.163" r="42.373" gradientTransform="scale(8.1413 -8.1413) rotate(22.056 1135.348 -1241.283)" gradientUnits="userSpaceOnUse">
      <stop offset="0" stop-color="#ef5323"/>
      <stop offset=".228" stop-color="#d91c5c"/>
      <stop offset="1" stop-color="#6d2c90"/>
    </radialGradient>
    <path fill="url(#c)" d="M88.3 258.7c-3.1 1.2-4.5 4.4-3.2 7.1 1.3 2.7 4.9 3.8 8 2.5 3.1-1.2 4.5-4.4 3.1-7-1.3-2.8-4.8-3.9-7.9-2.6z"/>
    <radialGradient id="d" cx="566.379" cy="320.192" r="42.404" gradientTransform="scale(8.1413 -8.1413) rotate(22.056 1135.348 -1241.283)" gradientUnits="userSpaceOnUse">
      <stop offset="0" stop-color="#ef5323"/>
      <stop offset=".228" stop-color="#d91c5c"/>
      <stop offset="1" stop-color="#6d2c90"/>
    </radialGradient>
    <path fill="url(#d)" d="M143 210c8.5-3.4 13.2-12.7 10.5-20.8-1.7-4.9-5.9-8.3-11.2-9.2-1.9-.3-5.1-.1-8.6 1.3-3.3 1.3-6.1 3.5-8.5 6.5l-1.3 1.6c-2.9 3.7-5.9 7.4-11.2 9.6-4.1 1.6-8.7 1.2-13.6.8-5.3-.5-10.8-1-16 1.1-8.5 3.4-12.8 12.5-9.6 20.3 3.1 7.8 12.6 11.3 21 7.9 5.6-2.3 8.8-6.2 11.8-9.9 2.8-3.4 5.5-6.7 9.8-8.4 4.8-1.9 9.3-1 13.2-.3 2.6.5 5.1 1 7.8.7 2.1-.1 4.1-.5 5.9-1.2z"/>
    <radialGradient id="e" cx="566.385" cy="320.193" r="42.411" gradientTransform="scale(8.1413 -8.1413) rotate(22.056 1135.348 -1241.283)" gradientUnits="userSpaceOnUse">
      <stop offset="0" stop-color="#ef5323"/>
      <stop offset=".228" stop-color="#d91c5c"/>
      <stop offset="1" stop-color="#6d2c90"/>
    </radialGradient>
    <path fill="url(#e)" d="M59.4 166.5c-2.5-6.3-9.9-9.2-16.6-6.5-6.5 2.7-9.9 10-7.4 16.2 2.5 6.3 10.1 9.2 16.6 6.5 6.7-2.7 9.9-9.9 7.4-16.2z"/>
    <radialGradient id="f" cx="566.376" cy="320.192" r="42.394" gradientTransform="scale(8.1413 -8.1413) rotate(22.056 1135.348 -1241.283)" gradientUnits="userSpaceOnUse">
      <stop offset="0" stop-color="#ef5323"/>
      <stop offset=".228" stop-color="#d91c5c"/>
      <stop offset="1" stop-color="#6d2c90"/>
    </radialGradient>
    <path fill="url(#f)" d="M4.8 123.3c-3.7 1.5-5.7 5.4-4.4 8.7 1.3 3.3 5.3 4.8 9 3.3s5.7-5.4 4.4-8.7c-1.3-3.3-5.3-4.8-9-3.3z"/>
    <radialGradient id="g" cx="566.385" cy="320.194" r="42.406" gradientTransform="scale(8.1413 -8.1413) rotate(22.056 1135.348 -1241.283)" gradientUnits="userSpaceOnUse">
      <stop offset="0" stop-color="#ef5323"/>
      <stop offset=".228" stop-color="#d91c5c"/>
      <stop offset="1" stop-color="#6d2c90"/>
    </radialGradient>
    <path fill="url(#g)" d="M48.4 69.7c7.1-2.9 11-10.4 8.9-16.9-2.1-6.5-9.6-9.4-16.6-6.6-7.1 2.9-11 10.4-8.9 16.9 2.1 6.5 9.5 9.5 16.6 6.6z"/>
    <radialGradient id="h" cx="566.363" cy="320.187" r="42.369" gradientTransform="scale(8.1413 -8.1413) rotate(22.056 1135.348 -1241.283)" gradientUnits="userSpaceOnUse">
      <stop offset="0" stop-color="#ef5323"/>
      <stop offset=".228" stop-color="#d91c5c"/>
      <stop offset="1" stop-color="#6d2c90"/>
    </radialGradient>
    <path fill="url(#h)" d="M16 80.2c3.1-1.2 4.8-4.5 3.9-7.4-.9-2.8-4.1-4.1-7.2-2.9-3.1 1.3-4.8 4.6-4 7.4 1 2.9 4.3 4.2 7.3 2.9z"/>
    <radialGradient id="i" cx="566.381" cy="320.19" r="42.4" gradientTransform="scale(8.1413 -8.1413) rotate(22.056 1135.348 -1241.283)" gradientUnits="userSpaceOnUse">
      <stop offset="0" stop-color="#ef5323"/>
      <stop offset=".228" stop-color="#d91c5c"/>
      <stop offset="1" stop-color="#6d2c90"/>
    </radialGradient>
    <path fill="url(#i)" d="M31.5 117.4c3.1 7.8 12.6 11.3 21 7.9 5.1-2.1 8.7-6.3 12.2-10.3 3.2-3.7 6.2-7.3 10.3-8.9 5.3-2.1 10.1-1.5 14.7-.8l2.1.3c3.8.5 7.4.1 10.7-1.3 3.4-1.4 5.9-3.5 7-5.1 3.3-4.3 3.9-9.7 1.7-14.4-3.6-7.7-13.5-11-22-7.6-1.8.7-3.5 1.8-5 3.2-2.1 1.6-3.6 3.7-5.1 5.9-2.3 3.3-4.8 7-9.7 9-4.3 1.7-8.5 1.3-12.9.8-4.8-.5-9.8-1.1-15.4 1.1-8.5 3.4-12.8 12.5-9.6 20.2z"/>
    <radialGradient id="j" cx="566.383" cy="320.192" r="42.41" gradientTransform="scale(8.1413 -8.1413) rotate(22.056 1135.348 -1241.283)" gradientUnits="userSpaceOnUse">
      <stop offset="0" stop-color="#ef5323"/>
      <stop offset=".228" stop-color="#d91c5c"/>
      <stop offset="1" stop-color="#6d2c90"/>
    </radialGradient>
    <path fill="url(#j)" d="M75.2 160.1c4.4 10.7 17 15.8 28.2 11.3 11.3-4.6 16.9-17 12.5-27.8-4.4-10.8-17-15.8-28.3-11.3-11.2 4.6-16.8 17.1-12.4 27.8z"/>
    <radialGradient id="k" cx="566.379" cy="320.188" r="42.397" gradientTransform="scale(8.1413 -8.1413) rotate(22.056 1135.348 -1241.283)" gradientUnits="userSpaceOnUse">
      <stop offset="0" stop-color="#ef5323"/>
      <stop offset=".228" stop-color="#d91c5c"/>
      <stop offset="1" stop-color="#6d2c90"/>
    </radialGradient>
    <path fill="url(#k)" d="M5.7 179.6c-4.2 1.7-6.2 6.5-4.6 10.5 1.6 4.1 6.4 6.1 10.6 4.4 4.1-1.7 6.2-6.4 4.6-10.5-1.6-4.1-6.5-6.1-10.6-4.4z"/>
    <radialGradient id="l" cx="566.381" cy="320.19" r="42.401" gradientTransform="scale(8.1413 -8.1413) rotate(22.056 1135.348 -1241.283)" gradientUnits="userSpaceOnUse">
      <stop offset="0" stop-color="#ef5323"/>
      <stop offset=".228" stop-color="#d91c5c"/>
      <stop offset="1" stop-color="#6d2c90"/>
    </radialGradient>
    <path fill="url(#l)" d="M75.4 29.4c-20 1.7-10.2 36 21 24.6 12.7-4.6 26.6-11.1 47.4-7.2 4.8.9 7.7 5.2 7.6 8.9-.1 5-7.5 7-12.7 6-3.2-.6-7.3-.9-12.5.9-1.3.5-2.3 1.2-3.2 2-5 3.8-5.6 11.1-1.1 17.4 4.5 6.5 12 7.5 13.7 7.5 2.5-.1 5.6-.5 7.7-2.5 4.9-4.4 4.3-11.6 7.2-16.3 1.7-4 15.3-11.2 25.9 5.3 8.4 12.9 2.3 20.7-4 22.9-7.6 2.6-15-2.6-24.3 1.5-13.7 5.9-20.5 21.8-15 36.3 6.2 14.3 22.1 20.9 36 15.7 9.5-3.5 11.2-12.4 18.5-15.8 6.1-2.8 15.9-1.5 18.8 13.6 3.9 19.3-10.9 23.5-14.9 21.8-5.3-1.4-9.9-7-16.5-6.7-2.9.1-5.4 1.9-7.3 3.6-1.3 1.2-5.9 7.2-4.6 15 1.2 7.6 6.7 12.5 12.9 11.7 1.2-.1 2.4-.3 3.7-.8 5-2.3 7.7-5.4 9.6-8.1 3.1-4.4 9.7-8.1 13.3-4.6 2.7 2.6 3.5 7.8.7 11.7-12.2 17.2-26.7 22.2-39.1 27.8-30.4 13.6-13.5 45 2 32.3 45.1-36.9 65.5-95.9 44.2-148.6-21.2-52.7-76.9-80.9-135-75.9z"/>
  </g>
  <g fill="#373E46">
    <path d="M524.454 250.439h-35.879c-29.49 0-36.493-18.432-36.493-43.006s7.005-43.006 36.493-43.006h34.527v12.903h-26.91c-20.89 0-27.4 6.758-27.4 30.105s6.513 30.106 27.4 30.106h28.262v12.898zM566.475 184.58c23.345 0 34.65 7.372 34.65 33.175 0 26.048-11.305 33.423-34.65 33.423s-34.65-7.372-34.65-33.423c0-25.803 11.305-33.175 34.65-33.175zm-19.783 33.175c0 15.973 5.04 22.364 19.783 22.364s19.783-6.39 19.783-22.364-5.039-22.116-19.783-22.116-19.783 6.143-19.783 22.116zM610.465 250.439v-54.066c0-7.372 3.688-11.059 11.06-11.059h22.855c14.744 0 25.312 5.039 25.312 22.241v42.884h-14.377v-39.074c0-9.83-3.81-14.992-13.64-14.992h-13.148c-2.458 0-3.687 1.23-3.687 3.688v50.378h-14.375zM717.244 250.439h-8.97c-14.745 0-23.96-5.284-23.96-21.257v-32.809h-8.972v-11.059h8.971v-20.89h14.377v20.89h18.554v11.06H698.69v29.86c0 9.83 5.161 13.148 14.992 13.148h3.562v11.057zM722.895 250.439v-65.122h14.377v65.124h-14.377zm14.377-73.724h-14.377v-13.27h14.377v13.27zM748.576 250.439v-54.066c0-7.372 3.687-11.059 11.06-11.059h22.855c14.744 0 25.311 5.039 25.311 22.241v42.884h-14.377v-39.074c0-9.83-3.81-14.992-13.64-14.992h-13.148c-2.458 0-3.687 1.23-3.687 3.688v50.378h-14.374zM877.84 250.439h-36.125c-20.89 0-24.575-11.797-24.575-32.684 0-25.803 9.338-33.175 31.457-33.175 18.431 0 31.332 4.914 31.332 25.803 0 7.372-2.703 12.289-10.075 12.289h-37.845c0 9.83 1.722 16.71 14.007 16.71h31.824v11.057zm-45.833-38.83h29.858c2.825 0 3.195-1.965 3.195-3.809 0-8.601-7.864-12.164-16.466-12.164-12.285 0-16.587 4.917-16.587 15.974zM889.267 250.439v-54.066c0-7.372 3.687-11.059 11.06-11.059h22.855c14.744 0 25.311 5.039 25.311 22.241v42.884h-14.377v-39.074c0-9.83-3.81-14.992-13.64-14.992H907.33c-2.459 0-3.688 1.23-3.688 3.688v50.378h-14.374zM996.043 250.439h-8.97c-14.745 0-23.96-5.284-23.96-21.257v-32.809h-8.971v-11.059h8.97v-20.89h14.377v20.89h18.554v11.06H977.49v29.86c0 9.83 5.162 13.148 14.992 13.148h3.562v11.057zM1004.522 185.317h36.985c12.289 0 18.31 8.109 18.31 19.168v34.897c0 7.372-3.688 11.06-11.06 11.06h-32.806c-11.06 0-16.22-6.758-16.22-20.276 0-12.288 5.16-20.275 16.22-20.275h29.49v-4.177c0-6.143-2.947-9.338-9.093-9.338h-31.824v-11.06zm40.917 35.633h-23.96c-4.913 0-6.88 3.073-6.88 9.216s1.967 9.216 6.88 9.216h20.275c2.459 0 3.688-1.23 3.688-3.688V220.95zM1071.12 250.439v-86.012h14.377v86.012h-14.377zM1096.064 223.653v-12.655h43.865v12.655h-43.865zM1150.497 250.439v-54.066c0-7.372 3.687-11.059 11.059-11.059h56.398c14.744 0 25.312 5.039 25.312 22.241v42.884h-14.377v-39.074c0-9.83-3.81-14.992-13.64-14.992h-11.182v54.066h-14.377v-54.066h-21.134c-2.458 0-3.688 1.23-3.688 3.688v50.378h-14.371zM1313.306 250.439h-36.125c-20.89 0-24.575-11.797-24.575-32.684 0-25.803 9.338-33.175 31.457-33.175 18.431 0 31.332 4.914 31.332 25.803 0 7.372-2.703 12.289-10.075 12.289h-37.845c0 9.83 1.722 16.71 14.007 16.71h31.824v11.057zm-45.833-38.83h29.858c2.825 0 3.195-1.965 3.195-3.809 0-8.601-7.864-12.164-16.465-12.164-12.286 0-16.588 4.917-16.588 15.974zM1383.22 164.427v74.952c0 7.372-3.687 11.06-11.06 11.06h-22.73c-20.89 0-26.663-13.026-26.663-32.684s5.776-32.438 26.663-32.438h19.413v-20.89h14.377zm-14.375 31.946h-15.85c-13.885 0-15.359 9.094-15.359 21.38 0 12.288 1.474 21.626 15.359 21.626h12.163c2.458 0 3.687-1.229 3.687-3.687v-39.319zM1394.524 250.439v-65.122h14.377v65.124h-14.377zm14.377-73.724h-14.377v-13.27h14.377v13.27zM1423.033 185.317h36.985c12.289 0 18.31 8.109 18.31 19.168v34.897c0 7.372-3.688 11.06-11.06 11.06h-32.808c-11.06 0-16.221-6.758-16.221-20.276 0-12.288 5.161-20.275 16.22-20.275h29.491v-4.177c0-6.143-2.948-9.338-9.093-9.338h-31.824v-11.06zm40.917 35.633h-23.96c-4.913 0-6.88 3.073-6.88 9.216s1.967 9.216 6.88 9.216h20.276c2.458 0 3.687-1.23 3.687-3.688V220.95z"/>
  </g>
  <g fill="#5F6A69">
    <path d="M490.88 347.775l-5.088-14.495h-24.98l-5.087 14.495h-4.858l19.506-54.277h6.168l19.505 54.277h-5.166zm-28.68-18.35h22.28L473.3 297.74l-11.1 31.687zM520.562 348.314c-10.87 0-16.423-9.175-16.423-20.893 0-11.333 5.243-20.277 17.733-20.277 6.091 0 9.869 2.005 12.104 3.931v-7.17l-.462-12.566 5.243-.385v45.795c0 4.317.153 7.94.616 11.026h-4.549c-.309-1.928-.386-4.317-.462-6.63-2.775 4.548-8.172 7.169-13.8 7.169zm1.003-3.623c6.091 0 10.561-3.854 12.413-7.94v-21.896c-1.543-1.31-5.244-4.087-10.794-4.087-10.022 0-14.262 6.63-14.262 16.808-.002 10.562 4.547 17.115 12.643 17.115zM577.075 307.683h4.317l-13.877 40.092h-5.705l-13.724-40.092h4.935l8.017 24.055 3.701 11.488h.386c1.233-3.778 2.467-7.71 3.777-11.488l8.173-24.055zM606.294 307.144c10.794 0 16.962 8.25 16.268 19.12-.077 1.387-.31 2.62-.463 3.083l-29.219-.153c.232 10.177 5.936 15.574 14.957 15.574 4.163 0 9.02-1.387 12.798-3.392v4.01a31.257 31.257 0 0 1-13.26 2.93c-12.49 0-19.274-7.941-19.274-20.354-.002-12.877 7.091-20.818 18.193-20.818zm-13.337 19.275l25.134-.308c.618-9.098-4.01-15.42-11.641-15.42-8.173 0-13.03 5.704-13.493 15.728zM648.005 307.22c1.001 0 2.313.155 3.469.31v4.317c-1.234-.31-2.7-.463-3.933-.463-4.935 0-7.325 4.087-8.866 7.402v28.989h-4.625v-28.68c0-3.778-.154-7.402-.925-11.333l4.549-.54c.462 2.39.694 4.703.77 7.017 1.542-3.24 4.394-7.018 9.56-7.018zM670.826 348.314c-6.708 0-9.407-2.776-9.407-11.103v-26.134h-5.705v-3.392h5.705c0-3.7 0-7.402-.539-11.102l5.088-.463v11.565l11.488-.54v3.932h-11.488v25.674c0 6.168 1.466 7.864 6.168 7.864 1.773 0 4.317-.695 5.782-1.234v3.931c-1.465.616-4.857 1.002-7.092 1.002zM690.254 300.128c-1.928 0-3.083-.925-3.083-3.006 0-2.082 1.157-3.083 3.162-3.083s3.161 1.001 3.161 3.083c-.001 2.081-1.158 3.006-3.24 3.006zm-2.313 47.647l-.077-27.524-.462-12.566 5.088-.386v40.477h-4.55zM717.392 348.237c-5.706 0-10.87-1.542-13.723-2.93v-4.163c2.467 1.31 7.632 3.7 13.337 3.7 6.168 0 9.56-2.466 9.56-7.092 0-5.088-4.086-6.321-10.64-8.48-5.936-1.928-11.641-4.086-11.641-11.411 0-7.17 5.397-10.717 13.337-10.717 4.626 0 9.407 1.08 12.336 2.159v4.086c-1.85-.925-6.939-2.853-11.795-2.853-5.859 0-9.251 2.467-9.251 7.093 0 5.243 4.549 6.322 10.331 8.25 6.245 2.081 12.027 4.163 12.027 11.488 0 7.555-5.937 10.87-13.878 10.87zM744.685 300.128c-1.928 0-3.083-.925-3.083-3.006 0-2.082 1.156-3.083 3.161-3.083s3.162 1.001 3.162 3.083c-.002 2.081-1.159 3.006-3.24 3.006zm-2.314 47.647l-.077-27.524-.462-12.566 5.088-.386v40.477h-4.549zM761.029 347.775v-28.68c0-3.778-.154-7.402-1.002-11.333l4.626-.54c.617 2.545.771 5.244.771 7.788 3.083-4.24 7.71-7.864 13.877-7.864 8.017 0 13.184 5.01 13.184 15.265v12.645c0 4.626.077 9.098.539 12.722h-4.702c-.463-3.931-.463-9.407-.463-13.415v-11.718c0-7.632-3.624-11.874-9.945-11.874-5.244 0-9.714 4.087-12.26 8.018v28.989h-4.625zM837.202 307.453v3.469l-6.784-.386c3.083 2.39 4.395 5.936 4.395 9.946 0 7.864-4.781 12.952-15.496 12.952-2.467 0-4.703-.31-6.707-.848-1.543.925-3.007 2.235-3.007 4.549 0 4.395 5.474 4.702 11.719 4.702 8.326 0 15.033 1.002 15.033 8.789 0 9.869-10.331 11.41-18.349 11.41-10.33 0-15.496-2.698-15.496-8.943 0-5.243 3.47-7.632 7.479-9.098-2.621-1.001-4.395-2.852-4.395-6.168 0-3.238 1.696-5.088 4.163-6.398-3.933-2.005-6.168-5.55-6.168-10.87 0-8.559 5.859-13.338 16.037-13.338 1.772 0 3.854.154 5.55.54l12.026-.308zm-17.964 22.82c7.093 0 10.948-3.546 10.948-9.791 0-6.554-4.164-10.1-10.794-10.1-6.168 0-11.18 3.084-11.18 10.255 0 6.784 4.626 9.637 11.026 9.637zm2.312 15.034c-2.62 0-5.396 0-7.864-.385-4.01 1.619-6.63 3.547-6.63 7.401 0 5.244 4.472 6.399 11.102 6.399 8.79 0 13.877-2.082 13.877-7.402.002-5.165-4.702-6.013-10.485-6.013zM896.645 347.775h-4.626c-.232-1.928-.309-4.317-.385-6.554-4.01 4.702-8.096 7.093-14.11 7.093-6.862 0-12.798-3.162-12.798-11.411 0-9.098 7.093-11.95 16.423-11.95 3.777 0 7.632.462 10.331.924l-.077-5.32c-.077-7.555-3.083-9.869-9.713-9.869-5.012 0-10.794 1.31-14.495 2.544v-4.086c4.317-1.31 10.023-2.005 14.571-2.005 9.484 0 14.186 3.083 14.186 13.723v14.571c-.002 3.781.075 8.562.693 12.34zm-17.965-2.853c5.474 0 9.174-2.776 12.875-7.325l-.077-8.789c-2.852-.54-6.398-.848-9.33-.848-7.786 0-12.644 1.928-12.644 8.48.002 6.709 4.86 8.482 9.176 8.482zM940.82 307.453v3.469l-6.783-.386c3.083 2.39 4.395 5.936 4.395 9.946 0 7.864-4.78 12.952-15.496 12.952-2.467 0-4.702-.31-6.707-.848-1.543.925-3.007 2.235-3.007 4.549 0 4.395 5.474 4.702 11.719 4.702 8.326 0 15.033 1.002 15.033 8.789 0 9.869-10.33 11.41-18.348 11.41-10.332 0-15.496-2.698-15.496-8.943 0-5.243 3.468-7.632 7.478-9.098-2.62-1.001-4.395-2.852-4.395-6.168 0-3.238 1.696-5.088 4.163-6.398-3.933-2.005-6.168-5.55-6.168-10.87 0-8.559 5.86-13.338 16.037-13.338 1.773 0 3.854.154 5.55.54l12.026-.308zm-17.962 22.82c7.092 0 10.947-3.546 10.947-9.791 0-6.554-4.163-10.1-10.794-10.1-6.168 0-11.179 3.084-11.179 10.255 0 6.784 4.626 9.637 11.026 9.637zm2.312 15.034c-2.621 0-5.397 0-7.864-.385-4.01 1.619-6.63 3.547-6.63 7.401 0 5.244 4.471 6.399 11.102 6.399 8.788 0 13.876-2.082 13.876-7.402.002-5.165-4.702-6.013-10.484-6.013zM966.88 307.144c10.794 0 16.962 8.25 16.267 19.12-.077 1.387-.309 2.62-.462 3.083l-29.221-.153c.232 10.177 5.936 15.574 14.957 15.574 4.163 0 9.02-1.387 12.798-3.392v4.01a31.257 31.257 0 0 1-13.26 2.93c-12.49 0-19.274-7.941-19.274-20.354 0-12.877 7.093-20.818 18.195-20.818zm-13.338 19.275l25.135-.308c.616-9.098-4.01-15.42-11.642-15.42-8.173 0-13.03 5.704-13.493 15.728zM994.635 347.775v-28.68c0-3.778-.153-7.402-1.001-11.333l4.625-.54c.616 2.545.771 5.244.771 7.788 3.084-4.24 7.71-7.864 13.877-7.864 8.018 0 13.184 5.01 13.184 15.265v12.645c0 4.626.077 9.098.54 12.722h-4.703c-.462-3.931-.462-9.407-.462-13.415v-11.718c0-7.632-3.624-11.874-9.946-11.874-5.243 0-9.714 4.087-12.26 8.018v28.989h-4.625zM1056.544 348.314c-11.333 0-19.582-7.247-19.582-20.663 0-13.337 8.172-20.507 19.352-20.507 3.392 0 7.246.54 10.33 1.773l-.076 4.01c-1.773-.772-5.474-2.159-9.483-2.159-9.56 0-15.343 6.322-15.343 16.885 0 10.64 5.86 17.038 15.42 17.038 4.086 0 7.555-1.387 9.56-2.467l.076 3.931c-3.468 1.62-6.939 2.159-10.254 2.159zM1090.544 361.807c-5.011 0-10.331-1.002-14.571-3.162v-4.163c3.392 1.773 8.944 3.777 14.262 3.777 7.71 0 14.032-3.083 14.032-12.18v-5.936c-3.083 4.24-7.632 7.864-13.8 7.864-8.096 0-13.26-5.012-13.26-15.19v-12.951c0-3.701 0-8.327-.618-12.181l4.702-.462c.618 4.163.54 9.945.54 13.492v11.796c0 7.71 3.7 11.873 10.022 11.873 5.165 0 9.713-4.01 12.18-8.017v-28.68h4.626v37.777c.157 11.947-7.552 16.343-18.115 16.343z"/>
  </g>
</svg>
