<svg xmlns="http://www.w3.org/2000/svg" viewBox="0 0 31.059 31.059" width="512" height="512"><path d="M23.128 31.059H7.931C3.558 31.059 0 27.5 0 23.127V7.93C0 3.557 3.558 0 7.931 0h15.197c4.373 0 7.931 3.557 7.931 7.93v15.197c0 4.373-3.558 7.932-7.931 7.932zM7.931 1.774a6.162 6.162 0 0 0-6.156 6.155v15.197a6.163 6.163 0 0 0 6.156 6.156h15.197a6.162 6.162 0 0 0 6.155-6.156V7.93a6.161 6.161 0 0 0-6.155-6.155H7.931z" fill="#d91c5c"/><path d="M30.171 11.654H19.232a.889.889 0 0 1 0-1.776H30.17a.888.888 0 0 1 .001 1.776zM11.597 11.654H.887a.887.887 0 0 1 0-1.775h10.71a.888.888 0 1 1 0 1.775z" fill="#d91c5c"/><path d="M15.529 22.45c-3.816 0-6.922-3.104-6.922-6.921a6.93 6.93 0 0 1 6.922-6.922 6.929 6.929 0 0 1 6.921 6.922 6.928 6.928 0 0 1-6.921 6.921zm0-12.068c-2.838 0-5.148 2.31-5.148 5.148s2.31 5.146 5.148 5.146c2.838 0 5.146-2.308 5.146-5.146s-2.308-5.148-5.146-5.148zM25.557 9.361h-3.993a.888.888 0 0 1-.888-.887V4.48c0-.49.398-.887.888-.887h3.993c.49 0 .887.397.887.887v3.994a.887.887 0 0 1-.887.887zM22.45 7.586h2.219V5.368H22.45v2.218z" fill="#d91c5c"/></svg>