<svg xmlns="http://www.w3.org/2000/svg" viewBox="0 0 300 300"><linearGradient id="a" gradientUnits="userSpaceOnUse" x1="150" y1="299.942" x2="150" y2=".058"><stop offset="0" stop-color="#ec77ab"/><stop offset="1" stop-color="#7873f5"/></linearGradient><path fill="url(#a)" d="M248.2 93.4l50.1-50.1c2.3-2.3 2.3-5.9 0-8.2-1-1.1-2.4-1.7-3.9-1.7l.2.3-27.2-.9-.9-27.2c-.1-3.2-2.8-5.7-6-5.6-1.5 0-2.9.7-3.9 1.7l-50 49.8c-1.1 1.1-1.7 2.7-1.7 4.3v5.8C145.4 20.7 64 35.7 23.1 95.1s-26 140.8 33.5 181.8c59.4 40.9 140.8 26 181.8-33.5 30.8-44.6 30.8-103.6 0-148.3h5.8c1.5 0 2.9-.6 4-1.7zm1.8 75.9c.1 65.8-53.2 119.3-119.1 119.4S11.6 235.5 11.5 169.6c-.1-65.8 53.3-119.3 119.1-119.4 27.3 0 53.7 9.3 74.9 26.4l.3 9.7-23.2 23.2c-33-28.9-83.1-25.6-112 7.4S45 200 78 228.9s83.1 25.6 112-7.4c26-29.6 26.3-73.8.7-103.8l23.2-23.2 9.6.3c17 21.1 26.4 47.4 26.5 74.5zm-123 3.9c2.3 2.2 5.9 2.2 8.2 0l11.6-11.6c1.1 2.3 1.7 4.9 1.7 7.5 0 9.6-7.8 17.4-17.4 17.4s-17.4-7.8-17.4-17.4 7.8-17.4 17.4-17.4c2.6 0 5.1.6 7.5 1.7L127 165c-2.2 2.3-2.2 5.9 0 8.2zm20.1-28.3c-13.3-8.8-31.3-5.2-40.1 8.2s-5.2 31.3 8.2 40.1c13.3 8.8 31.3 5.2 40.1-8.2 6.4-9.7 6.4-22.3 0-32l27.5-27.5c24.1 28.6 20.4 71.3-8.2 95.3s-71.3 20.4-95.3-8.2-20.4-71.3 8.2-95.3c25.2-21.2 62-21.2 87.2 0l-27.6 27.6zm70.4-62.2l-.8-24.7 38.8-38.8.6 19.3c0 3.2 2.6 5.8 5.8 5.8l19.3.6-39 38.6-24.7-.8z"/></svg>