<svg xmlns="http://www.w3.org/2000/svg" viewBox="0 0 300 300"><g transform="translate(0 -1)"><linearGradient id="a" gradientUnits="userSpaceOnUse" x1="89.816" y1="116.255" x2="279.664" y2="116.255"><stop offset="0" stop-color="#ec77ab"/><stop offset="1" stop-color="#7873f5"/></linearGradient><path fill="url(#a)" d="M221 28.5c-41.8-17.3-90.1-2.6-115.2 35s-20.2 87.8 11.8 119.8c17.8 17.8 42 27.8 67.2 27.8 45.3 0 84.2-32.1 93-76.5s-15-88.8-56.8-106.1zm42.7 120.2c-15.5 37.6-55.4 58.9-95.3 51-39.9-7.9-68.6-42.9-68.6-83.5 0-22.6 8.9-44.2 24.9-60.2 28.7-28.8 73.7-33.3 107.5-10.7 33.9 22.6 47 65.8 31.5 103.4z"/><linearGradient id="b" gradientUnits="userSpaceOnUse" y1="151" x2="300" y2="151"><stop offset="0" stop-color="#ec77ab"/><stop offset="1" stop-color="#7873f5"/></linearGradient><path fill="url(#b)" d="M266.3 34.7C223.4-8.2 154.6-10.4 109 29.6S56.7 138 93.6 186.1l-8.8 8.8c-3.4-.9-7.1 0-9.6 2.5l-63.7 63.7C9 263.6 8 267.3 9 270.7l-4.5 4.5C1.6 278.2 0 282 0 286c0 4 1.6 7.8 4.4 10.6l3.5-3.5-3.5 3.5C7.2 299.4 11 301 15 301s7.8-1.6 10.6-4.4l4.5-4.5c3.4 1 7.1 0 9.6-2.5l63.7-63.7c2.5-2.5 3.5-6.2 2.5-9.6l8.8-8.8c48.1 36.9 116.6 30.2 156.6-15.4 40.1-45.7 37.9-114.5-5-157.4zM18.5 289.5c-2 1.9-5.1 1.9-7.1 0-.9-.9-1.5-2.2-1.5-3.5 0-1.3.5-2.6 1.5-3.5l3.5-3.5 7.1 7.1-3.5 3.4zm14.2-7l-7.1-7.1-7.1-7.1L68 218.8 82.2 233l-49.5 49.5zm56.6-56.7l-14.2-14.2 7.1-7.1 7.1 7.1 7.1 7.1-7.1 7.1zm10.6-17.6l-3.5-3.5-3.5-3.5 7.3-7.3c1.1 1.2 2.2 2.5 3.4 3.7 1.2 1.2 2.5 2.2 3.7 3.4l-7.4 7.2zm125.2 5c-39.3 16.3-84.5 7.3-114.5-22.8-41-41.1-41-107.5 0-148.6 30.1-30.1 75.3-39 114.5-22.8 39.3 16.3 64.9 54.6 64.9 97.1s-25.7 80.9-64.9 97.1z"/><linearGradient id="c" gradientUnits="userSpaceOnUse" x1="124.968" y1="103.551" x2="249.932" y2="103.551"><stop offset="0" stop-color="#ec77ab"/><stop offset="1" stop-color="#7873f5"/></linearGradient><path fill="url(#c)" d="M224.9 101.1c-5.5 0-10 4.5-10 10v25h-10v-45c0-5.5-4.5-10-10-10h-15c-5.5 0-10 4.5-10 10v45h-10v-65c0-5.5-4.5-10-10-10h-15c-5.5 0-10 4.5-10 10v70c0 2.8 2.2 5 5 5h115c2.8 0 5-2.2 5-5v-30c0-5.5-4.5-10-10-10h-15zM150 136h-15V71h15v65zm44.9 0h-15V91h15v45zm45 0h-15v-25h15v25z"/><linearGradient id="d" gradientUnits="userSpaceOnUse" x1="224.941" y1="161.034" x2="239.936" y2="161.034"><stop offset="0" stop-color="#ec77ab"/><stop offset="1" stop-color="#7873f5"/></linearGradient><path fill="url(#d)" d="M234.9 156h-5c-2.8 0-5 2.2-5 5s2.2 5 5 5h5c2.8 0 5-2.2 5-5 0-2.7-2.2-5-5-5z"/><linearGradient id="e" gradientUnits="userSpaceOnUse" x1="179.954" y1="161.034" x2="194.949" y2="161.034"><stop offset="0" stop-color="#ec77ab"/><stop offset="1" stop-color="#7873f5"/></linearGradient><path fill="url(#e)" d="M190 156h-5c-2.8 0-5 2.2-5 5s2.2 5 5 5h5c2.8 0 5-2.2 5-5-.1-2.7-2.3-5-5-5z"/><linearGradient id="f" gradientUnits="userSpaceOnUse" x1="134.967" y1="161.034" x2="149.962" y2="161.034"><stop offset="0" stop-color="#ec77ab"/><stop offset="1" stop-color="#7873f5"/></linearGradient><path fill="url(#f)" d="M145 156h-5c-2.8 0-5 2.2-5 5s2.2 5 5 5h5c2.8 0 5-2.2 5-5 0-2.7-2.3-5-5-5z"/></g></svg>