<svg xmlns="http://www.w3.org/2000/svg" viewBox="0 0 300 300"><linearGradient id="a" gradientUnits="userSpaceOnUse" x1="150.001" y1="245.985" x2="150.001" y2="54.014"><stop offset="0" stop-color="#ec77ab"/><stop offset="1" stop-color="#7873f5"/></linearGradient><path fill="url(#a)" d="M201.7 162.2l-25.5-11.3c-1.8-.8-3-2.6-3-4.6v-7c8.6-6.8 14.1-17.4 14.1-29.2v-9.9c2.8-1.6 4.7-4.6 4.7-8v-1c0-20.6-16.7-37.3-37.3-37.3h-9.4C124.8 54 108 70.7 108 91.3v8.7c0 3 1.3 5.7 3.5 7.4.4.3.8.5 1.2.8v1.9c0 11.8 5.5 22.3 14.1 29.2v7c0 2-1.2 3.8-3 4.6l-25.5 11.3c-8.4 3.7-13.8 12-13.8 21.2v58.2c0 2.4 2 4.4 4.4 4.4 2.4 0 4.4-2 4.4-4.4v-58.2c0-.5 0-1 .1-1.5l11.8 11.8c1.8 1.8 2.8 4.3 2.8 6.9v41.1c0 2.4 2 4.4 4.4 4.4s4.4-2 4.4-4.4v-41.1c0-4.9-1.9-9.6-5.4-13.1l-14-14c1.3-1.3 2.8-2.4 4.5-3.2L127 159l18.6 18.6v63.9c0 2.4 2 4.4 4.4 4.4s4.4-2 4.4-4.4v-63.9L173 159l25.1 11.2c1.7.8 3.2 1.9 4.5 3.2l-14 14c-3.5 3.5-5.4 8.1-5.4 13.1v41.1c0 2.4 2 4.4 4.4 4.4s4.4-2 4.4-4.4v-41.1c0-2.6 1-5 2.8-6.9l11.8-11.8c.1.5.1 1 .1 1.5v58.2c0 2.4 2 4.4 4.4 4.4s4.4-2 4.4-4.4v-58.2c0-9.1-5.4-17.4-13.8-21.1zm-51.7 7.4l-16.3-16.3c1.2-2.1 1.9-4.5 1.9-7v-1.8c4.4 1.9 9.3 2.9 14.4 2.9s10-1 14.4-2.9v1.8c0 2.5.7 4.9 1.9 7L150 169.6zm0-31c-15.7 0-28.5-12.8-28.5-28.5v-2c2.7-1.1 5.4-2.8 8-5.2 1.8-1.6 1.9-4.4.2-6.2-1.6-1.8-4.4-1.9-6.2-.2-2.2 2-4.4 3.3-6.5 3.9h-.1c0-.1-.1-.2-.1-.4v-8.7c0-15.7 12.8-28.5 28.5-28.5h9.4c15.7 0 28.5 12.8 28.5 28.5v1c0 .1-.1.3-.2.3-26.3 5.2-39.5-4.6-44-9.1-1.7-1.7-4.5-1.7-6.2 0-1.7 1.7-1.7 4.5 0 6.2 13.6 13.6 33.6 13.9 45.7 12.4v7.9c0 15.8-12.8 28.6-28.5 28.6z"/><linearGradient id="b" gradientUnits="userSpaceOnUse" x1="39.622" y1="245.986" x2="39.622" y2="77.499"><stop offset="0" stop-color="#ec77ab"/><stop offset="1" stop-color="#7873f5"/></linearGradient><path fill="url(#b)" d="M79.2 138.3v-9.4c0-11.5-6-21.6-14.9-27.4.6-1.8.8-3.6.8-5.5 0-10.2-8.3-18.5-18.5-18.5S28.2 85.8 28.2 96c0 1.9.3 3.7.8 5.5-9 5.8-14.9 15.9-14.9 27.4v9.4c0 11.1 5.6 20.9 14.1 26.8v9.7c0 1.9-1.1 3.6-2.8 4.5l-15.2 7.6c-6.3 3-10.2 9.4-10.2 16.4v38.3c0 2.4 2 4.4 4.4 4.4s4.4-2 4.4-4.4v-36.4l7.2 7.2c1.8 1.8 2.8 4.3 2.8 6.9v22.3c0 2.4 2 4.4 4.4 4.4s4.4-2 4.4-4.4v-22.3c0-4.9-1.9-9.6-5.4-13.1l-10-10-.1-.1c.6-.6 1.3-1 2.1-1.4l15.2-7.6c.8-.4 1.5-.8 2.2-1.4l10.7 10.7v45.1c0 2.4 2 4.4 4.4 4.4s4.4-2 4.4-4.4v-45.2l10.7-10.7c.7.5 1.4 1 2.2 1.4l4.2 2.1c.6.3 1.3.5 2 .5 1.6 0 3.2-.9 3.9-2.4 1.1-2.2.2-4.8-2-5.9l-4.2-2.1c-1.7-.9-2.8-2.6-2.8-4.5V165c8.6-5.8 14.1-15.6 14.1-26.7zm-32.5-52c5.3 0 9.7 4.4 9.7 9.7 0 .6-.1 1.2-.2 1.7-3-.9-6.2-1.4-9.5-1.4s-6.5.5-9.5 1.4c-.2-.6-.2-1.1-.2-1.7 0-5.4 4.3-9.7 9.7-9.7zm0 18.8c13.1 0 23.8 10.7 23.8 23.8v1.6c-18.3 5.6-29.2-8.3-29.7-8.9-.8-1-1.9-1.7-3.2-1.7-1.3-.1-2.5.4-3.4 1.3-4.2 4.2-8.3 6.2-11.3 7.2.3-13 10.9-23.3 23.8-23.3zm0 83.3l-10.2-10.2c.3-1.1.5-2.3.5-3.5v-5.4c3.1 1 6.3 1.5 9.7 1.5s6.6-.5 9.7-1.5v5.4c0 1.2.2 2.4.5 3.5l-10.2 10.2zm0-26.4c-13.1 0-23.8-10.7-23.8-23.8v-.9c3.5-.8 8.7-2.7 14.1-7 1.9 1.8 4.7 4 8.1 5.9 4.1 2.3 9.8 4.3 16.8 4.3 2.6 0 5.5-.3 8.5-1-.7 12.6-11.1 22.5-23.7 22.5z"/><g><linearGradient id="c" gradientUnits="userSpaceOnUse" x1="255.682" y1="245.986" x2="255.682" y2="86.894"><stop offset="0" stop-color="#ec77ab"/><stop offset="1" stop-color="#7873f5"/></linearGradient><path fill="url(#c)" d="M289.8 177.4l-24.6-12.3c-1.7-.9-2.8-2.6-2.8-4.5v-6.2c5.8-5.1 9.4-12.6 9.4-20.8v-5h.3c2.4 0 4.4-2 4.4-4.4v-9.4c0-15.4-12.5-27.9-27.9-27.9h-9.4c-15.4 0-27.9 12.5-27.9 27.9v9.4c0 2.4 2 4.4 4.4 4.4h.3v5c0 8.3 3.6 15.7 9.4 20.8v6.2c0 1.9-1.1 3.6-2.8 4.5-2.2 1.1-3.1 3.7-2 5.9.8 1.5 2.3 2.4 3.9 2.4.7 0 1.3-.1 2-.5.8-.4 1.5-.8 2.2-1.4l10.7 10.7v59.2c0 2.4 2 4.4 4.4 4.4s4.4-2 4.4-4.4v-59.2l10.7-10.7c.7.5 1.4 1 2.2 1.4l23.8 11.9-7.2 7.2c-3.5 3.5-5.4 8.1-5.4 13.1v36.4c0 2.4 2 4.4 4.4 4.4 2.4 0 4.4-2 4.4-4.4v-36.4c0-2.6 1-5 2.8-6.9l6.8-6.8c.2.8.3 1.6.3 2.5v47.7c0 2.4 2 4.4 4.4 4.4 2.4 0 4.4-2 4.4-4.4v-47.7c.2-7-3.7-13.3-10-16.5zm-69.6-58.5v-4.1c0-10.5 8.6-19.1 19.1-19.1h9.4c10.5 0 19.1 8.6 19.1 19.1v4.9c-19.1-1-30.6-8.5-30.7-8.5-.7-.5-1.6-.7-2.4-.7-1.1 0-2.3.4-3.1 1.3-4.4 4.1-8.5 6.1-11.4 7.1zm23.7 55.4l-10.2-10.2c.3-1.1.5-2.3.5-3.5v-.9c3 1.1 6.3 1.7 9.7 1.7 3.4 0 6.7-.6 9.7-1.7v.9c0 1.2.2 2.4.5 3.5l-10.2 10.2zm0-21.6c-10.5 0-19.1-8.6-19.1-19.1v-7.1c3.1-1.2 6.7-3.2 10.3-6.3 4.6 2.4 14.3 6.6 27.9 7.9v5.5c0 10.5-8.5 19.1-19.1 19.1z"/></g></svg>