<svg xmlns="http://www.w3.org/2000/svg" viewBox="0 0 300 300"><linearGradient id="a" gradientUnits="userSpaceOnUse" y1="150" x2="300" y2="150"><stop offset="0" stop-color="#ec77ab"/><stop offset="1" stop-color="#7873f5"/></linearGradient><path fill="url(#a)" d="M268.8 127.5H195c.6-2.8.8-5.6.8-8.4V53.5c0-25.4-17.7-34.5-34.6-34.5H34.4C17.5 19 0 28 0 53.4v65.7c0 23.1 14.7 32.7 29.9 34.2v29.9c0 3.1 2.5 5.6 5.6 5.6 1.7 0 3.3-.7 4.3-2l28.1-33.3h57.2c-.2 1.7-.3 3.4-.3 5.1v58.3c0 23 16.1 31.2 31.2 31.2h10.9l25.9 30.9c2 2.4 5.5 2.7 7.9.7 1.3-1.1 2-2.7 2-4.3v-27.3h66.1c23 0 31.2-16.1 31.2-31.2v-58.3c.1-23-16.1-31.1-31.2-31.1zm-140.3 14.7l-.2.1H65c-1.7 0-3.3.7-4.3 2l-19.6 23.4v-20c0-3.1-2.5-5.6-5.6-5.6h-1.1c-8.7 0-23.2-3-23.2-23.2V53.5c0-20.2 14.5-23.2 23.2-23.2h126.8c8.7 0 23.2 3 23.2 23.2v65.6c.1 2.8-.3 5.7-1 8.4h-27.3c-11.3-.7-21.9 5-27.6 14.7zm144.3 94.7c-1.3.1-2.6.1-3.9 0H197c-3.1 0-5.6 2.5-5.6 5.6v17.4l-17.6-21c-1.1-1.3-2.7-2-4.3-2h-13.3c-9.9 1.1-18.9-6.1-20-16-.1-1.3-.1-2.6 0-3.9v-58.3c-1-9.9 6.2-18.8 16.2-19.9 1.3-.1 2.5-.1 3.8 0h112.7c9.9-1.1 18.9 6.1 20 16 .1 1.3.1 2.6 0 3.9l.1 58.2c.9 9.9-6.3 18.9-16.2 20z"/><linearGradient id="b" gradientUnits="userSpaceOnUse" x1="76.912" y1="75.954" x2="119.249" y2="75.954"><stop offset="0" stop-color="#ec77ab"/><stop offset="1" stop-color="#7873f5"/></linearGradient><path fill="url(#b)" d="M116.7 60.8c-1.8-2.8-4.4-5-7.4-6.4-3.4-1.6-7-2.3-10.7-2.2-3.9 0-7.8.9-11.2 2.7-3 1.6-5.6 3.9-7.5 6.8-1.9 2.4-2.9 5.3-3 8.3 0 1.4.6 2.7 1.6 3.6 1.1 1.1 2.5 1.7 4 1.7 2.7 0 4.5-1.6 5.6-4.8.7-2.5 2-4.9 3.7-6.9 1.8-1.7 4.3-2.6 6.8-2.4 2.4-.1 4.7.7 6.5 2.3 1.6 1.4 2.5 3.5 2.5 5.6 0 1.1-.3 2.2-.8 3.2s-1.2 1.9-2 2.7c-.8.8-2.1 2-3.9 3.5-1.7 1.5-3.3 3-4.9 4.7-2.7 2.9-4.1 6.7-4 10.7-.1 1.6.4 3.1 1.5 4.3 1 .9 2.3 1.4 3.7 1.4 2.6.2 4.8-1.7 5-4.3v-.1c.3-1.3.6-2.4.7-2.9.2-.6.4-1.1.7-1.6.4-.6.8-1.3 1.3-1.8.7-.8 1.5-1.6 2.3-2.3 3.4-3.1 5.8-5.3 7.2-6.6 1.4-1.4 2.5-2.9 3.4-4.7 1-1.9 1.5-4.1 1.5-6.2 0-2.8-.9-5.8-2.6-8.3z"/><linearGradient id="c" gradientUnits="userSpaceOnUse" x1="91.063" y1="109.851" x2="103.798" y2="109.851"><stop offset="0" stop-color="#ec77ab"/><stop offset="1" stop-color="#7873f5"/></linearGradient><path fill="url(#c)" d="M103.8 109.9c0-3.4-2.7-6.2-6.1-6.2h-.1l-.1-.1c-1.7 0-3.3.6-4.6 1.8-1.2 1.2-1.9 2.8-1.9 4.4-.1 1.8.6 3.5 1.9 4.7 1.2 1.1 2.8 1.7 4.5 1.7 1.6 0 3.2-.6 4.4-1.7 1.4-1.2 2.1-2.9 2-4.6z"/><g><linearGradient id="d" gradientUnits="userSpaceOnUse" x1="208.738" y1="176.527" x2="223.17" y2="176.527"><stop offset="0" stop-color="#ec77ab"/><stop offset="1" stop-color="#7873f5"/></linearGradient><path fill="url(#d)" d="M223.1 163c.1-2.8-.3-5.6-1.4-8.2-1.1-1.9-3.1-2.9-5.2-2.8-2.1-.1-4.2.7-5.6 2.2-1.5 1.7-2.2 3.9-2.1 6.1 0 1.9.1 5.1.4 9.5l1.5 22.5c.1 2.3.6 4.5 1.4 6.6.6 1.4 2 2.2 3.5 2.1 1.6.1 3-.8 3.6-2.2.9-2 1.3-4.2 1.4-6.4l2.4-23.1c.2-2.1.2-4.2.1-6.3z"/></g><g><linearGradient id="e" gradientUnits="userSpaceOnUse" x1="208.966" y1="216.673" x2="223.266" y2="216.673"><stop offset="0" stop-color="#ec77ab"/><stop offset="1" stop-color="#7873f5"/></linearGradient><path fill="url(#e)" d="M221.2 211.6c-1.4-1.3-3.2-2.1-5.1-2-3.9 0-7.1 3.1-7.1 7v.1c-.1 2 .7 3.9 2.1 5.2 1.4 1.2 3.2 1.9 5.1 1.9 1.8 0 3.6-.7 4.9-1.9 1.5-1.3 2.2-3.3 2.1-5.2.1-2-.7-3.8-2-5.1z"/></g></svg>