<svg xmlns="http://www.w3.org/2000/svg" viewBox="0 0 300 300"><linearGradient id="a" gradientUnits="userSpaceOnUse" y1="150" x2="300" y2="150"><stop offset="0" stop-color="#ec77ab"/><stop offset="1" stop-color="#7873f5"/></linearGradient><path fill="url(#a)" d="M295.2 14.4H4.8c-2.6 0-4.8 2.1-4.8 4.8v261.7c0 2.6 2.1 4.8 4.8 4.8h290.4c2.6 0 4.8-2.1 4.8-4.8v-51.1c0-2.6-2.1-4.8-4.8-4.8s-4.8 2.1-4.8 4.8v46.3H9.6V62.2h280.9v148.4c0 2.6 2.1 4.8 4.8 4.8s4.8-2.1 4.8-4.8V19.1c-.1-2.6-2.2-4.7-4.9-4.7zM9.6 23.9h177.1v28.7H9.6V23.9zm186.7 28.8V23.9h94.1v28.7h-94.1z"/><linearGradient id="b" gradientUnits="userSpaceOnUse" x1="238.404" y1="38.298" x2="248.617" y2="38.298"><stop offset="0" stop-color="#ec77ab"/><stop offset="1" stop-color="#7873f5"/></linearGradient><path fill="url(#b)" d="M243.5 33.2c-2.8 0-5.1 2.3-5.1 5.1s2.3 5.1 5.1 5.1 5.1-2.3 5.1-5.1-2.3-5.1-5.1-5.1z"/><linearGradient id="c" gradientUnits="userSpaceOnUse" x1="212.234" y1="38.298" x2="222.447" y2="38.298"><stop offset="0" stop-color="#ec77ab"/><stop offset="1" stop-color="#7873f5"/></linearGradient><path fill="url(#c)" d="M217.3 33.2c-2.8 0-5.1 2.3-5.1 5.1s2.3 5.1 5.1 5.1 5.1-2.3 5.1-5.1-2.2-5.1-5.1-5.1z"/><linearGradient id="d" gradientUnits="userSpaceOnUse" x1="264.575" y1="38.298" x2="274.787" y2="38.298"><stop offset="0" stop-color="#ec77ab"/><stop offset="1" stop-color="#7873f5"/></linearGradient><path fill="url(#d)" d="M269.7 33.2c-2.8 0-5.1 2.3-5.1 5.1s2.3 5.1 5.1 5.1 5.1-2.3 5.1-5.1-2.3-5.1-5.1-5.1z"/><linearGradient id="e" gradientUnits="userSpaceOnUse" x1="52.146" y1="121.117" x2="110.131" y2="121.117"><stop offset="0" stop-color="#ec77ab"/><stop offset="1" stop-color="#7873f5"/></linearGradient><path fill="url(#e)" d="M94.9 144.2c1.9-.2 3.4-1.6 4-3.4l11-36.8c.8-2.5-.7-5.2-3.2-6-2.5-.8-5.2.7-6 3.2l-7.9 26.4-7.6-12.6c-.9-1.4-2.4-2.3-4.1-2.3-1.7 0-3.2.9-4.1 2.3l-7.6 12.7-7.9-26.4c-.8-2.5-3.4-4-6-3.2-2.5.8-4 3.4-3.2 6l11 36.8c.5 1.8 2.1 3.1 4 3.4h.6c1.7 0 3.2-.9 4.1-2.3l9.1-15.2 9.1 15.2c1 1.6 2.8 2.5 4.7 2.2z"/><linearGradient id="f" gradientUnits="userSpaceOnUse" x1="116.512" y1="121.112" x2="174.495" y2="121.112"><stop offset="0" stop-color="#ec77ab"/><stop offset="1" stop-color="#7873f5"/></linearGradient><path fill="url(#f)" d="M131.7 144.2h.6c1.7 0 3.2-.9 4.1-2.3l9.1-15.2 9.1 15.2c1 1.6 2.8 2.5 4.7 2.3 1.9-.2 3.4-1.6 4-3.4l11-36.8c.8-2.5-.7-5.2-3.2-6-2.5-.8-5.2.7-6 3.2l-7.9 26.4-7.6-12.7c-.9-1.4-2.4-2.3-4.1-2.3-1.7 0-3.2.9-4.1 2.3l-7.6 12.7-7.9-26.4c-.8-2.5-3.4-4-6-3.2-2.5.8-4 3.4-3.2 6l11 36.8c.6 1.9 2.1 3.2 4 3.4z"/><linearGradient id="g" gradientUnits="userSpaceOnUse" x1="180.875" y1="121.108" x2="238.859" y2="121.108"><stop offset="0" stop-color="#ec77ab"/><stop offset="1" stop-color="#7873f5"/></linearGradient><path fill="url(#g)" d="M235.4 98.1c-2.5-.8-5.2.7-6 3.2l-7.9 26.4L214 115c-.9-1.4-2.4-2.3-4.1-2.3-1.7 0-3.2.9-4.1 2.3l-7.6 12.7-7.9-26.4c-.8-2.5-3.4-4-6-3.2-2.5.8-4 3.4-3.2 6l11 36.8c.5 1.8 2.1 3.1 4 3.4 1.9.2 3.7-.7 4.7-2.3l9.1-15.2L219 142c.9 1.5 2.4 2.3 4.1 2.3h.6c1.9-.2 3.4-1.6 4-3.4l11-36.8c.7-2.5-.7-5.2-3.3-6z"/><linearGradient id="h" gradientUnits="userSpaceOnUse" x1="52.149" y1="184.179" x2="87.255" y2="184.179"><stop offset="0" stop-color="#ec77ab"/><stop offset="1" stop-color="#7873f5"/></linearGradient><path fill="url(#h)" d="M87.3 171.4c0-2.6-2.1-4.8-4.8-4.8H56.9c-2.6 0-4.8 2.1-4.8 4.8v25.5c0 2.6 2.1 4.8 4.8 4.8h25.5c2.6 0 4.8-2.1 4.8-4.8v-25.5zm-9.6 20.8h-16v-16h16v16z"/><linearGradient id="i" gradientUnits="userSpaceOnUse" x1="52.149" y1="228.86" x2="87.255" y2="228.86"><stop offset="0" stop-color="#ec77ab"/><stop offset="1" stop-color="#7873f5"/></linearGradient><path fill="url(#i)" d="M82.5 211.3H56.9c-2.6 0-4.8 2.1-4.8 4.8v25.5c0 2.6 2.1 4.8 4.8 4.8h25.5c2.6 0 4.8-2.1 4.8-4.8v-25.5c.1-2.7-2.1-4.8-4.7-4.8zm-4.8 25.5h-16v-16h16v16z"/><linearGradient id="j" gradientUnits="userSpaceOnUse" x1="210.135" y1="184.179" x2="238.859" y2="184.179"><stop offset="0" stop-color="#ec77ab"/><stop offset="1" stop-color="#7873f5"/></linearGradient><path fill="url(#j)" d="M234.1 179.4H215c-2.6 0-4.8 2.1-4.8 4.8s2.1 4.8 4.8 4.8h19.1c2.6 0 4.8-2.1 4.8-4.8s-2.2-4.8-4.8-4.8z"/><linearGradient id="k" gradientUnits="userSpaceOnUse" x1="96.83" y1="184.179" x2="200.561" y2="184.179"><stop offset="0" stop-color="#ec77ab"/><stop offset="1" stop-color="#7873f5"/></linearGradient><path fill="url(#k)" d="M195.8 179.4h-94.2c-2.6 0-4.8 2.1-4.8 4.8s2.1 4.8 4.8 4.8h94.2c2.6 0 4.8-2.1 4.8-4.8s-2.2-4.8-4.8-4.8z"/><linearGradient id="l" gradientUnits="userSpaceOnUse" x1="210.135" y1="228.86" x2="238.859" y2="228.86"><stop offset="0" stop-color="#ec77ab"/><stop offset="1" stop-color="#7873f5"/></linearGradient><path fill="url(#l)" d="M234.1 224.1H215c-2.6 0-4.8 2.1-4.8 4.8 0 2.6 2.1 4.8 4.8 4.8h19.1c2.6 0 4.8-2.1 4.8-4.8 0-2.7-2.2-4.8-4.8-4.8z"/><linearGradient id="m" gradientUnits="userSpaceOnUse" x1="96.83" y1="228.86" x2="200.561" y2="228.86"><stop offset="0" stop-color="#ec77ab"/><stop offset="1" stop-color="#7873f5"/></linearGradient><path fill="url(#m)" d="M195.8 224.1h-94.2c-2.6 0-4.8 2.1-4.8 4.8 0 2.6 2.1 4.8 4.8 4.8h94.2c2.6 0 4.8-2.1 4.8-4.8 0-2.7-2.2-4.8-4.8-4.8z"/></svg>