<?xml version="1.0" encoding="utf-8"?>
<!-- Generator: Adobe Illustrator 17.1.0, SVG Export Plug-In . SVG Version: 6.00 Build 0)  -->
<!DOCTYPE svg PUBLIC "-//W3C//DTD SVG 1.1//EN" "http://www.w3.org/Graphics/SVG/1.1/DTD/svg11.dtd">
<svg version="1.1" id="Слой_1" xmlns="http://www.w3.org/2000/svg" xmlns:xlink="http://www.w3.org/1999/xlink" x="0px" y="0px"
	 viewBox="0 0 512 512" enable-background="new 0 0 512 512" xml:space="preserve">
<linearGradient id="SVGID_1_" gradientUnits="userSpaceOnUse" x1="0" y1="256" x2="512.0009" y2="256">
	<stop  offset="0" style="stop-color:#EC77AB"/>
	<stop  offset="1" style="stop-color:#7873F5"/>
</linearGradient>
<path fill="url(#SVGID_1_)" d="M367.6,249.4H65.6c-21.7,0-39.4,17.7-39.4,39.4v183.8c0,21.7,17.7,39.4,39.4,39.4h301.9
	c21.7,0,39.4-17.7,39.4-39.4V288.8C407,267.1,389.3,249.4,367.6,249.4L367.6,249.4z M380.7,472.6c0,7.2-5.9,13.1-13.1,13.1H65.6
	c-7.2,0-13.1-5.9-13.1-13.1V288.8c0-7.2,5.9-13.1,13.1-13.1h301.9c7.2,0,13.1,5.9,13.1,13.1L380.7,472.6L380.7,472.6z M505.4,264.3
	c-4.1-2.4-9.1-2.4-13.1,0l-65.6,37.9l13.1,22.7l45.9-26.5v164.7l-45.9-26.5l-13.1,22.7l65.6,37.8c2,1.2,4.3,1.8,6.6,1.8
	s4.5-0.6,6.6-1.8c4.1-2.3,6.6-6.7,6.6-11.4V275.7C512,271,509.5,266.7,505.4,264.3L505.4,264.3z M341.3,0
	c-65.1,0-118.2,53-118.2,118.2s53,118.2,118.2,118.2s118.2-53,118.2-118.2S406.5,0,341.3,0z M341.3,210.1
	c-50.7,0-91.9-41.2-91.9-91.9c0-50.7,41.2-91.9,91.9-91.9s91.9,41.2,91.9,91.9C433.2,168.8,392,210.1,341.3,210.1z M91.9,236.3
	c50.7,0,91.9-41.2,91.9-91.9s-41.2-91.9-91.9-91.9S0,93.7,0,144.4S41.2,236.3,91.9,236.3z M91.9,78.8c36.2,0,65.6,29.4,65.6,65.6
	s-29.4,65.6-65.6,65.6s-65.6-29.4-65.6-65.6S55.7,78.8,91.9,78.8z M341.3,91.9c-14.5,0-26.3,11.8-26.3,26.3
	c0,14.5,11.8,26.3,26.3,26.3s26.3-11.8,26.3-26.3C367.6,103.7,355.8,91.9,341.3,91.9z M91.9,157.5c7.2,0,13.1-5.9,13.1-13.1
	s-5.9-13.1-13.1-13.1s-13.1,5.9-13.1,13.1S84.7,157.5,91.9,157.5z"/>
</svg>
