<?xml version="1.0" encoding="utf-8"?>
<!-- Generator: Adobe Illustrator 17.1.0, SVG Export Plug-In . SVG Version: 6.00 Build 0)  -->
<!DOCTYPE svg PUBLIC "-//W3C//DTD SVG 1.1//EN" "http://www.w3.org/Graphics/SVG/1.1/DTD/svg11.dtd">
<svg version="1.1" id="Слой_1" xmlns="http://www.w3.org/2000/svg" xmlns:xlink="http://www.w3.org/1999/xlink" x="0px" y="0px"
	 viewBox="0 0 512 512" enable-background="new 0 0 512 512" xml:space="preserve">
<g>
	<linearGradient id="SVGID_1_" gradientUnits="userSpaceOnUse" x1="0" y1="256" x2="512" y2="256">
		<stop  offset="0" style="stop-color:#EC77AB"/>
		<stop  offset="1" style="stop-color:#7873F5"/>
	</linearGradient>
	<path fill="url(#SVGID_1_)" d="M256,103.6c27.5,0,49.8-22.3,49.8-49.8S283.5,3.9,256,3.9s-49.8,22.3-49.8,49.8
		S228.5,103.6,256,103.6z M256,28.8c13.7,0,24.9,11.2,24.9,24.9S269.7,78.7,256,78.7c-13.7,0-24.9-11.2-24.9-24.9
		S242.3,28.8,256,28.8z M181.3,215.7c6.9,0,12.5-5.6,12.5-12.5c0-34.3,27.9-62.3,62.3-62.3s62.3,27.9,62.3,62.3
		c0,6.9,5.6,12.5,12.5,12.5c6.9,0,12.5-5.6,12.5-12.5c0-48.1-39.1-87.2-87.2-87.2s-87.2,39.1-87.2,87.2
		C168.8,210.1,174.4,215.7,181.3,215.7z M87.2,396c27.5,0,49.8-22.3,49.8-49.8s-22.3-49.8-49.8-49.8s-49.8,22.3-49.8,49.8
		S59.7,396,87.2,396z M87.2,321.2c13.7,0,24.9,11.2,24.9,24.9s-11.2,24.9-24.9,24.9s-24.9-11.2-24.9-24.9S73.4,321.2,87.2,321.2z
		 M87.2,408.4C39.1,408.4,0,447.5,0,495.6c0,6.9,5.6,12.5,12.5,12.5s12.5-5.6,12.5-12.5c0-34.3,27.9-62.3,62.3-62.3
		s62.3,27.9,62.3,62.3c0,6.9,5.6,12.5,12.5,12.5c6.9,0,12.5-5.6,12.5-12.5C174.4,447.5,135.3,408.4,87.2,408.4z M424.8,396
		c27.5,0,49.8-22.3,49.8-49.8s-22.3-49.8-49.8-49.8S375,318.7,375,346.2S397.4,396,424.8,396z M424.8,321.2
		c13.7,0,24.9,11.2,24.9,24.9s-11.2,24.9-24.9,24.9s-24.9-11.2-24.9-24.9S411.1,321.2,424.8,321.2z M424.8,408.4
		c-48.1,0-87.2,39.1-87.2,87.2c0,6.9,5.6,12.5,12.5,12.5s12.5-5.6,12.5-12.5c0-34.3,27.9-62.3,62.3-62.3s62.3,27.9,62.3,62.3
		c0,6.9,5.6,12.5,12.5,12.5s12.5-5.6,12.5-12.5C512,447.5,472.9,408.4,424.8,408.4z M333.4,342.4l-65-37.5v-75
		c0-6.9-5.6-12.5-12.5-12.5s-12.5,5.6-12.5,12.5v75l-65,37.5c-6,3.4-8,11.1-4.6,17c3.4,6,11.1,8,17,4.6l65-37.5l65,37.5
		c6,3.4,13.6,1.4,17-4.6c0,0,0,0,0,0C341.4,353.4,339.4,345.8,333.4,342.4z"/>
</g>
</svg>
