<?xml version="1.0" encoding="utf-8"?>
<!-- Generator: Adobe Illustrator 17.1.0, SVG Export Plug-In . SVG Version: 6.00 Build 0)  -->
<!DOCTYPE svg PUBLIC "-//W3C//DTD SVG 1.1//EN" "http://www.w3.org/Graphics/SVG/1.1/DTD/svg11.dtd">
<svg version="1.1" id="Слой_1" xmlns="http://www.w3.org/2000/svg" xmlns:xlink="http://www.w3.org/1999/xlink" x="0px" y="0px"
	 viewBox="0 0 512 512" enable-background="new 0 0 512 512" xml:space="preserve">
<g>
	<linearGradient id="SVGID_1_" gradientUnits="userSpaceOnUse" x1="0" y1="256" x2="511.9991" y2="256">
		<stop  offset="0" style="stop-color:#EC77AB"/>
		<stop  offset="1" style="stop-color:#7873F5"/>
	</linearGradient>
	<path fill="url(#SVGID_1_)" d="M156.8,300.6h301.8L512,110h-78.6l-28.2-87.1L287.6,61l16.1,49h-5.5l-29-87.1L151.4,61l16.1,49
		h-62.9L91.5,57.7c-6.6-26.1-29.4-44.6-55.6-44.6H0V35h35.9c16.3,0,30.5,10.9,34.9,27.3l57.8,226.1c-11.9,8.6-19.7,22.6-19.7,38.6
		c0,26.1,21.8,48,48,48H451V353H156.8c-14.2,0-26.1-12-26.1-26.1C130.7,312.6,142.7,300.6,156.8,300.6z M391.1,50l19.6,58.8h-84.9
		l-12-33.7L391.1,50L391.1,50z M255,50l19.6,58.8h-84.9l-12-33.7C177.6,75.1,255,50,255,50z M483.7,130.7l-41.4,148.2H148.2
		L110,130.7L483.7,130.7z M355.2,407.4c-25.1,0-45.8,20.7-45.8,45.8c0,25.1,20.7,45.8,45.8,45.8c26.1,0,45.8-20.7,45.8-45.8
		C400.9,428,380.2,407.4,355.2,407.4L355.2,407.4z M355.2,478.2c-14.2,0-25.1-12-25.1-25.1c0-14.2,12-25.1,25.1-25.1
		c14.2,0,25.1,10.9,25.1,25.1C380.2,467.3,368.2,478.2,355.2,478.2z M187.4,407.4c-25.1,0-45.8,20.7-45.8,45.8
		c0,25.1,20.7,45.8,45.8,45.8s45.8-20.7,45.8-45.8C233.1,428,212.4,407.4,187.4,407.4L187.4,407.4z M187.4,478.2
		c-14.2,0-25.1-12-25.1-25.1c0-14.2,12-25.1,25.1-25.1s25.1,10.9,25.1,25.1C212.4,467.3,200.4,478.2,187.4,478.2z"/>
</g>
</svg>
