<?xml version="1.0" encoding="utf-8"?><svg xmlns="http://www.w3.org/2000/svg" xmlns:xlink="http://www.w3.org/1999/xlink"><symbol viewBox="0 0 912.113 912.113" id="dog" xmlns="http://www.w3.org/2000/svg"><path d="M122.306 657.73c4.3 0 10.9-3.5 21.9-10.301 25.4-15.5 45.5-46.8 59.9-88 19.9-57 28.8-133 25.9-213.1-2.9-78.5 29.1-154.5 72.2-219 13.899-20.8 43.6-45.601 14.7-45.601-68.8 0-407.4 174-293.8 343.7 108.601 162.302 80.101 232.302 99.2 232.302zm487.601-530.3c43 64.5 75 140.601 72.199 219-2.899 80 6 156.101 25.9 213.101 14.4 41.2 34.5 72.5 59.9 88 11.1 6.8 17.699 10.3 21.899 10.3 19 0-9.399-70.1 99.2-232.3 113.6-169.7-225-343.7-293.8-343.7-28.998-.001.802 24.799 14.702 45.599z"/><path d="M223.606 603.93c5.4 11.2 11.1 22.4 17 33.5 67.3 126.101 58.9 143 58.9 174.9 0 29.2 66.8 49.9 136.4-5.5v-57c-26-11.1-57.4-39.7-57.4-65.3 0-32.601 34.4-37.5 76.9-37.5h1.2c42.5 0 76.901 4.899 76.901 37.5 0 25.6-31.4 54.2-57.4 65.3v57c70 55.4 136.4 34.7 136.4 5.5 0-32-8.4-48.8 58.9-174.9 5.899-11.1 11.6-22.3 17-33.5-8.5-17.6-15.801-37.699-21.801-59.899-15.399-56.8-22.199-125.601-19.5-198.801 1-27.699-2.8-56.6-11.399-86-7-24-17.101-48.199-30.101-72.1-21.8-40.2-47.699-69.8-47.699-69.8-8.2-12.101-10.2-22.9-9.7-31.601-50.8-17.1-92.201-15.1-92.201-15.1-.2 0-41.4-2-92.2 15.1.601 8.7-1.5 19.5-9.7 31.601 0 0-25.899 29.6-47.699 69.8-13 23.9-23.101 48.2-30.101 72.1-8.6 29.301-12.399 58.301-11.399 86 2.699 73.301-4.101 142.001-19.5 198.801-6.001 22.199-13.301 42.199-21.801 59.899zm342.301-267.6c26 0 47.1 21.1 47.1 47.1s-21.1 47.101-47.1 47.101-47.101-21.101-47.101-47.101 21.101-47.1 47.101-47.1zm-219.801 0c26 0 47.101 21.1 47.101 47.1s-21.101 47.101-47.101 47.101-47.1-21.101-47.1-47.101 21.1-47.1 47.1-47.1z"/></symbol><symbol viewBox="0 0 49.652 49.652" id="facebook" xmlns="http://www.w3.org/2000/svg"><path d="M24.826 0C11.137 0 0 11.137 0 24.826c0 13.688 11.137 24.826 24.826 24.826 13.688 0 24.826-11.138 24.826-24.826C49.652 11.137 38.516 0 24.826 0zM31 25.7h-4.039v14.396h-5.985V25.7h-2.845v-5.088h2.845v-3.291c0-2.357 1.12-6.04 6.04-6.04l4.435.017v4.939h-3.219c-.524 0-1.269.262-1.269 1.386v2.99h4.56L31 25.7z"/></symbol><symbol viewBox="0 0 49.652 49.652" id="google-plus" xmlns="http://www.w3.org/2000/svg"><path d="M21.5 28.94c-.161-.107-.326-.223-.499-.34a5.66 5.66 0 0 0-1.584-.241h-.066c-2.514 0-4.718 1.521-4.718 3.257 0 1.89 1.889 3.367 4.299 3.367 3.179 0 4.79-1.098 4.79-3.258 0-.204-.024-.416-.075-.629-.215-.838-.984-1.361-2.147-2.156zm-1.781-6.588h.002c.601 0 1.108-.237 1.501-.687.616-.702.889-1.854.727-3.077-.285-2.186-1.848-4.006-3.479-4.053l-.065-.002c-.577 0-1.092.238-1.483.686-.607.693-.864 1.791-.705 3.012.286 2.184 1.882 4.071 3.479 4.121h.023z"/><path d="M24.826 0C11.137 0 0 11.137 0 24.826c0 13.688 11.137 24.826 24.826 24.826 13.688 0 24.826-11.138 24.826-24.826C49.652 11.137 38.516 0 24.826 0zm-2.862 36.915c-.938.271-1.953.408-3.018.408-1.186 0-2.326-.136-3.389-.405-2.057-.519-3.577-1.503-4.287-2.771a3.526 3.526 0 0 1-.461-1.737c0-.623.149-1.255.443-1.881 1.127-2.402 4.098-4.018 7.389-4.018h.094a2.932 2.932 0 0 1-.396-1.472c0-.255.034-.515.102-.78-3.452-.078-6.035-2.606-6.035-5.939 0-2.353 1.881-4.646 4.571-5.572a7.458 7.458 0 0 1 2.433-.42h7.382c.251 0 .474.163.552.402a.578.578 0 0 1-.211.647l-1.651 1.195a.59.59 0 0 1-.341.108h-.591c.763.915 1.21 2.22 1.21 3.685 0 1.617-.818 3.146-2.307 4.311-1.15.896-1.195 1.143-1.195 1.654.014.281.815 1.198 1.699 1.823 2.059 1.456 2.825 2.885 2.825 5.269-.001 2.491-1.892 4.643-4.818 5.493zm16.671-12.662c0 .32-.261.58-.58.58H33.86v4.197a.58.58 0 0 1-.578.58h-1.195a.58.58 0 0 1-.582-.58v-4.197h-4.192a.58.58 0 0 1-.58-.58V23.06c0-.32.26-.582.58-.582h4.192v-4.193c0-.321.26-.58.582-.58h1.195a.58.58 0 0 1 .578.58v4.193h4.194c.319 0 .58.26.58.58v1.195z"/></symbol><symbol viewBox="0 0 551.062 551.062" id="paw" xmlns="http://www.w3.org/2000/svg"><path d="M465.19 453.459c14.749 67.688-58.752 82.375-91.127 73.562s-98.41-10.281-98.41-10.281-66.218 1.469-98.593 10.281c-32.375 8.874-105.937-5.875-91.249-73.562s79.438-64.75 97.186-155.999c17.687-91.249 92.718-85.374 92.718-85.374s74.847-5.875 92.535 85.374c17.625 91.249 82.252 88.311 96.94 155.999zM343.586 206.15c39.841 11.505 83.844-19.951 98.349-70.258 14.504-50.245-5.998-100.307-45.839-111.812-39.842-11.506-83.844 19.951-98.349 70.258-14.504 50.245 5.998 100.307 45.839 111.812zm165.117-18.298c-38.372-15.668-85.496 10.894-105.264 59.363-19.768 48.471-4.712 100.43 33.66 116.035 38.372 15.606 85.496-10.894 105.264-59.364s4.713-100.367-33.66-116.034zM207.416 206.15c39.841-11.506 60.343-61.567 45.839-111.812s-58.568-81.702-98.349-70.196c-39.78 11.505-60.343 61.566-45.839 111.812 14.505 50.245 58.508 81.701 98.349 70.196zm-93.453 157.1c38.373-15.667 53.428-67.626 33.66-116.035s-66.892-75.031-105.264-59.363C3.987 203.519-11.068 255.478 8.7 303.886c19.767 48.47 66.891 75.031 105.263 59.364z"/></symbol><symbol viewBox="0 0 49.652 49.652" id="twitter-logo" xmlns="http://www.w3.org/2000/svg"><path d="M24.826 0C11.137 0 0 11.137 0 24.826c0 13.688 11.137 24.826 24.826 24.826 13.688 0 24.826-11.138 24.826-24.826C49.652 11.137 38.516 0 24.826 0zm11.075 19.144c.011.246.017.494.017.742 0 7.551-5.746 16.255-16.259 16.255-3.227 0-6.231-.943-8.759-2.565.447.053.902.08 1.363.08 2.678 0 5.141-.914 7.097-2.446a5.72 5.72 0 0 1-5.338-3.969 5.76 5.76 0 0 0 2.58-.096 5.715 5.715 0 0 1-4.583-5.603l.001-.072a5.69 5.69 0 0 0 2.587.714 5.71 5.71 0 0 1-2.541-4.755c0-1.048.281-2.03.773-2.874a16.225 16.225 0 0 0 11.777 5.972 5.707 5.707 0 0 1-.147-1.303 5.714 5.714 0 0 1 9.884-3.91 11.406 11.406 0 0 0 3.63-1.387 5.74 5.74 0 0 1-2.516 3.162 11.36 11.36 0 0 0 3.282-.899 11.494 11.494 0 0 1-2.848 2.954z"/></symbol></svg>