<svg xmlns="http://www.w3.org/2000/svg" viewBox="0 0 311 297">
  <path fill="none" stroke="#489098" stroke-width="6" stroke-linecap="round" stroke-linejoin="round" stroke-miterlimit="22.926" d="M117.4 19.2c51.5 0 93.2 41.7 93.2 93.2s-41.7 93.2-93.2 93.2-93.2-41.7-93.2-93.2c-.1-51.5 41.7-93.2 93.2-93.2zm0 0v186.4m-93.2-93.2h186.4"/>
  <path fill="none" stroke="#489098" stroke-width="6" stroke-linecap="round" stroke-linejoin="round" stroke-miterlimit="22.926" d="M183.3 47.5c-14.2 12.9-38.5 21.3-65.9 21.3-27.4 0-51.6-8.4-65.8-21.2m131.7 129.7c-14.3-12.8-38.5-21.3-66-21.3-27.4 0-51.6 8.4-65.8 21.2"/>
  <path fill="none" stroke="#489098" stroke-width="6" stroke-linecap="round" stroke-linejoin="round" stroke-miterlimit="22.926" d="M116.5 204.6c-28.1-19.9-46.6-53.7-46.6-92s18.4-72 46.5-91.9m3.2 183.9c28.1-19.9 46.6-53.7 46.6-92s-18.4-72-46.5-91.9m75.9 206.7c10.3 6.1 27.7-1.3 39.9-17.2 12.2-15.9 14.8-34.7 6.2-43"/>
  <path fill="none" stroke="#489098" stroke-width="6" stroke-linecap="round" stroke-linejoin="round" stroke-miterlimit="22.926" d="M269.6 130.9c.7.1 2.6 1.4 9.8 7.3 13.3 10.9 3.4 48.2-25.6 86.1-29 37.9-62.4 57.5-76.4 47.1-7.2-5.3-9.2-7-9.5-7.6m-3-5.3c-1.5 2-4.4 2.4-6.4.9l-12.2-9.3c-2-1.5-2.4-4.4-.9-6.4l26.8-35c1.5-2 4.4-2.4 6.4-.9l12.2 9.3c2 1.5 2.4 4.4.9 6.4l-26.8 35zm72.1-94.1c-1.5 2-4.4 2.4-6.4.9l-12.2-9.3c-2-1.5-2.4-4.4-.9-6.4l26.8-35c1.5-2 4.4-2.4 6.4-.9l12.2 9.3c2 1.5 2.4 4.4.9 6.4l-26.8 35z"/>
  <path fill="#489098" stroke="#489098" stroke-width="6" stroke-linecap="round" stroke-linejoin="round" stroke-miterlimit="22.926" d="M223.3 159.7l33.7-41.3-9.6-5.7-29.9 36.8zM150 252.9l34.4-40.8-9.5-5.2-30.3 38.2z"/>
</svg>
