<?xml version="1.0" encoding="utf-8"?>
<!-- Generator: Adobe Illustrator 17.1.0, SVG Export Plug-In . SVG Version: 6.00 Build 0)  -->
<!DOCTYPE svg PUBLIC "-//W3C//DTD SVG 1.1//EN" "http://www.w3.org/Graphics/SVG/1.1/DTD/svg11.dtd">
<svg version="1.1" id="Слой_1" xmlns="http://www.w3.org/2000/svg" xmlns:xlink="http://www.w3.org/1999/xlink" x="0px" y="0px"
	 viewBox="0 0 242 150" enable-background="new 0 0 242 150" xml:space="preserve">
<path fill="none" stroke="#49919B" stroke-width="4" stroke-miterlimit="10" d="M159.3,143.7H57c-27.2,0-49.3-19.2-49.3-42.9
	S29.8,57.9,57,57.9c6.1,0,11.9,1,17.3,2.7 M74.3,60.6C72.4,37,86.2,14.9,108.5,8.4c25.8-7.5,53.1,8.7,61.1,36.2
	c2.1,7.3,2.7,14.7,1.8,21.7 M171.4,66.3c4-0.8,8.3-1.3,12.6-1.3c27.3,0,49.3,17.6,49.3,39.3c0,21.7-22.1,39.3-49.3,39.3"/>
</svg>
