<?xml version="1.0" encoding="utf-8"?>
<!-- Generator: Adobe Illustrator 17.1.0, SVG Export Plug-In . SVG Version: 6.00 Build 0)  -->
<!DOCTYPE svg PUBLIC "-//W3C//DTD SVG 1.1//EN" "http://www.w3.org/Graphics/SVG/1.1/DTD/svg11.dtd">
<svg version="1.1" id="Слой_1" xmlns="http://www.w3.org/2000/svg" xmlns:xlink="http://www.w3.org/1999/xlink" x="0px" y="0px"
	 viewBox="0 0 656.7 151.3" enable-background="new 0 0 656.7 151.3" xml:space="preserve">
<image display="none" overflow="visible" width="1600" height="464" xlink:href="8BEE1383.jpg"  transform="matrix(0.4267 0 0 0.4267 -6.4253 -37)">
</image>
<path fill="none" stroke="#1D1D1B" stroke-width="2" stroke-miterlimit="10" d="M110.5,125.3l82.3,1.9l92.5,1.8l111.8,1.4
	c0,0,0,0.8,0.3,0.8c0.3-0.1,72.8-0.1,72.8-0.1V130c-8.6-9.8-35-11.3-40.6-11.6c-5.6-0.3-4-3-4-3s5.9-8.8,8-12.1
	c2.1-3.3,3.7-3.1,3.7-3.1l37-4.8l4.6,0.7c-0.2,1.9-0.2,3.7,0,5.5"/>
<path fill="none" stroke="#1D1D1B" stroke-miterlimit="10" d="M295.3,36"/>
<circle fill="none" stroke="#1D1D1B" stroke-width="2" stroke-miterlimit="10" cx="74.4" cy="101.6" r="43.2"/>
<circle fill="none" stroke="#1D1D1B" stroke-width="2" stroke-miterlimit="10" cx="521.5" cy="104.8" r="42.6"/>
<circle fill="none" stroke="#1D1D1B" stroke-width="2" stroke-miterlimit="10" cx="74.4" cy="101.6" r="33.7"/>
<circle fill="none" stroke="#1D1D1B" stroke-width="2" stroke-miterlimit="10" cx="521.5" cy="104.6" r="33.7"/>
<rect x="165.3" y="71" fill="none" width="248" height="55.7"/>
<text transform="matrix(1 0 0 1 165.3335 99.9146)" font-family="'Roboto-Regular'" font-size="38">HIGHT TECH</text>
<line fill="#FFFFFF" stroke="#000000" stroke-width="2" stroke-miterlimit="10" x1="110.5" y1="125.3" x2="429.7" y2="118.4"/>
<path fill="none" stroke="#000000" stroke-width="2" stroke-miterlimit="10" d="M302.3,34.8c0,0,1.4-11.8,18.7-15.8
	s25.3,12.7,25.3,12.7L329.5,36v4.3H349c0,0-0.7,8-2.7,9.3c-2,1.3-2.8,3.3-2.8,3.3h-6.1 M349,40.3l-2.7-8.7L329.5,36v4.3H349z"/>
<path fill="none" stroke="#1D1D1B" stroke-width="2" stroke-miterlimit="10" d="M30.1,119.2c-1.4-2.3-2-3.7-2-3.7S24.7,105,24.4,100
	L19.9,97l-0.2-1.2l-2.3,0.7l-1.6-1.9L5.2,87.2v-0.4v-78l22.2,5.5c0,0,6.8,2.2,8.8,0c0,0,2.2-0.8,1-8.3l49.7-0.7v3l17.5,0.2
	l-0.8,23.8c0,0,0.5,12-15.3,18.8c0,0-7.3,2.8-8.3,5.3c0,0,5.3,1.3,6,1.7c0.7,0.3,3-3.7,12.3-4.3c0,0,1.3,0.5,6.2-2L185.9,19
	c0,0,24.5-8.2,36.3-9h46.5V8.3c0,0,16.7-3.7,20.2-0.7v3.5h2.5c0,0,2.2-1,2,4.3c-0.2,5.3,0,13.5,0,13.5s0.3,2-2.9,2.7l-0.4,3.7
	c0,0,9.2-1.3,12.2-0.5c3,0.8,1.6,10.3,1.6,10.3l21.5,0.4c0,0,3.7,0.3,7.5,5c3.8,4.7,17.3,2.9,17.3,2.9l17.3,0.9l4.8-5.2l-5.4-0.6
	l-0.2-6.3l15.6-1c0,0,3.6-0.2,5.2,3.4c1.6,3.6-4,5.3-4,5.3l-2.7,4.8c0,0,7.9-0.1,12.5-2l17.3,0.3l3.8-4.6l3,0.1l2.6,4.3l63.7,1.7
	c0,0,6.8-2.7,16.6,0.4l12.8,0.7c0,0,0,0,0,0l18.6,1c0,0,0,0,0,0l15.4,0.8c0,0,72.8,9.3,80.3,12.8s6.6,3.3,6.6,3.3s4.2,2-4.4,3.3
	c-8.6,1.3-14.8,2.3-14.8,2.3s-0.6,1.8,3.9,10.2s4.2,14.1,4.2,14.1s20.9,1.1,21,0.8c0.1-0.3,4.3-0.5,8.5,2.8v19.6c0,0,1-0.1,1.4,0.8
	c0.4,0.9,0,3.2,0,3.2l-70.8-0.7l-1.1-0.3l0.8-11.7l-7.8,0.4l-0.2-1.5l-11.7-0.2 M624.3,103.5l-42,1.2c0,0,0.3,11.4,0,13.3"/>
</svg>
