<?xml version="1.0" encoding="utf-8"?>
<!-- Generator: Adobe Illustrator 17.1.0, SVG Export Plug-In . SVG Version: 6.00 Build 0)  -->
<!DOCTYPE svg PUBLIC "-//W3C//DTD SVG 1.1//EN" "http://www.w3.org/Graphics/SVG/1.1/DTD/svg11.dtd">
<svg version="1.1" id="Слой_1" xmlns="http://www.w3.org/2000/svg" xmlns:xlink="http://www.w3.org/1999/xlink" x="0px" y="0px"
	 viewBox="0 0 256 256" enable-background="new 0 0 256 256" xml:space="preserve">
<polygon fill="#008897" points="59.3,182.6 252.7,182.6 252.7,192.8 249.8,192.8 249.8,185.5 59.3,185.5 "/>
<path fill="#008897" d="M126.4,151.4V168c0,2.4-1,4.5-2.5,6.1c-1.6,1.6-3.7,2.5-6.1,2.5h-12.4c-2.4,0-4.5-1-6.1-2.5
	c-1.6-1.6-2.5-3.7-2.5-6.1v-16.6h2.9V168c0,1.6,0.7,3,1.6,4c1.1,1.1,2.4,1.6,4,1.6h12.4c1.6,0,3-0.7,4-1.6c1.1-1.1,1.6-2.4,1.6-4
	v-16.6H126.4z"/>
<path fill="#008897" d="M89.4,184.1v-32.5l0,0c0-2.4,1-4.5,2.5-6.1c1.6-1.6,3.7-2.5,6.1-2.5h27.4c2.4,0,4.5,1,6.1,2.5
	c1.5,1.5,2.5,3.7,2.5,6.1v32.5h-2.8v-32.5c0-1.6-0.7-3-1.6-4c-1.1-1.1-2.4-1.6-4-1.6H98c-1.6,0-3,0.7-4,1.6c-1.1,1.1-1.6,2.4-1.6,4
	l0,0v32.5H89.4L89.4,184.1z"/>
<path fill="#008897" d="M30.8,100.2l3.5,42.1h4.1l-3.5-42.1L30.8,100.2L30.8,100.2z M31.5,143.8l-3.9-46.5h9.9l3.9,47.8h-9.9
	L31.5,143.8z"/>
<rect x="44.4" y="132.6" fill="#008897" width="10.5" height="2.9"/>
<path fill="#008897" d="M53.6,127.1h-8.1v15.1h8.1V127.1L53.6,127.1z M44.2,124.3h12.4v20.8H42.7v-20.8H44.2z"/>
<path fill="#008897" d="M31.5,109.3l3,35.8h-9.2L22.2,108h9.2L31.5,109.3L31.5,109.3z M31.4,142.3l-2.6-31.4h-3.5l2.6,31.4H31.4z"/>
<rect x="21.1" y="151.4" fill="#008897" width="42.3" height="2.9"/>
<polygon fill="#008897" points="25.1,192.8 18.2,142.3 66.3,142.3 59.4,192.8 56.5,192.8 63,145.2 21.5,145.2 28,192.8 "/>
<polygon fill="none" stroke="#999B9B" stroke-width="5" stroke-miterlimit="10" points="92.3,84.2 87.3,98 72.5,97.9 68.2,83.2 
	80.2,74.8 "/>
<polygon fill="none" stroke="#E29026" stroke-width="5" stroke-miterlimit="10" points="100.1,107.7 88.8,98.3 93.8,84.3 
	109.2,85.3 112.9,99.5 "/>
<polygon fill="none" stroke="#E29026" stroke-width="5" stroke-miterlimit="10" points="67.1,113.3 72.2,99.4 87,99.5 91.3,114.2 
	79.2,122.6 "/>
<rect x="112.5" y="78.2" fill="none" width="55.1" height="24.2"/>
<g enable-background="new    ">
	<path fill="#525250" d="M124.9,79.3h2.2l-6.3,17.5h-2l-6.3-17.5h2.1l4,11.3c0.5,1.3,0.8,2.6,1.1,3.8c0.3-1.3,0.7-2.6,1.1-3.9
		L124.9,79.3z"/>
</g>
<g enable-background="new    ">
	<path fill="#525250" d="M143.6,88c0,2.8-0.7,5-2,6.6c-1.3,1.6-3.2,2.4-5.5,2.4c-2.4,0-4.3-0.8-5.6-2.4c-1.3-1.6-2-3.8-2-6.7
		c0-2.8,0.7-5,2-6.6c1.3-1.6,3.2-2.3,5.6-2.3c2.4,0,4.2,0.8,5.5,2.4C143,83,143.6,85.2,143.6,88z M130.5,88c0,2.4,0.5,4.2,1.4,5.4
		c0.9,1.2,2.3,1.8,4.1,1.8c1.8,0,3.2-0.6,4.1-1.8c0.9-1.2,1.4-3,1.4-5.4c0-2.3-0.5-4.1-1.4-5.3s-2.3-1.8-4.1-1.8
		c-1.8,0-3.2,0.6-4.1,1.8C131,83.9,130.5,85.7,130.5,88z"/>
</g>
<g enable-background="new    ">
	<path fill="#525250" d="M162.6,96.8h-2.8l-5.7-7.7l-5.8,7.7h-2.6l7-9.1l-6.5-8.3h2.7l5.2,6.9l5.3-6.9h2.6l-6.5,8.3L162.6,96.8z"/>
</g>
<rect x="111" y="100.1" fill="none" width="58.2" height="24.2"/>
<g enable-background="new    ">
	<path fill="#525250" d="M120.9,102.8c-1.9,0-3.4,0.6-4.5,1.9s-1.7,3-1.7,5.3c0,2.3,0.5,4.1,1.6,5.3c1.1,1.2,2.6,1.9,4.6,1.9
		c1.2,0,2.6-0.2,4.2-0.7v1.8c-1.2,0.5-2.7,0.7-4.5,0.7c-2.6,0-4.6-0.8-6-2.3c-1.4-1.6-2.1-3.8-2.1-6.7c0-1.8,0.3-3.4,1-4.7
		s1.6-2.4,2.9-3.1c1.3-0.7,2.8-1.1,4.5-1.1c1.8,0,3.4,0.3,4.8,1l-0.9,1.7C123.5,103.1,122.2,102.8,120.9,102.8z"/>
</g>
<g enable-background="new    ">
	<path fill="#525250" d="M143.4,109.9c0,2.8-0.7,5-2.1,6.6s-3.3,2.4-5.7,2.4c-2.5,0-4.4-0.8-5.8-2.4s-2-3.8-2-6.7c0-2.8,0.7-5,2-6.6
		c1.4-1.6,3.3-2.3,5.8-2.3c2.4,0,4.3,0.8,5.7,2.4C142.7,104.9,143.4,107.1,143.4,109.9z M129.9,109.9c0,2.4,0.5,4.2,1.5,5.4
		c1,1.2,2.4,1.8,4.3,1.8c1.9,0,3.3-0.6,4.3-1.8c1-1.2,1.4-3,1.4-5.4c0-2.3-0.5-4.1-1.4-5.3s-2.4-1.8-4.2-1.8c-1.9,0-3.3,0.6-4.3,1.8
		C130.4,105.8,129.9,107.6,129.9,109.9z"/>
</g>
<g enable-background="new    ">
	<path fill="#525250" d="M153,118.7l-5.8-15.5h-0.1c0.1,1.2,0.2,2.7,0.2,4.4v11.1h-1.8v-17.5h3l5.4,14.4h0.1l5.5-14.4h3v17.5h-2
		v-11.3c0-1.3,0.1-2.7,0.2-4.2h-0.1l-5.9,15.5H153z"/>
</g>
<rect x="65.5" y="134.1" fill="none" width="114.6" height="12.8"/>
<g enable-background="new    ">
	<path d="M73.1,133.1c-0.9,0-1.6-0.2-2.2-0.6c-0.5-0.4-0.8-0.9-0.8-1.6c0-0.7,0.3-1.2,0.8-1.6c0.5-0.4,1.3-0.6,2.2-0.6
		c0.6,0,1.1,0.1,1.6,0.2l-0.2,0.3c-0.6-0.1-1-0.2-1.5-0.2c-0.8,0-1.4,0.2-1.8,0.5s-0.6,0.8-0.6,1.4c0,0.6,0.2,1,0.6,1.3
		s1,0.5,1.7,0.5c0.6,0,1.1-0.1,1.6-0.2v0.3C74.3,133,73.8,133.1,73.1,133.1z"/>
	<path d="M82.3,131c0,0.7-0.3,1.2-0.8,1.6s-1.2,0.6-2.1,0.6c-0.6,0-1.1-0.1-1.5-0.3s-0.8-0.4-1-0.8c-0.2-0.3-0.3-0.7-0.3-1.1
		c0-0.7,0.3-1.2,0.8-1.6c0.5-0.4,1.2-0.6,2.1-0.6s1.6,0.2,2.1,0.6C82,129.8,82.3,130.3,82.3,131z M77.2,131c0,0.6,0.2,1,0.6,1.3
		s0.9,0.5,1.6,0.5s1.3-0.2,1.6-0.5c0.4-0.3,0.6-0.8,0.6-1.3c0-0.6-0.2-1-0.6-1.3s-0.9-0.5-1.7-0.5s-1.3,0.2-1.6,0.5
		C77.4,129.9,77.2,130.4,77.2,131z"/>
	<path d="M89.1,133v-2.7c0-0.4-0.1-0.7-0.4-0.9s-0.7-0.3-1.3-0.3c-0.8,0-1.3,0.1-1.7,0.4c-0.4,0.3-0.5,0.7-0.5,1.2v2.3h-0.6v-4.1
		h0.5l0.1,0.6l0,0c0.4-0.4,1.2-0.6,2.2-0.6c1.5,0,2.2,0.5,2.2,1.5v2.7L89.1,133L89.1,133z"/>
	<path d="M94.1,132.8c0.4,0,0.7,0,1-0.1v0.3c-0.3,0.1-0.6,0.1-1,0.1c-0.6,0-1-0.1-1.3-0.3s-0.4-0.5-0.4-0.9v-2.7h-1V129l1-0.2
		l0.3-0.9H93v1h1.9v0.3H93v2.6c0,0.3,0.1,0.6,0.3,0.7S93.7,132.8,94.1,132.8z"/>
	<path d="M101,133l-0.1-0.7l0,0c-0.3,0.3-0.7,0.5-1,0.6s-0.7,0.2-1.2,0.2c-0.6,0-1.1-0.1-1.5-0.3s-0.5-0.5-0.5-0.9s0.3-0.7,0.8-0.9
		s1.3-0.3,2.3-0.4h1.2v-0.3c0-0.4-0.1-0.7-0.4-0.9c-0.2-0.2-0.6-0.3-1.2-0.3s-1.2,0.1-1.9,0.3l-0.2-0.3c0.7-0.2,1.4-0.3,2.1-0.3
		s1.2,0.1,1.6,0.4c0.3,0.2,0.5,0.6,0.5,1.1v2.7L101,133L101,133z M98.6,132.8c0.7,0,1.2-0.1,1.6-0.4c0.4-0.3,0.6-0.6,0.6-1.1v-0.4
		h-1.1c-0.9,0-1.5,0.1-1.9,0.3s-0.6,0.4-0.6,0.7s0.1,0.5,0.4,0.6C97.8,132.7,98.2,132.8,98.6,132.8z"/>
	<path d="M106.7,133.1c-0.9,0-1.6-0.2-2.2-0.6c-0.5-0.4-0.8-0.9-0.8-1.6c0-0.7,0.3-1.2,0.8-1.6c0.5-0.4,1.3-0.6,2.2-0.6
		c0.6,0,1.1,0.1,1.6,0.2l-0.2,0.3c-0.6-0.1-1-0.2-1.5-0.2c-0.8,0-1.4,0.2-1.8,0.5s-0.6,0.8-0.6,1.4c0,0.6,0.2,1,0.6,1.3
		s1,0.5,1.7,0.5c0.6,0,1.1-0.1,1.6-0.2v0.3C107.9,133,107.3,133.1,106.7,133.1z"/>
	<path d="M112.2,132.8c0.4,0,0.7,0,1-0.1v0.3c-0.3,0.1-0.6,0.1-1,0.1c-0.6,0-1-0.1-1.3-0.3s-0.4-0.5-0.4-0.9v-2.7h-1V129l1-0.2
		l0.3-0.9h0.3v1h1.9v0.3h-1.9v2.6c0,0.3,0.1,0.6,0.3,0.7S111.8,132.8,112.2,132.8z"/>
	<path d="M121.5,133.1c-0.9,0-1.6-0.2-2.2-0.6c-0.5-0.4-0.8-0.9-0.8-1.6c0-0.7,0.3-1.2,0.8-1.6c0.5-0.4,1.3-0.6,2.2-0.6
		c0.6,0,1.1,0.1,1.6,0.2l-0.2,0.3c-0.6-0.1-1-0.2-1.5-0.2c-0.8,0-1.4,0.2-1.8,0.5s-0.6,0.8-0.6,1.4c0,0.6,0.2,1,0.6,1.3
		s1,0.5,1.7,0.5c0.6,0,1.1-0.1,1.6-0.2v0.3C122.7,133,122.1,133.1,121.5,133.1z"/>
	<path d="M127.9,133.1c-0.9,0-1.7-0.2-2.2-0.6c-0.5-0.4-0.8-0.9-0.8-1.6c0-0.7,0.3-1.2,0.8-1.6s1.2-0.6,2-0.6c0.8,0,1.4,0.2,1.8,0.5
		s0.7,0.8,0.7,1.4v0.3h-4.6c0,0.6,0.2,1,0.6,1.3s1,0.4,1.7,0.4c0.4,0,0.7,0,1,0s0.6-0.1,1.1-0.2v0.3c-0.4,0.1-0.7,0.2-1,0.2
		C128.6,133.1,128.2,133.1,127.9,133.1z M127.7,129.2c-0.6,0-1.1,0.1-1.5,0.4c-0.4,0.3-0.6,0.6-0.7,1.1h4c0-0.5-0.2-0.9-0.5-1.1
		C128.7,129.3,128.3,129.2,127.7,129.2z"/>
	<path d="M137,133v-2.7c0-0.4-0.1-0.7-0.4-0.9s-0.7-0.3-1.3-0.3c-0.8,0-1.3,0.1-1.7,0.4c-0.4,0.3-0.5,0.7-0.5,1.2v2.3h-0.6v-4.1h0.5
		l0.1,0.6l0,0c0.4-0.4,1.2-0.6,2.2-0.6c1.5,0,2.2,0.5,2.2,1.5v2.7L137,133L137,133z"/>
	<path d="M142,132.8c0.4,0,0.7,0,1-0.1v0.3c-0.3,0.1-0.6,0.1-1,0.1c-0.6,0-1-0.1-1.3-0.3s-0.4-0.5-0.4-0.9v-2.7h-1V129l1-0.2
		l0.3-0.9h0.3v1h1.9v0.3h-1.9v2.6c0,0.3,0.1,0.6,0.3,0.7S141.6,132.8,142,132.8z"/>
	<path d="M147.5,133.1c-0.9,0-1.7-0.2-2.2-0.6c-0.5-0.4-0.8-0.9-0.8-1.6c0-0.7,0.3-1.2,0.8-1.6c0.5-0.4,1.2-0.6,2-0.6
		s1.4,0.2,1.8,0.5c0.4,0.3,0.7,0.8,0.7,1.4v0.3h-4.6c0,0.6,0.2,1,0.6,1.3c0.4,0.3,1,0.4,1.7,0.4c0.4,0,0.7,0,1,0s0.6-0.1,1.1-0.2
		v0.3c-0.4,0.1-0.7,0.2-1,0.2C148.3,133.1,147.9,133.1,147.5,133.1z M147.4,129.2c-0.6,0-1.1,0.1-1.5,0.4c-0.4,0.3-0.6,0.6-0.7,1.1
		h4c0-0.5-0.2-0.9-0.5-1.1C148.4,129.3,147.9,129.2,147.4,129.2z"/>
	<path d="M154.7,128.8c0.3,0,0.6,0,0.9,0.1l-0.1,0.4c-0.3,0-0.5-0.1-0.8-0.1c-0.5,0-1,0.1-1.4,0.4c-0.4,0.3-0.5,0.7-0.5,1.1v2.3
		h-0.6v-4.1h0.5l0.1,0.7l0,0c0.3-0.3,0.5-0.5,0.8-0.6C154,128.9,154.3,128.8,154.7,128.8z"/>
</g>
<polyline fill="none" stroke="#008492" stroke-width="4" stroke-miterlimit="10" points="5.9,84.3 5.9,66.6 211.3,66.6 211.3,178.9 
	"/>
<line fill="none" stroke="#008492" stroke-width="4" stroke-miterlimit="10" x1="80.2" y1="66.6" x2="59.3" y2="66.6"/>
</svg>
