<?xml version="1.0" encoding="utf-8"?>
<!-- Generator: Adobe Illustrator 17.1.0, SVG Export Plug-In . SVG Version: 6.00 Build 0)  -->
<!DOCTYPE svg PUBLIC "-//W3C//DTD SVG 1.1//EN" "http://www.w3.org/Graphics/SVG/1.1/DTD/svg11.dtd">
<svg version="1.1" id="Слой_1" xmlns="http://www.w3.org/2000/svg" xmlns:xlink="http://www.w3.org/1999/xlink" x="0px" y="0px"
	 viewBox="0 0 389 204" enable-background="new 0 0 389 204" xml:space="preserve">
<polygon fill-rule="evenodd" clip-rule="evenodd" fill="#008897" points="90.1,185 384,185 384,200.5 379.6,200.5 379.6,189.4 
	90.1,189.4 "/>
<path fill-rule="evenodd" clip-rule="evenodd" fill="#008897" d="M192.1,137.6v25.3c0,3.6-1.5,6.8-3.8,9.2c-2.4,2.4-5.6,3.8-9.2,3.8
	h-18.8c-3.6,0-6.8-1.5-9.2-3.8c-2.4-2.4-3.8-5.6-3.8-9.2v-25.3h4.4v25.3c0,2.4,1,4.5,2.5,6.1c1.6,1.6,3.7,2.5,6.1,2.5h18.8
	c2.4,0,4.5-1,6.1-2.5c1.6-1.6,2.5-3.7,2.5-6.1v-25.3H192.1z"/>
<path fill-rule="evenodd" clip-rule="evenodd" fill="#008897" d="M135.8,187.3l0-49.4h0c0-3.6,1.5-6.8,3.8-9.2
	c2.4-2.4,5.6-3.8,9.2-3.8h41.7c3.6,0,6.8,1.5,9.2,3.8c2.3,2.3,3.8,5.6,3.8,9.2l0,49.4h-4.3l0-49.4c0-2.4-1-4.5-2.5-6.1
	c-1.6-1.6-3.7-2.5-6.1-2.5h-41.7c-2.4,0-4.5,1-6.1,2.5c-1.6,1.6-2.5,3.7-2.5,6.1h0l0,49.4H135.8z"/>
<path fill-rule="evenodd" clip-rule="evenodd" fill="#008897" d="M46.8,59.8l5.3,63.9h6.2L53,59.8H46.8L46.8,59.8z M47.9,126
	L42,55.4H57l6,72.6H48L47.9,126z"/>
<rect x="67.5" y="109" fill-rule="evenodd" clip-rule="evenodd" fill="#008897" width="15.9" height="4.4"/>
<path fill-rule="evenodd" clip-rule="evenodd" fill="#008897" d="M81.5,100.7H69.2v23h12.3V100.7L81.5,100.7z M67.1,96.4h18.8V128
	h-21V96.4H67.1z"/>
<path fill-rule="evenodd" clip-rule="evenodd" fill="#008897" d="M47.9,73.6l4.5,54.4h-14l-4.7-56.4h14L47.9,73.6L47.9,73.6z
	 M47.7,123.7L43.7,76h-5.3l3.9,47.7H47.7z"/>
<rect x="32" y="137.5" fill-rule="evenodd" clip-rule="evenodd" fill="#008897" width="64.3" height="4.4"/>
<polygon fill-rule="evenodd" clip-rule="evenodd" fill="#008897" points="38.1,200.5 27.7,123.7 100.7,123.7 90.3,200.5 85.9,200.5 
	95.7,128.1 32.7,128.1 42.5,200.5 "/>
<polygon fill="none" stroke="#999B9B" stroke-width="5" stroke-miterlimit="10" points="140.3,35.4 132.6,56.4 110.1,56.3 
	103.6,33.9 121.9,21.2 "/>
<polygon fill="none" stroke="#E29026" stroke-width="5" stroke-miterlimit="10" points="152.1,71.1 134.9,56.8 142.5,35.6 
	165.9,37.1 171.6,58.7 "/>
<polygon fill="none" stroke="#E29026" stroke-width="5" stroke-miterlimit="10" points="102,79.6 109.7,58.6 132.2,58.7 138.7,81.1 
	120.3,93.8 "/>
<rect x="171" y="26.3" fill="none" width="83.8" height="36.7"/>
<text transform="matrix(1 0 0 1 171.0391 54.5322)" fill="#525250" font-family="'OpenSans'" font-size="37.172">V</text>
<text transform="matrix(0.94 0 0 1 193.1641 54.5322)" fill="#525250" font-family="'OpenSans'" font-size="37.172">O</text>
<text transform="matrix(1.21 0 0 1 221.2852 54.5322)" fill="#525250" font-family="'OpenSans'" font-size="37.172" letter-spacing="0.8">X</text>
<rect x="168.7" y="59.6" fill="none" width="88.5" height="36.7"/>
<text transform="matrix(1 0 0 1 168.6738 87.875)" fill="#525250" font-family="'OpenSans'" font-size="37.172">C</text>
<text transform="matrix(0.97 0 0 1 191.9756 87.875)" fill="#525250" font-family="'OpenSans'" font-size="37.172" letter-spacing="-2.1">O</text>
<text transform="matrix(0.98 0 0 1 217.4248 87.875)" fill="#525250" font-family="'OpenSans'" font-size="37.172">M</text>
<rect x="99.6" y="111.3" fill="none" width="174.1" height="19.4"/>
<text transform="matrix(1.558 0 0 1 105.5815 109.6436)" font-family="'OpenSans-Light'" font-size="11.8275" letter-spacing="0.6">contact center</text>
<polyline fill-rule="evenodd" clip-rule="evenodd" fill="none" stroke="#008492" stroke-width="4" stroke-miterlimit="10" points="
	9,35.6 9,8.7 321.1,8.7 321.1,179.4 "/>
<line fill-rule="evenodd" clip-rule="evenodd" fill="none" stroke="#008492" stroke-width="4" stroke-miterlimit="10" x1="121.9" y1="8.7" x2="90.1" y2="8.7"/>
</svg>
