<?xml version="1.0" encoding="utf-8"?>
<!-- Generator: Adobe Illustrator 17.1.0, SVG Export Plug-In . SVG Version: 6.00 Build 0)  -->
<!DOCTYPE svg PUBLIC "-//W3C//DTD SVG 1.1//EN" "http://www.w3.org/Graphics/SVG/1.1/DTD/svg11.dtd">
<svg version="1.1" xmlns="http://www.w3.org/2000/svg" xmlns:xlink="http://www.w3.org/1999/xlink" x="0px" y="0px"
	 viewBox="0 0 252 255.3" enable-background="new 0 0 252 255.3" xml:space="preserve">
<g id="Слой_1">
	<polygon fill="none" stroke="#999B9B" stroke-width="5" stroke-miterlimit="10" points="138.9,58.6 116.2,120.7 49.6,120.6 
		30.3,54.2 84.7,16.6 	"/>
	<polygon fill="none" stroke="#E29026" stroke-width="5" stroke-miterlimit="10" points="173.8,164.3 123,121.9 145.6,59.3 
		214.6,63.6 231.6,127.5 	"/>
	<polygon fill="none" stroke="#E29026" stroke-width="5" stroke-miterlimit="10" points="25.6,189.4 48.4,127.4 114.9,127.5 
		134.2,193.9 79.8,231.5 	"/>
	<rect x="230" y="31.7" fill="none" width="248" height="108.5"/>
	<g display="none">
		<text transform="matrix(1 0 0 1 229.9607 115.2664)" display="inline" fill="#525250" font-family="'OpenSans'" font-size="110">V</text>
		
			<text transform="matrix(0.94 0 0 1 295.4343 115.2664)" display="inline" fill="#525250" font-family="'OpenSans'" font-size="110" letter-spacing="2.1">O</text>
		
			<text transform="matrix(1.21 0 0 1 378.6511 115.2664)" display="inline" fill="#525250" font-family="'OpenSans'" font-size="110" letter-spacing="2.5">X</text>
	</g>
	<rect x="223" y="130.3" fill="none" width="262" height="108.5"/>
	<g display="none">
		<text transform="matrix(1 0 0 1 222.9607 213.9326)" display="inline" fill="#525250" font-family="'OpenSans'" font-size="110">C</text>
		
			<text transform="matrix(0.97 0 0 1 291.9148 213.9326)" display="inline" fill="#525250" font-family="'OpenSans'" font-size="110" letter-spacing="-7.2">O</text>
		
			<text transform="matrix(0.98 0 0 1 367.2244 213.9326)" display="inline" fill="#525250" font-family="'OpenSans'" font-size="110">M</text>
	</g>
	<rect x="19.7" y="242.7" fill="none" width="436.7" height="48.7"/>
	<g display="none">
	</g>
	
		<text transform="matrix(1.558 0 0 1 36.257 278.3545)" display="none" font-family="'OpenSans-Light'" font-size="35" letter-spacing="3.2">contact center</text>
</g>
<g id="Слой_2">
</g>
</svg>
