<?xml version="1.0" encoding="utf-8"?>
<!-- Generator: Adobe Illustrator 17.1.0, SVG Export Plug-In . SVG Version: 6.00 Build 0)  -->
<!DOCTYPE svg PUBLIC "-//W3C//DTD SVG 1.1//EN" "http://www.w3.org/Graphics/SVG/1.1/DTD/svg11.dtd">
<svg version="1.1" id="Слой_1" xmlns="http://www.w3.org/2000/svg" xmlns:xlink="http://www.w3.org/1999/xlink" x="0px" y="0px"
	 viewBox="0 0 523.5 66" enable-background="new 0 0 523.5 66" xml:space="preserve">
<path fill="none" stroke="#008897" stroke-width="3" stroke-miterlimit="10" d="M307.1,40.8c-0.7-1.3-1.1-1.9-1.4-2.6
	c-4.3-9.3-8.5-18.6-12.8-27.9c-1.5-3.4-4.1-5.7-7.8-5.9c-6.9-0.2-13.8-0.2-20.6,0c-4.4,0.1-8.4,4.1-8.4,8.5c-0.1,15,0,30-0.1,44.9
	c0,1.8,0.7,2.2,2.3,2.1c3.8-0.1,7.6-0.1,11.4,0c1.9,0.1,2.4-0.6,2.4-2.5c-0.1-12.8,0-25.7,0-38.5c0-2.8,0.9-4.1,2.9-4.6
	c2-0.5,3.7,0.6,4.8,3c4.9,11,9.8,21.9,14.6,33c3.4,8,5.5,9.8,14.6,9.5c4.6-0.1,7.7-2.2,9.6-6.3c3.7-8.4,7.3-16.8,11-25.2
	c1.7-3.9,3.4-7.9,5.2-11.8c0.8-1.9,2.4-2.7,4.4-2.3c1.9,0.4,2.9,1.8,3,3.7c0.1,0.7,0,1.4,0,2.1c0,12.4,0,24.8,0,37.2
	c0,1.8,0.5,2.5,2.4,2.5c3.8-0.1,7.6-0.1,11.4,0c1.8,0.1,2.3-0.6,2.3-2.4c-0.1-14.6,0-29.2,0-43.9c0-5.3-4.1-9.4-9.4-9.4
	c-5.9,0-11.9,0.1-17.8,0c-4.7-0.1-7.9,2.1-9.8,6.3c-2.6,5.7-5.2,11.5-7.9,17.2C311.3,31.9,309.3,36,307.1,40.8z"/>
<path fill="none" stroke="#008897" stroke-width="3" stroke-miterlimit="10" d="M435,35.5c0,7.5,0,14.9,0,22.4
	c0,1.6,0.4,2.2,2.1,2.1c3.9-0.1,7.7,0,11.6,0c2.9,0,2.9,0,2.9-2.8c0-12,0-24.1,0-36.1c0-1.1,0.1-2.3,0.3-3.4c0.4-2,1.7-2.9,3.7-2.8
	c2.3,0.1,3.3,1.8,4.3,3.5c7.1,12.4,14.2,24.9,21.3,37.3c1.6,2.9,4.1,4.3,7.2,4.3c7.5,0.1,15.1,0.1,22.6,0c5-0.1,9-4,9.1-9
	c0.1-14.8,0-29.5,0.1-44.3c0-1.6-0.6-2.3-2.3-2.3c-3.9,0.1-7.9,0.1-11.8,0c-1.9-0.1-2.5,0.5-2.5,2.4c0.1,8.1,0,16.2,0,24.3
	c0,4.8,0,9.6,0,14.4c0,2.1-1,3.4-3,3.9c-1.9,0.5-3.2-0.4-4.2-1.9c-0.5-0.7-0.9-1.5-1.3-2.2c-6.7-11.9-13.4-23.7-20-35.6
	c-2-3.5-4.8-5.3-8.9-5.3c-7.2,0.1-14.3,0-21.5,0c-5.7,0-9.5,4-9.5,9.7C435,21.1,435,28.3,435,35.5z"/>
<path fill="none" stroke="#008897" stroke-width="3" stroke-miterlimit="10" d="M400,4.3c-9,0-18.1,0-27.1,0c-6.1,0-9.9,3.7-9.9,9.7
	c-0.1,12-0.1,24.1,0,36.1c0,6,3.9,9.8,9.9,9.8c8.6,0,17.2,0,25.8,0c9.7,0,19.5,0,29.2,0c1.9,0,2.5-0.6,2.5-2.5
	c-0.1-2.9-0.1-5.9,0-8.8c0-1.3-0.5-1.9-1.8-1.8c-0.5,0-1,0-1.5,0c-14.3,0-28.5,0-42.8,0c-2.9,0-4.1-0.8-4.7-3.1
	c-1-3.4,0.9-5.9,4.4-5.9c14.7,0,29.4,0,44.1,0c1.7,0,2.5-0.5,2.4-2.3c-0.1-2.1,0-4.3,0-6.5c0-3.4,0-3.4-3.3-3.4
	c-14.4,0-28.8,0-43.2,0c-2.1,0-3.6-0.7-4.2-2.8c-1.1-3.5,0.9-6.2,4.8-6.2c14.3,0,28.7,0,43,0c2.9,0,2.9,0,2.9-3c0-2.3-0.1-4.6,0-6.9
	c0.1-2-0.5-2.8-2.7-2.7C418.5,4.4,409.3,4.3,400,4.3z"/>
<path fill="none" stroke="#008897" stroke-width="3" stroke-miterlimit="10" d="M179.1,44.5c0.3,8.4,3.5,12.3,11.2,14
	c3.5,0.7,7.1,1.3,10.6,1.4c10.4,0.2,20.8,0.2,31.2,0c3.1-0.1,6.3-0.8,9.2-1.8c7.3-2.4,9.6-8.2,9.6-15.3c0.1-12.1,0.3-24.2,0.5-36.3
	c0-1.8-0.7-2.2-2.3-2.1c-3.9,0.1-7.7,0.1-11.6,0.1c-3,0-3,0-3,2.9c0,10,0.1,19.9,0,29.9c0,5.6-2.8,8.7-8.3,8.9
	c-6.3,0.3-12.6,0.4-18.9,0.4c-2.3,0-4.6-0.4-6.8-0.9c-3.1-0.7-4.6-2.4-4.6-5.1c-0.2-7.2-0.3-14.5-0.5-21.7c-0.1-4-0.2-8-0.3-12
	c0-1.7-0.5-2.5-2.4-2.4c-4,0.1-8,0.1-12,0c-1.7,0-2.3,0.5-2.2,2.2C178.8,27,178.9,37.5,179.1,44.5z"/>
<path fill="none" stroke="#008897" stroke-width="3" stroke-miterlimit="10" d="M181.4,59.9c-1.9-3.5-3.5-6.6-5.2-9.7
	c-7.2-13.5-14.5-27-21.7-40.5c-1.9-3.6-4.8-5.5-9-5.4c-6.7,0.1-13.3,0-20,0c-3.7,0-6.5,1.7-8.2,4.9C108.3,25.5,99.4,41.8,90.6,58
	c-0.3,0.5-0.5,1.1-0.8,1.9c6.7,0,13.1,0,19.4-0.1c0.6,0,1.5-0.7,1.9-1.4c1.2-2.1,2.1-4.2,3.2-6.3c5.7-11.6,11.5-23.2,17.2-34.9
	c0.9-1.8,2-3.3,4.1-3.3c2,0,3.1,1.5,3.9,3.2c1.2,2.5,2.5,5,3.7,7.5c5.4,11,10.9,22.1,16.3,33.1c0.4,0.8,1.2,1.9,1.9,2
	C168,60,174.4,59.9,181.4,59.9z"/>
<path fill="none" stroke="#008897" stroke-width="3" stroke-miterlimit="10" d="M4.7,35.2c0-7,0-14,0-21.1c0-6.1,3.7-9.8,9.7-9.8
	c7,0,14,0,21.1,0c4.2,0,7.1,1.8,9.1,5.4C51.3,21.5,58,33.4,64.7,45.4c0.5,0.8,0.8,1.8,1.5,2.4c1,0.8,2.3,1.5,3.5,1.6
	c1.5,0,2.9-1,3.2-2.7c0.2-1,0.3-2,0.3-3c0-12,0-24.1,0-36.1c0-3.2,0-3.2,3.3-3.2c3.7,0,7.5,0,11.2,0c1.4,0,2,0.4,2,2
	c0,14.9,0,29.8-0.1,44.7c0,4.8-4.3,8.9-9.2,8.9C72.9,60,65.5,60,58,59.9c-3.2-0.1-5.7-1.4-7.3-4.4c-7-12.5-14.2-24.9-21.3-37.3
	c-0.4-0.7-0.8-1.4-1.3-2c-1.1-1.4-2.6-1.7-4.3-1.3c-1.7,0.5-2.4,1.7-2.5,3.4c-0.1,1.5-0.1,3-0.1,4.5c0,11.6,0,23.2,0,34.8
	c0,1.8-0.5,2.4-2.3,2.3c-3.9-0.1-7.9-0.1-11.8,0c-1.9,0.1-2.5-0.5-2.5-2.4C4.8,50.1,4.7,42.6,4.7,35.2z"/>
</svg>
