<?xml version="1.0" encoding="utf-8"?>
<!-- Generator: Adobe Illustrator 17.1.0, SVG Export Plug-In . SVG Version: 6.00 Build 0)  -->
<!DOCTYPE svg PUBLIC "-//W3C//DTD SVG 1.1//EN" "http://www.w3.org/Graphics/SVG/1.1/DTD/svg11.dtd">
<svg class="pentas" xmlns="http://www.w3.org/2000/svg" viewBox="0 0 841.9 595.3">
				<polygon class="pent" fill="none" stroke="#7B7876" stroke-width="2" stroke-miterlimit="10" points="558.8,391.3 523.7,487.2 420.9,487.2 391,384.6 475.1,326.5 "
				/>
				<polygon class="pent" fill="none" stroke="#E29026" stroke-width="2" stroke-miterlimit="10" points="406.1,522 327.7,456.5 362.5,359.8 469.1,366.4 495.4,465.1 "
				/>
				<polygon class="pent" fill="none" stroke="#E29026" stroke-width="2" stroke-miterlimit="10" points="433.8,502.7 469,406.9 571.8,407 601.6,509.6 517.5,567.6 "
				/>
				<polygon class="pent" fill="none" stroke="#E29026" stroke-width="2" stroke-miterlimit="10" points="370.8,328.6 406,232.8 508.8,232.9 538.6,335.5 454.5,393.5 "
				/>
				<polygon class="pent" fill="none" stroke="#E29026" stroke-width="2" stroke-miterlimit="10" points="474.9,278 510.2,182.2 612.9,182.3 642.7,284.9 558.6,343 "
				/>
				<polygon class="pent" fill="none" stroke="#7B7876" stroke-width="2" stroke-miterlimit="10" points="685.5,219.3 600.5,275.9 517.6,215.2 554,114.8 656.2,117.5 "
				/>
				<polygon class="pent" fill="none" stroke="#E29026" stroke-width="2" stroke-miterlimit="10" points="642.7,231.7 677.9,135.8 780.7,136 810.5,238.6 726.4,296.6 "
				/>
				<polygon class="pent" fill="none" stroke="#7B7876" stroke-width="2" stroke-miterlimit="10" points="790.5,323.2 755.3,419.1 652.6,419 622.7,316.5 706.7,258.4 "
				/>
				<polygon class="pent" fill="none" stroke="#E29026" stroke-width="2" stroke-miterlimit="10" points="593.2,455.1 583.8,353.4 676.7,309.4 747.7,389.2 696.7,477.7 "
				/>
				<polygon class="pent" fill="none" stroke="#E29026" stroke-width="2" stroke-miterlimit="10" points="296.6,248.2 331.8,152.4 434.5,152.5 464.3,255.1 380.3,313.2 "
				/>
				<polygon class="pent" fill="none" stroke="#7B7876" stroke-width="2" stroke-miterlimit="10" points="194.5,344.1 109.5,400.7 26.6,340 63,239.6 165.2,242.3 "
				/>
				<polygon class="pent" fill="none" stroke="#7B7876" stroke-width="2" stroke-miterlimit="10" points="361.4,252.2 326.2,348.1 223.5,348.1 193.6,245.5 277.6,187.4 "
				/>
				<polygon class="pent" fill="none" stroke="#E29026" stroke-width="2" stroke-miterlimit="10" points="193.9,307.6 282.4,256.8 361.1,322.9 318,420.7 216.3,411.1 "
				/>
				<polygon class="pent" fill="none" stroke="#7B7876" stroke-width="2" stroke-miterlimit="10" points="389.9,472.5 329.3,554.8 230.7,525.9 230.7,419.1 327.7,386.8 "
				/>
				<polygon class="pent" fill="none" stroke="#E29026" stroke-width="2" stroke-miterlimit="10" points="83,219.4 118.2,123.5 221,123.7 250.8,226.2 166.7,284.3 "
				/>
				<polygon class="pent" fill="none" stroke="#E29026" stroke-width="2" stroke-miterlimit="10" points="124.2,380.8 186.3,299.7 284.4,330.2 282.5,437.1 185,467.6 "
				/>
				<polygon class="pent" fill="none" stroke="#7B7876" stroke-width="2" stroke-miterlimit="10" points="528.1,184.2 442.9,240.5 360.3,179.4 397.1,79.2 499.3,82.3 "
				/>
				<polygon class="pent" fill="none" stroke="#E29026" stroke-width="2" stroke-miterlimit="10" points="437.6,86.6 499.6,5.4 597.7,36 595.8,142.8 498.3,173.4 "
				/>
				<polygon class="pent" fill="none" stroke="#E29026" stroke-width="2" stroke-miterlimit="10" points="193.6,161.4 228.8,65.6 331.6,65.7 361.4,168.3 277.3,226.4 "
				/>
				<polygon class="pent" fill="none" stroke="#E29026" stroke-width="2" stroke-miterlimit="10" points="558.3,566.4 548.9,464.7 641.8,420.7 712.8,500.5 661.7,589.1 "
				/>
			</svg>
