<?xml version="1.0" encoding="utf-8"?>
<!-- Generator: Adobe Illustrator 17.1.0, SVG Export Plug-In . SVG Version: 6.00 Build 0)  -->
<!DOCTYPE svg PUBLIC "-//W3C//DTD SVG 1.1//EN" "http://www.w3.org/Graphics/SVG/1.1/DTD/svg11.dtd">
<svg version="1.1" xmlns="http://www.w3.org/2000/svg" xmlns:xlink="http://www.w3.org/1999/xlink" x="0px" y="0px"
	 viewBox="0 0 352 528.3" enable-background="new 0 0 352 528.3" xml:space="preserve">
<g id="Слой_3" display="none">
	
		<image display="inline" overflow="visible" width="626" height="626" xlink:href="2F959D3D.jpg"  transform="matrix(1 0 0 1 -124.055 -16.36)">
	</image>
</g>
<g id="Слой_2" display="none">
</g>
<g id="Слой_1">
	<path fill="#FFFFFF" stroke="#E18C44" stroke-width="8" stroke-miterlimit="10" d="M117.6,406.8c0,0,5.5,4.7,12.3,5.6
		c0,0-11.9,33.4-17.9,41.4c0,0-8.3,17.9-5.7-1.5C106.4,452.2,108.5,428.2,117.6,406.8z"/>
	<path fill="#FFFFFF" stroke="#E18C44" stroke-width="8" stroke-miterlimit="10" d="M177.5,427.7c0,0,12.5,2.1,14.7,2.5
		c0,0-8.5,25.9-17.7,42.8c0,0-8.7,18.6-7.2-1.5C167.3,471.5,169.5,447.7,177.5,427.7z"/>
	<path fill="none" stroke="#49919B" stroke-width="8" stroke-miterlimit="10" d="M278.9,12.7c0,0-75.6,32.5-117.2,97.2
		c0,0-41.9,62.4-59.8,185.2c0.6-0.4,1.1-0.7,1.5-0.9c7.7-4,16.4,1.9,16.4,1.9c12.1,10.2,6.1,38.2,6.1,38.2
		c-10.3,39.5-24.6,49.6-29.5,52c5.7,4.3,22.8,16,50.2,25.4c15.6-51.8,35-90.4,35-90.4c6.4-8.6,6,1.4,6,1.4
		c-3.4,26.9-14.3,63-25,93.9c16,4.2,34.8,7.3,56,7.9c0,0,0.2-0.3,0.5-0.8c-1.1-3.8-15.4-55.5,23.2-83.4c1.2-3.3,15.6-8.9,23.2,5.5
		c9.6-18.6,18.8-38.9,25.5-58.7c0,0,34.3-83.1,28.7-159.2C319.7,127.9,310.9,54.3,278.9,12.7z"/>
	<path fill="none" stroke="#49919B" stroke-width="8" stroke-miterlimit="10" d="M125.9,334.4c-10.3,39.5-24.6,49.6-29.5,52
		c-1.1,0.5-1.7,0.7-1.7,0.7s-48.2,27-58.1,50.3c-10,23.3-12.6,3.2-12.6,3.2c31-105.3,67.6-138.7,78-145.4l0,0
		c0.6-0.4,1.1-0.7,1.5-0.9c7.7-4,16.4,1.9,16.4,1.9C131.9,306.4,125.9,334.4,125.9,334.4z"/>
	<path fill="none" stroke="#4E8C95" stroke-width="8" stroke-miterlimit="10" d="M265.5,345.8c0.9,1.7,1.7,3.6,2.3,5.9
		c5.8,19.6-3.7,117.1-18.2,152.6c0,0-5.4,12.6-11.2,5.9c-5.8-6.7-1.9-5.8-1.9-5.8s10.1-34.6-17.4-80.5c0,0,0-0.1-0.1-0.2
		c-1.1-3.8-15.4-55.5,23.2-83.4C243.6,337.1,258,331.4,265.5,345.8z"/>
	<path fill="none" stroke="#4E8C95" stroke-width="8" stroke-miterlimit="10" d="M187.5,322.7c-3.4,26.9-14.3,63-25,93.9
		c-12.2,35.3-24.1,63.8-24.1,63.8c-11.3,22.3-7.6-0.8-7.6-0.8c3.5-23.7,9.2-46.9,15.6-67.9c15.6-51.8,35-90.4,35-90.4
		C187.9,312.7,187.5,322.7,187.5,322.7z"/>
	<polygon fill="none" stroke="#CB8948" stroke-width="8" stroke-miterlimit="10" points="195.8,157.7 196.4,91.6 259.1,69.3 
		299.6,125.4 261,179.1 	"/>
</g>
</svg>
