<?xml version="1.0" encoding="utf-8"?>
<!-- Generator: Adobe Illustrator 17.1.0, SVG Export Plug-In . SVG Version: 6.00 Build 0)  -->
<!DOCTYPE svg PUBLIC "-//W3C//DTD SVG 1.1//EN" "http://www.w3.org/Graphics/SVG/1.1/DTD/svg11.dtd">
<svg version="1.1" id="Слой_1" xmlns="http://www.w3.org/2000/svg" xmlns:xlink="http://www.w3.org/1999/xlink" x="0px" y="0px"
	 viewBox="0 0 803 205" enable-background="new 0 0 803 205" xml:space="preserve">
<image display="none" overflow="visible" width="1600" height="464" xlink:href="CA280BDB.jpg"  transform="matrix(0.5148 0 0 0.5148 -2.7586 -32.92)">
</image>
<path fill="none" stroke="#FFFFFF" stroke-width="2" stroke-miterlimit="10" d="M138.3,162.9l99.3,2.3l111.6,2.2l134.8,1.7
	c0,0,0,1,0.4,0.9c0.4-0.1,87.9-0.1,87.9-0.1v-1.3c-10.4-11.8-42.2-13.6-49-14c-6.7-0.4-4.8-3.6-4.8-3.6s7.1-10.7,9.7-14.6
	c2.5-3.9,4.4-3.7,4.4-3.7l44.6-5.8l5.5,0.8c-0.2,2.2-0.2,4.5,0,6.7"/>
<path fill="none" stroke="#FFFFFF" stroke-miterlimit="10" d="M361.2,55.2"/>
<circle fill="none" stroke="#FFFFFF" stroke-width="2" stroke-miterlimit="10" cx="94.7" cy="134.3" r="52.1"/>
<circle fill="none" stroke="#FFFFFF" stroke-width="2" stroke-miterlimit="10" cx="634.2" cy="138.2" r="51.5"/>
<circle fill="none" stroke="#FFFFFF" stroke-width="2" stroke-miterlimit="10" cx="94.7" cy="134.3" r="40.6"/>
<circle fill="none" stroke="#FFFFFF" stroke-width="2" stroke-miterlimit="10" cx="634.2" cy="138" r="40.6"/>
<g>
	<path fill="#FFFFFF" stroke="#FFFFFF" d="M233.3,131.7H229v-15.1h-16.4v15.1h-4.3V99.1h4.3v14H229v-14h4.3V131.7z"/>
	<path fill="#FFFFFF" stroke="#FFFFFF" d="M245.6,131.7h-4.3V99.1h4.3V131.7z"/>
	<path fill="#FFFFFF" stroke="#FFFFFF" d="M277.5,127.4c-1.1,1.6-2.6,2.8-4.6,3.5c-2,0.8-4.3,1.2-6.9,1.2c-2.7,0-5-0.6-7.1-1.9
		c-2.1-1.2-3.7-3-4.8-5.3c-1.1-2.3-1.7-5-1.7-8v-2.8c0-4.9,1.1-8.7,3.4-11.4c2.3-2.7,5.5-4.1,9.7-4.1c3.4,0,6.1,0.9,8.2,2.6
		c2.1,1.7,3.3,4.2,3.8,7.4h-4.3c-0.8-4.3-3.4-6.5-7.7-6.5c-2.9,0-5.1,1-6.5,3c-1.5,2-2.2,5-2.2,8.8v2.7c0,3.7,0.8,6.6,2.5,8.7
		c1.7,2.2,3.9,3.2,6.8,3.2c1.6,0,3-0.2,4.2-0.5c1.2-0.4,2.2-1,3-1.8V119h-7.5v-3.5h11.8V127.4z"/>
	<path fill="#FFFFFF" stroke="#FFFFFF" d="M309.7,131.7h-4.3v-15.1h-16.4v15.1h-4.3V99.1h4.3v14h16.4v-14h4.3V131.7z"/>
	<path fill="#FFFFFF" stroke="#FFFFFF" d="M339.2,102.6h-10.5v29.1h-4.3v-29.1H314v-3.5h25.2V102.6z"/>
	<path fill="#FFFFFF" stroke="#FFFFFF" d="M375.3,102.6h-10.5v29.1h-4.3v-29.1h-10.5v-3.5h25.2V102.6z"/>
	<path fill="#FFFFFF" stroke="#FFFFFF" d="M398.6,116.7h-14.1v11.6h16.4v3.5h-20.7V99.1h20.5v3.5h-16.2v10.5h14.1V116.7z"/>
	<path fill="#FFFFFF" stroke="#FFFFFF" d="M430.2,121.4c-0.4,3.4-1.7,6.1-3.8,8c-2.1,1.9-5,2.8-8.5,2.8c-3.9,0-6.9-1.4-9.3-4.1
		c-2.3-2.8-3.5-6.5-3.5-11.1v-3.1c0-3,0.5-5.7,1.6-8c1.1-2.3,2.6-4.1,4.6-5.3c2-1.2,4.3-1.8,6.9-1.8c3.5,0,6.2,1,8.3,2.9
		c2.1,1.9,3.3,4.6,3.6,8h-4.3c-0.4-2.6-1.2-4.5-2.4-5.7c-1.2-1.2-3-1.8-5.2-1.8c-2.7,0-4.9,1-6.5,3c-1.6,2-2.3,4.9-2.3,8.7v3.2
		c0,3.5,0.7,6.4,2.2,8.4s3.5,3.1,6.2,3.1c2.4,0,4.2-0.5,5.5-1.6c1.3-1.1,2.1-3,2.5-5.7H430.2z"/>
	<path fill="#FFFFFF" stroke="#FFFFFF" d="M461.1,131.7h-4.3v-15.1h-16.4v15.1H436V99.1h4.3v14h16.4v-14h4.3V131.7z"/>
</g>
<line fill="#FFFFFF" stroke="#FFFFFF" stroke-width="2" stroke-miterlimit="10" x1="138.3" y1="162.9" x2="523.4" y2="154.6"/>
<path fill="none" stroke="#FFFFFF" stroke-width="2" stroke-miterlimit="10" d="M369.7,53.7c0,0,1.7-14.2,22.6-19.1
	s30.6,15.3,30.6,15.3l-20.4,5.2v5.2h23.6c0,0-0.8,9.7-3.2,11.3s-3.3,4-3.3,4h-7.3 M426.1,60.4l-3.2-10.5l-20.4,5.2v5.2H426.1z"/>
<path fill="none" stroke="#FFFFFF" stroke-width="2" stroke-miterlimit="10" d="M41.4,155.5c-1.7-2.7-2.4-4.5-2.4-4.5
	s-4.2-12.6-4.5-18.6l-5.5-3.7l-0.2-1.4l-2.7,0.8l-1.9-2.3l-12.9-8.8v-0.5V22.3L38,29c0,0,8.2,2.6,10.7,0c0,0,2.6-1,1.2-10.1
	l59.9-0.8v3.6l21.1,0.2l-1,28.8c0,0,0.6,14.5-18.5,22.7c0,0-8.8,3.4-10.1,6.4c0,0,6.4,1.6,7.2,2c0.8,0.4,3.6-4.4,14.9-5.2
	c0,0,1.6,0.6,7.4-2.4l98.3-39.6c0,0,29.6-9.9,43.8-10.9h56.1v-2c0,0,20.1-4.4,24.3-0.8v4.2h3c0,0,2.6-1.2,2.4,5.2
	c-0.2,6.4,0,16.3,0,16.3s0.4,2.4-3.4,3.2l-0.5,4.4c0,0,11.1-1.6,14.7-0.6c3.6,1,1.9,12.4,1.9,12.4l25.9,0.5c0,0,4.4,0.4,9,6
	c4.6,5.6,20.8,3.5,20.8,3.5l20.8,1.1L454,71l-6.5-0.7l-0.2-7.6l18.8-1.2c0,0,4.3-0.2,6.2,4.1c1.9,4.3-4.8,6.4-4.8,6.4l-3.2,5.7
	c0,0,9.5-0.1,15.1-2.4l20.8,0.3l4.5-5.5l3.6,0.1l3.1,5.2l76.8,2c0,0,8.1-3.2,20,0.5l15.5,0.9c0,0,0,0,0,0l22.5,1.2c0,0,0,0,0,0
	l18.6,1c0,0,87.8,11.3,96.9,15.5s7.9,3.9,7.9,3.9s5,2.4-5.3,4c-10.4,1.6-17.9,2.7-17.9,2.7s-0.7,2.1,4.7,12.3s5,17,5,17
	s25.2,1.3,25.3,1c0.1-0.3,5.1-0.6,10.3,3.4v23.6c0,0,1.2-0.1,1.7,1c0.5,1.1,0,3.8,0,3.8l-85.5-0.8l-1.3-0.4l0.9-14.1l-9.5,0.5
	l-0.2-1.8l-14.1-0.3 M758.3,136.5l-50.6,1.4c0,0,0.4,13.7,0,16.1"/>
<polygon fill="#EF8B45" stroke="#EF8B45" stroke-width="2" stroke-miterlimit="10" points="96,143.6 85.1,140.1 84.8,130 
	95.8,125.4 102.6,134.6 "/>
<polygon fill="#EF8B45" stroke="#EF8B45" stroke-width="2" stroke-miterlimit="10" points="636.5,148 625.8,144.1 625.9,134 
	637,129.7 643.5,139.1 "/>
</svg>
