<?xml version="1.0" encoding="utf-8"?>
<!-- Generator: Adobe Illustrator 17.1.0, SVG Export Plug-In . SVG Version: 6.00 Build 0)  -->
<!DOCTYPE svg PUBLIC "-//W3C//DTD SVG 1.1//EN" "http://www.w3.org/Graphics/SVG/1.1/DTD/svg11.dtd">
<svg version="1.1" id="Слой_1" xmlns="http://www.w3.org/2000/svg" xmlns:xlink="http://www.w3.org/1999/xlink" x="0px" y="0px"
	 viewBox="0 0 841.9 492" enable-background="new 0 0 841.9 492" xml:space="preserve">
<path fill="none" stroke="#FBFEFF" stroke-width="1.5" stroke-linecap="round" stroke-linejoin="round" stroke-miterlimit="22.9256" d="
	M313.9,193.6c-12.2,42.3-45.4,73.1-77,74.7c-31.6-1.5-65-32.6-77.1-75.1l-6,0.9c-6.7,1-13.1-3.6-14.2-10.4l-5.8-37.6
	c-1-6.7,3.6-13.1,10.4-14.2l4.2-0.7c-1.9-5.9-2.9-12.2-2.9-18.7V98.8c0-33.9,27.7-61.6,61.6-61.6h7.3c-0.1-1.2,0.1-2.3,0.5-3.3
	c3.8-10,29-9.7,56.4,0.7c5.8,2.2,11.3,4.7,16.2,7.3c22.3,9.3,38,31.3,38,56.9v13.8c0,6.5-1,12.8-2.9,18.7l4.2,0.7
	c6.7,1.1,11.4,7.4,10.4,14.2l-5.8,37.6c-1.1,6.7-7.4,11.4-14.2,10.4L313.9,193.6L313.9,193.6z"/>
<line fill="none" stroke="#FBFEFF" stroke-width="1.5" stroke-linecap="round" stroke-linejoin="round" stroke-miterlimit="22.9256" x1="382.1" y1="447.6" x2="315.5" y2="447.6"/>
<path fill="none" stroke="#FBFEFF" stroke-width="1.5" stroke-linecap="round" stroke-linejoin="round" stroke-miterlimit="22.9256" d="
	M19.5,484.5L8.4,384v-10.6c0-23.5,23.8-37.1,43.6-41.1c18.1-3.7,86-18.4,107.9-33.6l1.3-0.2L201,484.8l23.8-122.9l-20.2-52.1h65.2
	l-20.2,52.1l23.2,122.9l40.4-186.3l1.3,0.2c22,15.2,89.8,29.9,107.9,33.6c19.8,4,43.6,17.6,43.6,41.1V384L455,484.5"/>
<path fill="none" stroke="#FBFEFF" stroke-width="1.5" stroke-linecap="round" stroke-linejoin="round" stroke-miterlimit="22.9256" d="
	M641.6,285.6c0.9,10.7-1.5,24.8-11.6,36.3c-1.1,1.2-2.2,2.3-3.5,3.4l46.1,106.4l49.8-105.1c-1.9-1.5-3.7-3-5.2-4.7
	c-8.9-9.9-10.7-25.3-9.9-36.4"/>
<path fill="none" stroke="#FBFEFF" stroke-width="1.5" stroke-linecap="round" stroke-linejoin="round" stroke-miterlimit="22.9256" d="
	M828.8,482.7c17.5-91.5-2.2-128.3-106.3-156.1"/>
<path fill="none" stroke="#FBFEFF" stroke-width="1.5" stroke-linecap="round" stroke-linejoin="round" stroke-miterlimit="22.9256" d="
	M626.6,325.3l-40.7,15c-73.3,27.4-88.1,56.5-67.3,142.4"/>
<line fill="none" stroke="#FBFEFF" stroke-width="1.5" stroke-linecap="round" stroke-linejoin="round" stroke-miterlimit="22.9256" x1="779.6" y1="452" x2="723.9" y2="452"/>
<path fill="none" stroke="#FBFEFF" stroke-width="1.5" stroke-linecap="round" stroke-linejoin="round" stroke-miterlimit="22.9256" d="
	M648.1,142.1c18.7,0,63.4-3.3,76.2-22.2c14.2,14.7,25.5,59.2,25.5,82.5c0,44.3-31.4,91.7-71,91.7c-39.6,0-71.7-35.9-71.7-80.3
	C607.1,169.5,608.5,142.1,648.1,142.1L648.1,142.1z"/>
<path fill="none" stroke="#FBFEFF" stroke-width="1.5" stroke-linecap="round" stroke-linejoin="round" stroke-miterlimit="22.9256" d="
	M794.5,348.5c25.1-29.2,7.2-60.3,7.2-106.8c0-88.3-2.3-188.6-125.5-182.7C553,65,549.5,130.6,549.5,218.9c0,55.5,1,97.6,19,121.3"/>
<path fill="none" stroke="#FBFEFF" stroke-width="1.5" stroke-linecap="round" stroke-linejoin="round" stroke-miterlimit="22.9256" d="
	M707.6,250.3"/>
<path fill="none" stroke="#FBFEFF" stroke-width="1.4" stroke-linecap="round" stroke-linejoin="round" stroke-miterlimit="22.9256" d="
	M130,192h-14.5l-5.6-58.1h11.9h11.9L130,192z M235.6,7.6c0,0-126.5-14.5-113.8,126.3"/>
<path fill="none" stroke="#FBFEFF" stroke-width="1.4" stroke-linecap="round" stroke-linejoin="round" stroke-miterlimit="22.9256" d="
	M339.1,133.8H351H363l-5.6,58.1h-14.5L339.1,133.8z M351,133.8C363.7-7,237.2,7.6,237.2,7.6"/>
<polygon fill="none" stroke="#FBFEFF" stroke-width="1.4" stroke-linecap="round" stroke-linejoin="round" stroke-miterlimit="22.9256" points="
	171.1,220 209.3,220 209.3,228.8 176.5,228.8 "/>
<circle fill="none" stroke="#FBFEFF" stroke-width="1.4" stroke-linecap="round" stroke-linejoin="round" stroke-miterlimit="22.9256" cx="223.3" cy="223.8" r="14"/>
<polygon fill="#F68C4F" stroke="#F68D4F" stroke-width="2" stroke-miterlimit="10" points="105.9,440.1 74.1,439.7 65.3,412.9 
	90.6,391.7 116.1,410.6 "/>
<polygon fill="#F68C4E" stroke="#F68D4F" stroke-width="2" stroke-miterlimit="10" points="599.8,440.1 568,439.7 559.2,412.9 
	584.5,391.7 610,410.6 "/>
<polygon fill="none" stroke="#FBFEFF" stroke-width="1.4" stroke-linecap="round" stroke-linejoin="round" stroke-miterlimit="22.9256" points="
	604.5,227.2 594.4,227.2 590.5,186.8 598.8,186.8 607.1,186.8 "/>
<polygon fill="none" stroke="#FBFEFF" stroke-width="1.4" stroke-linecap="round" stroke-linejoin="round" stroke-miterlimit="22.9256" points="
	749.8,189.6 758.1,189.6 766.4,189.6 762.5,230.1 752.4,230.1 "/>
<path fill="none" stroke="#FBFEFF" stroke-width="1.4" stroke-linecap="round" stroke-linejoin="round" stroke-miterlimit="22.9256" d="
	M619.3,253h38.2v8.8h-32.8L619.3,253z M657.5,256.8c0,7.7,6.2,14,14,14s14-6.2,14-14c0-7.7-6.2-14-14-14S657.5,249.1,657.5,256.8z"
	/>
</svg>
