<?xml version="1.0" encoding="utf-8"?>
<!-- Generator: Adobe Illustrator 17.1.0, SVG Export Plug-In . SVG Version: 6.00 Build 0)  -->
<!DOCTYPE svg PUBLIC "-//W3C//DTD SVG 1.1//EN" "http://www.w3.org/Graphics/SVG/1.1/DTD/svg11.dtd">
<svg version="1.1" id="Слой_1" xmlns="http://www.w3.org/2000/svg" xmlns:xlink="http://www.w3.org/1999/xlink" x="0px" y="0px"
	 viewBox="0 0 785 560" enable-background="new 0 0 785 560" xml:space="preserve">
<g>
	<rect x="10.9" y="378" fill="none" stroke="#FFFFFF" stroke-width="2" stroke-miterlimit="10" width="87.8" height="175"/>
	<path fill="none" stroke="#FFFFFF" stroke-width="2" stroke-miterlimit="10" d="M24.2,410.1c0,0,11.7,10.7,61.7,0"/>
	<path fill="none" stroke="#FFFFFF" stroke-width="2" stroke-miterlimit="10" d="M25.7,431.6c0,0,11.7,10.7,61.7,0"/>
	<polygon fill="none" stroke="#FFFFFF" stroke-width="2" stroke-miterlimit="10" points="46.5,464.1 58.1,455.5 68.4,464.1 
		64.5,476 51.8,476 	"/>
</g>
<polygon fill="none" stroke="#FFFFFF" stroke-width="2" stroke-miterlimit="10" points="163,480 349.2,226 625.2,431.6 "/>
<polyline fill="none" stroke="#FFFFFF" stroke-miterlimit="10" points="163,480 367.1,378 625.2,431.6 "/>
<line fill="none" stroke="#FFFFFF" stroke-miterlimit="10" x1="349.2" y1="226" x2="367.1" y2="378"/>
<g>
	<rect x="376.7" y="10.7" fill="none" stroke="#FFFFFF" stroke-width="2" stroke-miterlimit="10" width="87.8" height="175"/>
	<path fill="none" stroke="#FFFFFF" stroke-width="2" stroke-miterlimit="10" d="M390,42.8c0,0,11.7,10.7,61.7,0"/>
	<path fill="none" stroke="#FFFFFF" stroke-width="2" stroke-miterlimit="10" d="M391.5,64.2c0,0,11.7,10.7,61.7,0"/>
	<polygon fill="none" stroke="#FFFFFF" stroke-width="2" stroke-miterlimit="10" points="412.3,96.9 423.9,88.2 434.2,97 430.3,109 
		417.6,109 	"/>
</g>
<g>
	<rect x="658.6" y="253.9" fill="none" stroke="#FFFFFF" stroke-width="2" stroke-miterlimit="10" width="115" height="230.2"/>
	<path fill="none" stroke="#FFFFFF" stroke-width="2" stroke-miterlimit="10" d="M676,296.2c0,0,15.4,14.1,80.9,0"/>
	<path fill="none" stroke="#FFFFFF" stroke-width="2" stroke-miterlimit="10" d="M678,324.4c0,0,15.4,14.1,80.9,0"/>
	<polygon fill="none" stroke="#FFFFFF" stroke-width="2" stroke-miterlimit="10" points="705.3,367.3 720.4,355.9 734,367.3 
		728.9,383 712.1,383 	"/>
</g>
<polygon fill="#EF8B45" stroke="#EF8B45" stroke-width="2" stroke-miterlimit="10" points="374,389.1 359.5,388.8 355.5,376.6 
	367,366.9 378.6,375.6 "/>
<polygon fill="#EF8B45" stroke="#EF8B45" stroke-width="2" stroke-miterlimit="10" points="356.1,237 341.6,236.8 337.6,224.6 
	349.2,214.9 360.8,223.6 "/>
<polygon fill="#EF8B45" stroke="#EF8B45" stroke-width="2" stroke-miterlimit="10" points="635.2,442.6 620.7,442.4 616.7,430.2 
	628.2,420.5 639.9,429.2 "/>
<polygon fill="#EF8B45" stroke="#EF8B45" stroke-width="2" stroke-miterlimit="10" points="169.9,491.1 155.4,490.9 151.4,478.7 
	163,469 174.6,477.6 "/>
</svg>
