<?xml version="1.0" encoding="utf-8"?>
<!-- Generator: Adobe Illustrator 17.1.0, SVG Export Plug-In . SVG Version: 6.00 Build 0)  -->
<!DOCTYPE svg PUBLIC "-//W3C//DTD SVG 1.1//EN" "http://www.w3.org/Graphics/SVG/1.1/DTD/svg11.dtd">
<svg version="1.1" xmlns="http://www.w3.org/2000/svg" xmlns:xlink="http://www.w3.org/1999/xlink" x="0px" y="0px"
	 viewBox="0 0 552.7 362.7" enable-background="new 0 0 552.7 362.7" xml:space="preserve">
<g id="Слой_2">
	<line fill="none" stroke="#49919B" stroke-width="5" stroke-miterlimit="10" x1="73.1" y1="284.1" x2="73.1" y2="284.1"/>
</g>
<g id="Слой_3">
	<path fill="none" stroke="#49919B" stroke-width="4" stroke-miterlimit="10" d="M173.8,302.3c-14.9-19.9-12.4-24.6-12.4-24.6
		s7.7-25.1-11.1-42.9c-18.8-17.8-44.8-17.9-44.8-17.9s-3.2-0.2-8.1,0.3c-4.1,0.4-9.4,1.3-15.2,3.2c4.6,1.2,9.7,3.1,14.9,5.8
		c2.5,1.3,4.9,2.8,7.3,4.5c2.1,1.5,4.2,3.2,6.2,5.1c18.8,17.8,11.1,42.9,11.1,42.9s-2.5,4.7,12.4,24.6c0,0,1.1,2.8,0.4,5.5
		c-0.5,1.7-1.6,3.3-4.2,4.2c-0.4,0.2-0.9,0.3-1.2,0.4c-5.4,1.2-4.3-4.4-4.8,9.3c-0.5,14.7,1.7,16.5-11.4,21c0,0-7,2.3-12.2,0
		c-5.2-2.3-6.1,12.2-6.1,12.2s-0.1,0.9-0.7,1.6h37.6c2.5,0,2.7-2.5,2.7-2.5s0.9-14.5,6.1-12.2c5.2,2.3,12.2,0,12.2,0
		c13.1-4.5,11-6.4,11.4-21s-0.8-7.2,6-9.7C176.8,309.6,173.8,302.3,173.8,302.3z"/>
	<path fill="none" stroke="#49919B" stroke-width="3" stroke-miterlimit="10" d="M97.4,217.1c-0.2,0-0.3,3.7-0.3,8.9"/>
	<line fill="none" stroke="#49919B" stroke-width="3" stroke-miterlimit="10" x1="104.4" y1="230.5" x2="104.4" y2="217.1"/>
	<line fill="none" stroke="#49919B" stroke-miterlimit="10" x1="141.3" y1="325.8" x2="129.1" y2="313.3"/>
	<line fill="none" stroke="#49919B" stroke-miterlimit="10" x1="146.7" y1="320.9" x2="134.5" y2="308.7"/>
	<circle fill="none" stroke="#49919B" stroke-miterlimit="10" cx="148.3" cy="327.4" r="6.6"/>
	<path fill="none" stroke="#49919B" stroke-width="3" stroke-miterlimit="10" d="M212.9,302c-14.9-19.9-12.4-24.6-12.4-24.6
		s7.7-25.1-11.1-42.9c-18.8-17.8-44.8-17.9-44.8-17.9s-3.2-0.2-8.1,0.3c-4.1,0.4-9.4,1.3-15.2,3.2c4.6,1.2,9.7,3.1,14.9,5.8
		c2.5,1.3,4.9,2.8,7.3,4.5c2.1,1.5,4.2,3.2,6.2,5.1c18.8,17.8,11.1,42.9,11.1,42.9s-2.5,4.7,12.4,24.6c0,0,1.1,2.8,0.4,5.5
		c-0.5,1.7-1.6,3.3-4.2,4.2c-0.4,0.2-0.9,0.3-1.2,0.4c-5.4,1.2-4.3-4.4-4.8,9.3c-0.5,14.7,1.7,16.5-11.4,21c0,0-7,2.3-12.2,0
		c-5.2-2.3-6.1,12.2-6.1,12.2s-0.1,0.9-0.7,1.6h37.6c2.5,0,2.7-2.5,2.7-2.5s0.9-14.5,6.1-12.2c5.2,2.3,12.2,0,12.2,0
		c13.1-4.5,11-6.4,11.4-21s-0.8-7.2,6-9.7C215.8,309.3,212.9,302,212.9,302z"/>
	<path fill="none" stroke="#49919B" stroke-width="3" stroke-miterlimit="10" d="M136.5,216.8c-0.2,0-0.3,3.7-0.3,8.9"/>
	<line fill="none" stroke="#49919B" stroke-width="3" stroke-miterlimit="10" x1="143.5" y1="230.2" x2="143.5" y2="216.8"/>
	<line fill="none" stroke="#49919B" stroke-miterlimit="10" x1="180.4" y1="325.5" x2="168.2" y2="313"/>
	<line fill="none" stroke="#49919B" stroke-miterlimit="10" x1="185.8" y1="320.6" x2="173.6" y2="308.4"/>
	<circle fill="none" stroke="#49919B" stroke-miterlimit="10" cx="187.3" cy="327.2" r="6.6"/>
</g>
<g id="Слой_1">
	<path fill="none" stroke="#49919B" stroke-width="5" stroke-miterlimit="10" d="M261.3,142H159c-27.3,0-49.3-19.2-49.3-42.9
		s22.1-42.9,49.3-42.9c6.1,0,11.9,1,17.3,2.7 M176.3,59c-1.9-23.7,11.9-45.8,34.2-52.2c25.8-7.5,53.1,8.7,61.1,36.2
		c2.1,7.3,2.7,14.7,1.8,21.7 M273.4,64.7c4-0.8,8.3-1.3,12.6-1.3c27.3,0,49.3,17.6,49.3,39.3c0,21.7-22.1,39.3-49.3,39.3"/>
	<path fill="none" stroke="#49919B" stroke-width="4" stroke-miterlimit="10" d="M176.1,142c-3.7,0.1-71.7,0-71.7,0v45.8"/>
	<path fill="none" stroke="#49919B" stroke-width="4" stroke-miterlimit="10" d="M290,142c3.7,0.2,71.7,0,71.7,0v72.7"/>
	<rect x="331.7" y="214.7" fill="none" stroke="#49919B" stroke-width="4" stroke-miterlimit="10" width="60" height="119.4"/>
	<rect x="410" y="214.7" fill="none" stroke="#49919B" stroke-width="4" stroke-miterlimit="10" width="60" height="119.4"/>
	<rect x="488.3" y="214.7" fill="none" stroke="#49919B" stroke-width="4" stroke-miterlimit="10" width="60" height="119.4"/>
	<path fill="none" stroke="#49919B" stroke-width="4" stroke-miterlimit="10" d="M342,238.3c0,0,13,6,43,0"/>
	<path fill="none" stroke="#49919B" stroke-width="4" stroke-miterlimit="10" d="M342,252.3c0,0,13,6,43,0"/>
	<path fill="none" stroke="#49919B" stroke-width="4" stroke-miterlimit="10" d="M418.5,237c0,0,13,6,43,0"/>
	<path fill="none" stroke="#49919B" stroke-width="4" stroke-miterlimit="10" d="M418.5,249.6c0,0,13,6,43,0"/>
	<path fill="none" stroke="#49919B" stroke-width="4" stroke-miterlimit="10" d="M496.8,237c0,0,13,6,43,0"/>
	<path fill="none" stroke="#49919B" stroke-width="4" stroke-miterlimit="10" d="M495,250.9c0,0,13,6,43,0"/>
	<line fill="none" stroke="#49919B" stroke-miterlimit="10" x1="72.2" y1="293.5" x2="102.7" y2="325.4"/>
	<path fill="none" stroke="#49919B" stroke-width="4" stroke-miterlimit="10" d="M82.3,220.2c-9.3-2.5-16.3-2.5-16.3-2.5
		S25.7,214.9,9,250.8s7.7,54.7,7.7,54.7s10.6,9,12.9,18.5c2.3,9.5-2.3,23.3-4.1,28.3c-1.8,5,4.7,6.1,4.7,6.1s59.2,0,61.7,0
		c1,0,1.6-0.4,2-0.9"/>
	<path fill="none" stroke="#49919B" stroke-width="3" stroke-miterlimit="10" d="M57.8,217c-0.8,0.1,0,48.6,0,45.9"/>
	<line fill="none" stroke="#49919B" stroke-width="3" stroke-miterlimit="10" x1="64.8" y1="218" x2="64.8" y2="263.9"/>
	<path fill="none" stroke="#49919B" stroke-miterlimit="10" d="M78.5,279.6c0,9.2-7.5,16.7-16.7,16.7s-16.7-6.5-16.7-15.7
		s7.5-17.7,16.7-17.7S78.5,270.4,78.5,279.6z"/>
	<path fill="none" stroke="#49919B" stroke-miterlimit="10" d="M74,279.6c0,6.7-5.4,12.2-12.2,12.2s-12.2-5.4-12.2-12.2
		c0-4.1,5.4-12.2,12.2-12.2S74,272.8,74,279.6z"/>
	<line fill="none" stroke="#49919B" stroke-miterlimit="10" x1="75.4" y1="290.1" x2="107.1" y2="321.7"/>
	<circle fill="none" stroke="#49919B" stroke-miterlimit="10" cx="108.6" cy="328.3" r="6.6"/>
	<polygon fill="#FF8C44" stroke="#49919B" stroke-width="2" stroke-miterlimit="10" points="66.3,286.8 56.8,286.6 54.2,278.7 
		61.8,272.3 69.4,278 	"/>
	<polygon fill="none" stroke="#49919B" stroke-width="2" stroke-miterlimit="10" points="368,281.6 358.6,281.5 355.9,273.5 
		363.5,267.2 371.1,272.8 	"/>
	<polygon fill="none" stroke="#49919B" stroke-width="2" stroke-miterlimit="10" points="444.5,281.6 435.1,281.5 432.4,273.5 
		440,267.2 447.6,272.8 	"/>
	<polygon fill="none" stroke="#49919B" stroke-width="2" stroke-miterlimit="10" points="524.9,281.6 515.4,281.5 512.8,273.5 
		520.3,267.2 527.9,272.8 	"/>
</g>
</svg>
