<?xml version="1.0" encoding="utf-8"?>
<!-- Generator: Adobe Illustrator 17.1.0, SVG Export Plug-In . SVG Version: 6.00 Build 0)  -->
<!DOCTYPE svg PUBLIC "-//W3C//DTD SVG 1.1//EN" "http://www.w3.org/Graphics/SVG/1.1/DTD/svg11.dtd">
<svg version="1.1" id="Слой_1" xmlns="http://www.w3.org/2000/svg" xmlns:xlink="http://www.w3.org/1999/xlink" x="0px" y="0px"
	 viewBox="0 0 317.1 318.6" enable-background="new 0 0 317.1 318.6" xml:space="preserve">
<path fill="none" stroke="#4A919B" stroke-width="4" stroke-linecap="round" stroke-linejoin="round" stroke-miterlimit="22.9256" d="
	M210.1,119.3c-8.2,28.3-30.4,48.9-51.5,50c-21.2-1-43.5-21.8-51.6-50.2l-4,0.6c-4.5,0.7-8.8-2.4-9.5-6.9l-3.9-25.2
	c-0.7-4.5,2.4-8.8,6.9-9.5l2.8-0.4c-1.3-3.9-2-8.1-2-12.5v-9.3c0-22.7,18.6-41.2,41.2-41.2h4.9c-0.1-0.8,0-1.5,0.3-2.2
	c2.5-6.7,19.4-6.5,37.8,0.5c3.9,1.5,7.5,3.1,10.8,4.9c14.9,6.2,25.4,21,25.4,38.1v9.3c0,4.4-0.7,8.6-1.9,12.5l2.8,0.4
	c4.5,0.7,7.6,5,6.9,9.5l-3.9,25.2c-0.7,4.5-5,7.6-9.5,6.9L210.1,119.3L210.1,119.3z"/>
<line fill="none" stroke="#4A919B" stroke-width="4" stroke-linecap="round" stroke-linejoin="round" stroke-miterlimit="22.9256" x1="255.8" y1="289.3" x2="211.2" y2="289.3"/>
<path fill="none" stroke="#4A919B" stroke-width="4" stroke-linecap="round" stroke-linejoin="round" stroke-miterlimit="22.9256" d="
	M13.1,314l-7.4-67.3v-7.1c0-15.7,15.9-24.8,29.2-27.5c12.1-2.5,57.5-12.3,72.2-22.5l0.9-0.1l26.6,124.7l16-82.3L137,197.1h43.6
	L167.1,232l15.5,82.3l27-124.7l0.9,0.1c14.7,10.2,60.1,20,72.2,22.5c13.3,2.7,29.2,11.8,29.2,27.5v7.1l-7.4,67.3"/>
</svg>
