<?xml version="1.0" encoding="utf-8"?>
<!-- Generator: Adobe Illustrator 17.1.0, SVG Export Plug-In . SVG Version: 6.00 Build 0)  -->
<!DOCTYPE svg PUBLIC "-//W3C//DTD SVG 1.1//EN" "http://www.w3.org/Graphics/SVG/1.1/DTD/svg11.dtd">
<svg version="1.1" id="content" xmlns="http://www.w3.org/2000/svg" xmlns:xlink="http://www.w3.org/1999/xlink" x="0px" y="0px"
	 viewBox="0 0 800 800" enable-background="new 0 0 800 800" xml:space="preserve">
<g>
	<g>
		<g>
			<path fill="#5A74B8" d="M411.2,492.5h-48.6c-4.2,0-7.6,3.4-7.6,7.6v99.4c0,4.2,3.4,7.6,7.6,7.6h76.2c4.2,0,7.6-3.4,7.6-7.6v-75.6
				L411.2,492.5z"/>
		</g>
		<g opacity="0.2">
			<polygon points="446.5,523.9 411.2,523.9 446.5,551.4 			"/>
		</g>
		<g opacity="0.4">
			<polygon fill="#FFFFFF" points="446.5,523.9 411.2,492.5 411.2,523.9 			"/>
		</g>
	</g>
</g>
<g>
	<path fill="#FFFFFF" d="M400.8,594.5c-14.4,0-26.1-11.7-26.1-26.1c0-14.4,11.7-26.1,26.1-26.1c14.4,0,26.1,11.7,26.1,26.1
		C426.9,582.8,415.2,594.5,400.8,594.5z M400.8,547.1c-11.7,0-21.3,9.5-21.3,21.3c0,11.7,9.5,21.3,21.3,21.3
		c11.7,0,21.3-9.5,21.3-21.3C422,556.7,412.5,547.1,400.8,547.1z"/>
	<g>
		<path fill-rule="evenodd" clip-rule="evenodd" fill="#FFFFFF" d="M391.4,549.4c0.9-0.7,1.1,0.4,1.1,0.6c0.2,1.2,0.1,1.2,1.2,1.5
			c0.2-0.7,0.1-1.6,1.3-1c0.3-1-0.7-1.3-1-2c-0.5,0.2-0.8-0.5-1.3-0.3c-0.4,0.1-0.7,0.1-1.1,0c-0.7,0.3-0.8,0.4-0.9,0.5
			c0,0.5-0.1,1.1-0.5,1.5C390.7,550.4,391,549.8,391.4,549.4z"/>
		<path fill-rule="evenodd" clip-rule="evenodd" fill="#FFFFFF" d="M391.3,588c0,0,0.1,0,0.1-0.1c0-0.6,0.2-1.1-0.1-1.7
			c-0.8-1.7,2-1.9,1.6-3.6c1.4,0.1,1.2-1.5,2-2c0.1-0.4-0.7-1.2,0.4-1.3c0.9-0.1,1.3-0.9,1.9-1.3c0-1-0.3-2.1,0.5-2.9
			c1.1-1.2,0.4-2.4-0.6-2.5c-2.4-0.3-3.3-2.7-5.2-3.7c-0.9-0.5-1.7-1.1-2.8-1.1c-0.5,0-0.8-0.2-1.1-0.4c-0.6,0.1-0.9,0.7-1.4,1.1
			c-0.5,0.8,0.1,2-0.9,2.6c-0.5,0.9-0.4,1.8,0,2.7c0.6,1.4,1.5,2.6,2.6,3.6c0.7,0.6,0.1,1.3,0.3,2c0.7,0.8,0.3,1.7,0.3,2.5
			c0.1,3.3,1,5.3,1,5.3S389.9,587.3,391.3,588z"/>
		<path fill="#FFFFFF" d="M400.8,546.2c-1.6,0-3.2,0.2-4.8,0.5c0.1,0,0.1,0.1,0.2,0.2c0,0,0,0,0,0c-1.1,0.1-0.2,0.6-0.1,0.6
			c1.1-0.1,1.1,0.6,1,1.4c0,0.9-0.7,1.8,0,2.6c0.5,0.6,1,0.5,1.4,0c0.7-0.6,1.5-1,2.3-1.5c0.9-0.5,2.1-0.3,2.7-1.3
			c0.5-0.8,1-1.6,1.6-2.1C403.7,546.4,402.3,546.2,400.8,546.2z M396.3,546.8c0.2-0.2,0.6-0.1,0.9-0.1
			C396.9,546.7,396.6,546.6,396.3,546.8z"/>
		<path fill="#FFFFFF" d="M420,567.7c0.2-0.8,1.1-0.4,1.5-0.9c0.4-0.2,0.8-0.5,1.2-0.7c-0.1-0.9-0.2-1.8-0.4-2.6
			c-0.8-0.1-0.8-1.1-1.3-1.6c-0.1-0.1,0-0.3,0.2-0.4c0.6-0.1,0.4,0.7,0.8,0.8c0,0,0.1,0,0.1,0c0,0,0,0,0,0c-1.3-4.9-4.3-9.1-8.3-12
			c0,0.1-0.1,0.2-0.1,0.3c-0.1,0.7,0.3,1.1,0.9,1.4c-0.7-0.2-1,0.9-1.6,0.8c0.1,0.9-0.6,0.6-1,0.7c0,0.2-0.1,0.2-0.3,0.3
			c-1.1,0.5-1.1-1-1.9-1c0.4,1.2-0.5,1.4-1.3,1.7c-0.3-0.6-0.6-1.1-1-1.7c-0.1-0.7-0.7-0.2-1-0.3c-0.2,0.7,1.2,1.2,0.3,2v0.7
			c0.3-0.2,0.7-0.1,1-0.1c-0.4,0.1-0.8,0-1.1,0.3c0.1,0.2,0.1,0.5,0.4,0.6c0.5-0.1,0.7,0.3,0.6,0.7c-0.1,0.5-0.6,0.5-1,0.5
			c-1,0.1-1.5,0.8-1,1.6c0.5,0.7,0.8,1.1-0.1,1.7c-0.6,0.4-0.2,1.7-1.3,1.6c-0.9,1.2-1,2.6-0.9,4.1c0,0.3,0.1,0.7-0.1,1
			c1.2,1.9,2.6,3.1,5.1,2.2c1.6-0.6,2.5,0.6,2.1,2.1c0,0.2,0,0.3,0,0.5c1.4,1.4,1.5,2.9,0.6,4.6c-0.1,0.5,0.5,0.9,0.4,1.4
			c0.6,1.3,0.8,2.8,1.2,4.2c0,0.2,0.1,0.4,0.4,0.4c1.8,0.1,3-0.7,3.8-2.3c0-0.8,1.2-1.1,0.9-1.7c-0.4-0.9,0.4-1.3,0.6-1.5
			c1.1-0.5,1.1-1.4,1-2.4c-0.3,0-0.3-0.2-0.3-0.4c-0.3-1.7,0.6-2.7,1.7-3.8c1.3-1.2,1.5-2,1.2-3C421.2,567.8,420.6,567.8,420,567.7z
			"/>
		<path fill-rule="evenodd" clip-rule="evenodd" fill="#FFFFFF" d="M421.5,575.3c-0.9,0.8-1.7,1.7-1.9,3c0,0.4,0,0.7,0.1,1
			C420.4,578.1,421,576.8,421.5,575.3C421.5,575.4,421.5,575.4,421.5,575.3z"/>
		<path fill-rule="evenodd" clip-rule="evenodd" fill="#FFFFFF" d="M403.6,550.9c0.4-0.2,1.1,0.4,1.1-0.4c0-0.6-0.7-0.3-1-0.3
			c-0.4,0-1.1-0.4-1.1,0.3C402.6,551.2,403.3,550.8,403.6,550.9z"/>
		<path fill-rule="evenodd" clip-rule="evenodd" fill="#FFFFFF" d="M394.9,555.5c-0.1-0.3-0.4-0.6-0.3-1c-0.1-0.3,0.5-0.5,0.2-0.6
			c-0.9-0.4-0.8-1.4-1.1-2c-0.5,0-1.1,0.8-1.1,0.6c0.2-1.4-1.2-0.7-1.5-1.3c0,0.3-0.3,0.4-0.4,0.5c0.1,1.4-1.3,1.8-1.9,2.9
			c-0.4-0.5,0-1.2-0.7-1.4c-0.6-0.2-1.5-0.3-1.4-1.1c0.1-0.6,1-0.8,1.6-1.2c0.4-0.2,0.8,0,1.2-0.2c0.1-0.5,0.2-0.8,0-1.4
			c0,0-0.1,0-0.1,0c-5.5,3.4-9.4,9.1-10.3,15.8c0.8,0.5,1.5,1.5,2.7,0.9c0.4,1.1,2.3,0.4,2.3,2c0.5,0.3,1.1,0.7,1.6,1
			c-0.8-0.8-1.1-1.8-1-3h-1.3c0.2-0.7,0.7-1.1,0.6-2c-0.9,0.4-1.8,2.3-2.8,0.3c0,0-0.1,0.1-0.1,0.1c0-0.1,0.1-0.2,0.1-0.3
			c0.4-2.1,1.2-2.7,3.3-2.8c1,0,1.3,0.8,1.5,1.6c0.2,0,0.4-0.2,0.3-0.4c-0.3-1.4,0.5-2.2,1.5-2.8c0.7-1.3,1.7-2.1,3-2.7
			c0.5-1,1.9,0.4,2.2-0.9c-0.2-0.3-1.1,0.3-0.9-0.6c0.1-0.8,0.6-0.3,1-0.4c0.2-0.1,0.4,0,0.6,0c0.3,0,0.3-0.5,0.6-0.7
			c-0.2,0.2-0.2,0.7-0.6,0.7c-0.1,0.2-0.1,0.4-0.2,0.7c0.5-0.2,0.9,0.4,1.4,0.2C394.9,556,394.9,555.7,394.9,555.5z M380.1,564.4
			C380.2,564.5,380.2,564.5,380.1,564.4c0.2,0.3,0.4,0.4,0.5,0.4C380.5,564.9,380.3,564.7,380.1,564.4z"/>
	</g>
</g>
</svg>
