<?xml version="1.0" encoding="utf-8"?>
<!-- Generator: Adobe Illustrator 17.1.0, SVG Export Plug-In . SVG Version: 6.00 Build 0)  -->
<!DOCTYPE svg PUBLIC "-//W3C//DTD SVG 1.1//EN" "http://www.w3.org/Graphics/SVG/1.1/DTD/svg11.dtd">
<svg version="1.1" id="Слой_1" xmlns="http://www.w3.org/2000/svg" xmlns:xlink="http://www.w3.org/1999/xlink" x="0px" y="0px"
	 viewBox="0 0 161.4 378.5" enable-background="new 0 0 161.4 378.5" xml:space="preserve">
<g>
	<defs>
		<rect id="SVGID_1_" width="161.4" height="378.5"/>
	</defs>
	<clipPath id="SVGID_2_">
		<use xlink:href="#SVGID_1_"  overflow="visible"/>
	</clipPath>
	<g clip-path="url(#SVGID_2_)">
		<defs>
			<path id="SVGID_3_" d="M77,233.3l9,2.5L83.8,252c0,0-7.6,44.3-7.1,47.4c0.5,3.1,10,6.1,14,8.4c4.1,2.4,33.2,48.2,33.2,48.2
				s1.3-0.1,1.6,0.3c0.2,0.4-3.2,5.6-3.2,5.6l-1.4-1.9c0,0-54.1-57.6-55.5-60.4c-1.4-2.8-2.9-71.5-2.9-71.5L77,233.3z"/>
		</defs>
		<clipPath id="SVGID_4_">
			<use xlink:href="#SVGID_3_"  overflow="visible"/>
		</clipPath>
		
			<linearGradient id="SVGID_5_" gradientUnits="userSpaceOnUse" x1="1.818989e-012" y1="378.5714" x2="1" y2="378.5714" gradientTransform="matrix(-14.3663 -96.6425 96.6425 -14.3663 -36491.3594 5738.1606)">
			<stop  offset="0" style="stop-color:#B6A28B"/>
			<stop  offset="1" style="stop-color:#8F8169"/>
		</linearGradient>
		<polygon clip-path="url(#SVGID_4_)" fill="url(#SVGID_5_)" points="145.1,359.1 124.3,219.1 43,231.2 63.8,371.2 		"/>
	</g>
	<g clip-path="url(#SVGID_2_)">
		<defs>
			<path id="SVGID_6_" d="M111.2,234.3l-1.3,28.9c0,0-7.2,31.1-10.2,35.4c-2.9,4.3-2.7,4.4-2.7,5.5c0,1.1,4.8,19.4,3.9,23.7
				c-0.9,4.3-10.6,44-10.6,44l0,1.4l-3.2,0.1L85.3,252l-2.2,0l1.4-16.6l1.8,1l5.4-2.6L111.2,234.3z"/>
		</defs>
		<clipPath id="SVGID_7_">
			<use xlink:href="#SVGID_6_"  overflow="visible"/>
		</clipPath>
		
			<linearGradient id="SVGID_8_" gradientUnits="userSpaceOnUse" x1="9.094947e-013" y1="378.5132" x2="1" y2="378.5132" gradientTransform="matrix(-13.6377 -91.741 91.741 -13.6377 -34628.2031 5464.5728)">
			<stop  offset="0" style="stop-color:#B6A28B"/>
			<stop  offset="1" style="stop-color:#8F8169"/>
		</linearGradient>
		<polygon clip-path="url(#SVGID_7_)" fill="url(#SVGID_8_)" points="131.5,370.3 110.6,229.7 62.8,236.8 83.7,377.4 		"/>
	</g>
	<g clip-path="url(#SVGID_2_)">
		<defs>
			<rect id="SVGID_9_" width="161.4" height="378.5"/>
		</defs>
		<clipPath id="SVGID_10_">
			<use xlink:href="#SVGID_9_"  overflow="visible"/>
		</clipPath>
		<path clip-path="url(#SVGID_10_)" fill="#ECB584" d="M9.4,95.3c0,0-6.3,48.5,0.4,71.1c6.7,22.6,23.9-11.3,23.9-11.3
			s-9.4-34.3-10-61.3L9.4,95.3z"/>
		<path clip-path="url(#SVGID_10_)" fill="#ECB584" d="M14.9,85.6c2.2-2.3,5.7-2,8.8-2.5c0.1,0.1,0.2,0.1,0.3,0.2
			c0,0-0.6,8.1-0.2,13.4c0.2,2.5-7.9,0.2-12.6-0.6C9.6,92.6,10.6,88.9,14.9,85.6"/>
		<path clip-path="url(#SVGID_10_)" fill="#DB9769" d="M11.5,84.5c-0.1-0.8,10-2.6,12.2-1.4c-3.2,0.4-6.6,0.2-8.8,2.5
			c-4.3,3.4-2.9,6.5-4.2,12.6c-1.7-0.3-1.4-2.9-1.4-2.9S11.6,85.3,11.5,84.5"/>
		<path clip-path="url(#SVGID_10_)" fill="#ECB584" d="M17.5,40.1c0.1-0.2,0.6-0.1,1.1,0c-1.4,2.1-2.3,4.4-2.8,6.8
			C16.3,43.5,17.1,40.6,17.5,40.1"/>
		<path clip-path="url(#SVGID_10_)" fill="#ECB584" d="M15.5,50.2c0.1-1.1,0.2-2.2,0.4-3.3c0.5-2.4,1.4-4.7,2.8-6.8
			c2,0.6,6,2.8,6,2.8c-4.4,14.3-1.5,23.7-1.5,23.7l3.1,2c0,0,0.1,0.5,0.3,1.2c0,0-0.1,0-0.1,0C19.4,65.9,15.2,58,15.5,50.2"/>
		<path clip-path="url(#SVGID_10_)" fill="#DB9769" d="M12.5,63.1c0,0,4.1-0.2,4.7-0.7c0.6-0.4-1.3-2.4-1.8-8.1
			c-0.1-1.3-0.1-2.7,0-4.1c-0.2,7.8,3.9,15.8,10.8,19.7c0,0,0.1,0,0.1,0C27,72.1,28,76.8,27.7,80c-0.5,4.3-10.7,4.4-10.7,4.4
			c-8.8,3.7-12.1-4-12.1-4l-2.7-6L12.5,63.1z"/>
		<path clip-path="url(#SVGID_10_)" fill="#ECB584" d="M23.1,66.7c0,0-6.5-2.6-6.9-2.5c-0.3,0.1-2.8,3.4-0.2,10l2.3,0.6l1.5-3.5
			l-1.2,4.4c0,0-3.3,1.9-2.7,4.7c0.7,2.7,3.4,4.1,3.4,4.1s7.9-0.6,8.4-4.3c0.5-3.7-1.5-11.3-1.5-11.3L23.1,66.7z"/>
		<path clip-path="url(#SVGID_10_)" fill="#ECB584" d="M13.2,62.8c0,0-0.6,9.2,1.2,12.2c0,0,0,2.2-3.9,3c0,0-6.4-5.3-5.1-14.4
			C5.3,63.6,8.9,61.8,13.2,62.8"/>
		<path clip-path="url(#SVGID_10_)" fill="#ECB584" d="M0.8,68.2c0,0,0.2,8.9,6.4,11.8c0,0,2.9-1.3,2.8-2.4
			c-0.1-1.1-4.8-12.3-4.8-12.3S2.8,65.6,0.8,68.2"/>
		<path clip-path="url(#SVGID_10_)" fill="#ECB584" d="M1.6,69.7l-1.4,1.1c0,0-1.4,5.7,4.7,10.9c0,0,1.9-0.5,2.3-1.7
			C7.6,78.9,1.6,69.7,1.6,69.7"/>
		<path clip-path="url(#SVGID_10_)" fill="#DB9769" d="M5.2,65.3c0,0,0,6.4,4.8,12.3c0,0-3.6-2.6-4.3-6.5
			C4.8,67.1,5.2,65.3,5.2,65.3"/>
		<path clip-path="url(#SVGID_10_)" fill="#DB9769" d="M1,70.5c0,0,1,6.9,6.1,9.5C7.2,80,2.6,79.3,1,70.5"/>
		<path clip-path="url(#SVGID_10_)" fill="#DB9769" d="M12.8,88.2c0,0-6.2,36.3-6.1,45.6c0,0,1.1-43.8,3.3-48.7
			C12.1,80.3,12.8,88.2,12.8,88.2"/>
		<path clip-path="url(#SVGID_10_)" fill="#C68960" d="M93.4,123c6.7-8.1,14.3-14.9,22-21.4c-4.3,6.4-21.8,32.6-22.2,32.3
			c-0.6-0.4-10.7-5.8-10.7-5.8L81.2,101l-1-6C85.2,103.9,90.1,113,93.4,123"/>
		<path clip-path="url(#SVGID_10_)" fill="#DB9769" d="M88.4,92.2c9.4,5.8,21.5,4.7,28.8-2.7l-0.8,10.6c0,0-0.3,0.5-0.9,1.4
			c-7.8,6.5-13.7,15.5-21.5,22.8c-3.4-9.9-8.8-20.4-13.8-29.3l-0.1-0.5l1.5-11.1C83,86.9,85.1,90.1,88.4,92.2"/>
		<path clip-path="url(#SVGID_10_)" fill="#596F92" d="M109.7,109.8c3.5-4.7,7.1-14.1,7.1-14.1l1,6.6l-2.5,21.8
			c0,0-23,55.3-28.4,56.4c-0.1,0-8.4-31.6-11.7-55.3C75,124.5,76.2,91,76.2,98l4.7-9c0,0,0.2,11,3.1,18.8c1.4,6.6,9.1,21.8,9.1,21.8
			S106.2,114.5,109.7,109.8"/>
		<path clip-path="url(#SVGID_10_)" fill="#C68960" d="M88.4,92.2c-3.3-2.1-5.4-5.3-6.7-8.9l0.4-2.9l35.4,5.6l-0.3,3.4
			C109.9,96.9,97.8,98.1,88.4,92.2"/>
		<path clip-path="url(#SVGID_10_)" fill="#354969" d="M93.1,129.6l-6,50.8C87.2,180.4,89.7,139.9,93.1,129.6"/>
		<path clip-path="url(#SVGID_10_)" fill="#DB9769" d="M139.2,216.5c-2.9,1.6-5.4,3.8-7.7,6.2c2.9-5.1,5.3-10.4,6.2-15.6
			c3.5-18.7,22.5,4.1,22.5,4.1s-0.9,3-4.1,8.1C149.9,220.7,144.6,212.9,139.2,216.5"/>
		<path clip-path="url(#SVGID_10_)" fill="#ECB584" d="M131.5,222.7c2.3-2.4,4.8-4.6,7.7-6.2c5.3-3.6,10.7,4.1,16.9,2.9
			c-5.3,8.4-16.9,22.6-41,38.9l-3.9-9.8C111.2,248.5,123.5,236.6,131.5,222.7"/>
		<path clip-path="url(#SVGID_10_)" fill="#354969" d="M84.3,231.2c0.9,0,0-3.7-0.9-5.5c5.5,8.2,16.5,10.1,24.7,5.5
			c1.8-1.2,3.7-2.9,4.7-4.9c-0.3,1.8-1.2,6.3-1.2,6.3c-27.1,8.8-49.2-0.4-49.2-0.4l-2-7l0.6-0.8C65.1,232,76.6,235.7,84.3,231.2"/>
		<path clip-path="url(#SVGID_10_)" fill="#354969" d="M110.8,213.4c-0.6,3.6-1,6.2-0.9,6.6c0.2,0.7,1,1.9,1.8,3.1
			c-1.8-1.8-3.6-3.8-6.3-3.8C108,217.8,109.7,215.7,110.8,213.4"/>
		<path clip-path="url(#SVGID_10_)" fill="#354969" d="M62.8,221.7l0.7-1v-19.9c0.4,7.1,1.5,14.2,3.4,21.3
			C65.1,221.3,63.8,221.3,62.8,221.7"/>
		<path clip-path="url(#SVGID_10_)" fill="#596F92" d="M31,150.3L41.4,124l35.8-27.9l13.8,56.9l26.7-50.6l35,37.2l7.4,71.7
			c-3.4,4.4-22.5-4.1-22.5-4.1l-12.1-37.4l-9.3,14.1c0,0-1.9,9.8-3.7,19.1c0-2,0-3.9,0-5.7c0,1.8,0.1,3.7,0,5.7
			c-0.7,3.7-1.4,7.4-1.9,10.4c-1.1,2.3,0,3.3-2.3,5.6c1.3,1,1.3,2.3,3.1,4.1c0.7,1,1.3,2.1,1.2,2.6c0,0.1,0,0.3-0.1,0.5
			c-1,2.1-2.9,3.7-4.7,4.9c-8.2,4.6-19.2,2.7-24.7-5.5c0.9,1.8,1.8,5.5,0.9,5.5c-7.7,4.6-19.1,0.9-23.2-6.9l1.8-2.5
			c1-0.4,0.7-1,1.8-1.8c-1.9-7.1-0.6-12.1-1.1-19.2v-24.2l-6.6-13.4C38.6,199.4,23,195.5,23,195.5c-11.3-5.6-14.2-32.1-14.2-32.1
			C14.9,172,31,150.3,31,150.3"/>
		<path clip-path="url(#SVGID_10_)" fill="#7E6D64" d="M85.4,237.2c-1.2-0.2-2.5-0.4-3.7-0.6l0.2-0.2c0.1,1.1,0.1,2.2,0.2,3.3
			l0.1,3.3l0.2,6.7l-0.1-0.2c0.6,0.7,1.2,1.5,1.8,2.2l-0.3-0.1l1.6,0L85,252l0-3.7c0-1.2,0.1-2.5,0.1-3.7c0-1.2,0.1-2.5,0.1-3.7
			C85.3,239.6,85.3,238.4,85.4,237.2 M85.4,237.2c0.1,1.2,0.1,2.5,0.1,3.7c0,1.2,0.1,2.5,0.1,3.7c0,1.2,0.1,2.5,0.1,3.7l0,3.7l0,0.3
			l-0.3,0l-1.6,0l-0.2,0l-0.1-0.1c-0.6-0.7-1.2-1.4-1.8-2.2l-0.1-0.1l0-0.1l-0.1-6.7l0-3.3c0-1.1,0-2.2,0-3.4l0-0.2l0.2,0
			C83,236.6,84.2,236.9,85.4,237.2"/>
		<path clip-path="url(#SVGID_10_)" fill="#4A3123" d="M87.3,373.3l-1.6,3.4l0,1.8l7-0.1c0,0,0.7-1.5,0-1.8
			c-0.7-0.3-2.2-3.3-2.2-3.3L87.3,373.3z"/>
		<path clip-path="url(#SVGID_10_)" fill="#4A3123" d="M123.9,356.1c0,0,0.7,2.6-2.6,4.7c0,0-0.4,10.1-0.4,12.3
			c0,2.2-2.2,1.6-3.6,2.2c-1.4,0.6-0.5,2.6-0.5,2.6l5.8-0.1l4.7-12.4l-1.1-4l2,0.6l0.9-3.2C129.2,358.7,126.8,355.6,123.9,356.1"/>
		<polygon clip-path="url(#SVGID_10_)" fill="#ECB584" points="111.2,248.5 104.6,250.9 110.7,262 115.1,258.3 		"/>
		<path clip-path="url(#SVGID_10_)" fill="#ECB584" d="M86.2,49.3c0-0.5-3.3-8.1-7.1-5.6c-3.7,2.5-4,12.9,3.8,14.1
			C90.6,59,86.2,49.3,86.2,49.3"/>
		<path clip-path="url(#SVGID_10_)" fill="#DB9769" d="M83.6,47.8c-0.1-0.2-2.6-2.8-3.7-2.6c-1.1,0.2-4.4,4.8-0.9,8.2
			c3.4,3.4,3.5-0.2,2.1-2.4C79.7,48.7,84.5,50,83.6,47.8"/>
		<path clip-path="url(#SVGID_10_)" fill="#DB9769" d="M120.9,52.5c0,0,5-5.5,8-1.5c3,4,2.3,8.5-7.2,11.5
			C112.2,65.4,120.9,52.5,120.9,52.5"/>
		<path clip-path="url(#SVGID_10_)" fill="#B5673B" d="M122.9,52.9c0,0,4.1-3,5-0.8c0.9,2.2,1.6,5-2,7.2c-3.6,2.2-2.9-0.1-1.3-2.1
			c1.6-2,1.6-4.4-0.3-2.9C122.4,55.8,122.2,53.3,122.9,52.9"/>
		<path clip-path="url(#SVGID_10_)" fill="#DB9769" d="M125,35.6c0,0-4.3,15.1-2.1,24.4c2.2,9.3-31.6,13-32.1,13
			c-0.5,0-9.7-12.2-9.7-12.2l0.4-6.2c0,0,5.9-11,4.9-27.4c-0.9-16.4,16.4-9.9,16.4-9.9l21.5,9.1l3.1,2.6L125,35.6z"/>
		<path clip-path="url(#SVGID_10_)" fill="#ECB584" d="M81.5,54.6c0,0,5.9-11,4.9-27.4c-0.9-16.4,16.4-9.9,16.4-9.9l5.5,2.3
			c-1.3,3.6-2.4,7.2-2.4,7.2s6.3-1.3,5.1,1c-1.2,2.4-2,5.1-2,5.1l-2.2,13l-0.2,6.7l-0.1,1.9l1.6,2.6l3.1,1.8l-4.4,3l-5.8-0.4
			l0.8,3.4l13.5,2.8c-9.4,3.7-24.2,5.3-24.5,5.3c-0.5,0-9.7-12.2-9.7-12.2L81.5,54.6z"/>
		<path clip-path="url(#SVGID_10_)" fill="#DB9769" d="M107.3,47.3c0,0-4.3-1.2-4.9-0.5c0,0-4.5,11.4-14.3,2.2l3.9,2.1l2.4,0.4
			l2.1-0.5l2.8-1.4l2.4-3.9l2.2-1l3.5,1.3L107.3,47.3z"/>
		<path clip-path="url(#SVGID_10_)" fill="#5B3617" d="M123.2,59.3c0,0,6.2,11.7,0.5,22.6c-5.8,10.9-18.8,12.6-26.4,11.4
			c-7.6-1.2-17.8-6.6-20.4-17.8c-2.7-11.2,4.7-21,4.7-21l4.8,10.1l20.3,0.9L123.2,59.3z"/>
		<path clip-path="url(#SVGID_10_)" fill="#5B3617" d="M109.5,29.7c0,0-0.9,6.8-0.3,7.7c0.7,0.9,13.1,1.6,13.1,1.6l0-4.7
			c0,0-11.4-2.8-11.8-3.5C110.2,30,109.5,29.7,109.5,29.7"/>
	</g>
	<g clip-path="url(#SVGID_2_)">
		<defs>
			<path id="SVGID_11_" d="M107.2,53.1c0,4.7,5.5,6.5,5.5,6.5c-11.5,8.4-18-2-18-2c8.1,7.1,15.9,1.5,15.9,1.5s-2.7-1.3-4-4.6
				c-1.3-3.3,2.5-22.1,2.5-22.1C107.1,46.9,107.2,48.4,107.2,53.1"/>
		</defs>
		<clipPath id="SVGID_12_">
			<use xlink:href="#SVGID_11_"  overflow="visible"/>
		</clipPath>
		
			<linearGradient id="SVGID_13_" gradientUnits="userSpaceOnUse" x1="0" y1="378.3957" x2="1" y2="378.3957" gradientTransform="matrix(-17.9807 0.3705 -0.3705 -17.9807 252.6691 6853.8613)">
			<stop  offset="0" style="stop-color:#B5673B"/>
			<stop  offset="1" style="stop-color:#4F1306"/>
		</linearGradient>
		<polygon clip-path="url(#SVGID_12_)" fill="url(#SVGID_13_)" points="112.7,32.1 93.9,32.5 94.7,68.4 113.4,68 		"/>
	</g>
	<g clip-path="url(#SVGID_2_)">
		<defs>
			<rect id="SVGID_14_" width="161.4" height="378.5"/>
		</defs>
		<clipPath id="SVGID_15_">
			<use xlink:href="#SVGID_14_"  overflow="visible"/>
		</clipPath>
		<path clip-path="url(#SVGID_15_)" fill="#78461B" d="M104.5,19.9c0,0.7,0.8,2.2-0.7,2.2c-5.1,0.8-10.3-2-11.9-6.4
			c-0.2-0.5-0.3-0.9-0.5-1.4c6.8-2.4,15.8-9.7,14.1-14.4c0,0,14.8,6.2,22.1,16.9c-0.2,1-0.5,2-1.1,2.6
			C121.5,25.5,111.9,23.5,104.5,19.9"/>
		<path clip-path="url(#SVGID_15_)" fill="#5B3617" d="M90.9,14.6c0.2-0.1,0.4-0.1,0.6-0.2c0.1,0.5,0.3,1,0.5,1.4
			c1.6,4.4,6.8,7.2,11.9,6.4c1.5,0,0.7-1.5,0.7-2.2c7.4,3.5,17,5.5,22-0.5c0.6-0.6,1-1.5,1.1-2.6c1.5,2.3,2.8,4.8,3.4,7.5
			c0,0-0.2,7.6-6,11.1c0,0,1.7-6.8-0.2-8c-1.9-1.2-12.5-3-19-0.8c0,0-13.6-5.1-15-4.8c-1.4,0.3-4.5,4.1-4.5,5.2l-2.6-5.1
			C83.9,22.1,84,16.8,90.9,14.6"/>
		<g opacity="0.69" clip-path="url(#SVGID_15_)">
			<g>
				<defs>
					<rect id="SVGID_16_" x="110.9" y="40.1" width="11.6" height="4.4"/>
				</defs>
				<clipPath id="SVGID_17_">
					<use xlink:href="#SVGID_16_"  overflow="visible"/>
				</clipPath>
				<path clip-path="url(#SVGID_17_)" fill="#E5F3FF" d="M112.6,41l2.5-0.8l2.6-0.1L120,41l1.6,0.9c0,0.1,0.5,1.5,0.9,2.6
					c-3.8-0.8-8-1-11.6-2.3L112.6,41z"/>
			</g>
		</g>
		<g opacity="0.69" clip-path="url(#SVGID_15_)">
			<g>
				<defs>
					<rect id="SVGID_18_" x="110.6" y="42.2" width="12.2" height="2.8"/>
				</defs>
				<clipPath id="SVGID_19_">
					<use xlink:href="#SVGID_18_"  overflow="visible"/>
				</clipPath>
				<path clip-path="url(#SVGID_19_)" fill="#FFFFFF" d="M110.7,42.3l0.2-0.1c3.6,1.2,7.8,1.4,11.6,2.3c0.1,0.2,0.1,0.4,0.2,0.5
					c-4.1-1.3-8.1-1.7-12.2-2.2L110.7,42.3z"/>
			</g>
		</g>
		<g opacity="0.69" clip-path="url(#SVGID_15_)">
			<g>
				<defs>
					<rect id="SVGID_20_" x="109.3" y="44.8" width="14.3" height="4.5"/>
				</defs>
				<clipPath id="SVGID_21_">
					<use xlink:href="#SVGID_20_"  overflow="visible"/>
				</clipPath>
				<path clip-path="url(#SVGID_21_)" fill="#FFFFFF" d="M109.8,44.8c4.5,1,9.2,1.9,13.6,3l0.2,1.1c0,0-0.1,0.2-0.3,0.4
					c-4.5-0.8-9.4-1.9-14-2.8L109.8,44.8z"/>
			</g>
		</g>
		<g opacity="0.69" clip-path="url(#SVGID_15_)">
			<g>
				<defs>
					<rect id="SVGID_22_" x="108.9" y="46.5" width="14.4" height="8.3"/>
				</defs>
				<clipPath id="SVGID_23_">
					<use xlink:href="#SVGID_22_"  overflow="visible"/>
				</clipPath>
				<path clip-path="url(#SVGID_23_)" fill="#E5F3FF" d="M123.3,49.3c-0.5,0.8-1.6,2.6-1.5,2.6c0.1,0.1-2.5,2.2-2.5,2.2l-3.7,0.7
					l-2.8-0.9c0,0-2.2-1.9-2.2-2c-0.1-0.1-1.7-3.8-1.7-3.8l0.4-1.5C113.9,47.4,118.8,48.5,123.3,49.3"/>
			</g>
		</g>
		<g opacity="0.69" clip-path="url(#SVGID_15_)">
			<g>
				<defs>
					<rect id="SVGID_24_" x="109.8" y="42.8" width="13.6" height="5"/>
				</defs>
				<clipPath id="SVGID_25_">
					<use xlink:href="#SVGID_24_"  overflow="visible"/>
				</clipPath>
				<path clip-path="url(#SVGID_25_)" fill="#E5F3FF" d="M109.9,44.6l0.7-1.8c4,0.4,8.1,0.8,12.2,2.2c0.2,0.4,0.3,0.7,0.3,0.7
					l0.4,2.2c-4.4-1.1-9.1-2-13.6-3L109.9,44.6z"/>
			</g>
		</g>
		<g opacity="0.69" clip-path="url(#SVGID_15_)">
			<g>
				<defs>
					<rect id="SVGID_26_" x="89.1" y="37.5" width="11.6" height="4.4"/>
				</defs>
				<clipPath id="SVGID_27_">
					<use xlink:href="#SVGID_26_"  overflow="visible"/>
				</clipPath>
				<path clip-path="url(#SVGID_27_)" fill="#E5F3FF" d="M90.8,38.3l2.5-0.8l2.6-0.1l2.3,0.9l1.6,0.9c0,0.1,0.5,1.5,0.9,2.6
					c-3.8-0.8-8-1-11.6-2.3L90.8,38.3z"/>
			</g>
		</g>
		<g opacity="0.69" clip-path="url(#SVGID_15_)">
			<g>
				<defs>
					<rect id="SVGID_28_" x="88.8" y="39.6" width="12.2" height="2.8"/>
				</defs>
				<clipPath id="SVGID_29_">
					<use xlink:href="#SVGID_28_"  overflow="visible"/>
				</clipPath>
				<path clip-path="url(#SVGID_29_)" fill="#FFFFFF" d="M88.9,39.7l0.2-0.1c3.6,1.2,7.8,1.4,11.6,2.3c0.1,0.2,0.1,0.4,0.2,0.5
					c-4.1-1.3-8.1-1.7-12.2-2.2L88.9,39.7z"/>
			</g>
		</g>
		<g opacity="0.69" clip-path="url(#SVGID_15_)">
			<g>
				<defs>
					<rect id="SVGID_30_" x="87.5" y="42.2" width="14.3" height="4.5"/>
				</defs>
				<clipPath id="SVGID_31_">
					<use xlink:href="#SVGID_30_"  overflow="visible"/>
				</clipPath>
				<path clip-path="url(#SVGID_31_)" fill="#FFFFFF" d="M88,42.2c4.5,1,9.2,1.9,13.6,3l0.2,1.1c0,0-0.1,0.2-0.3,0.4
					c-4.5-0.8-9.4-1.9-14-2.8L88,42.2z"/>
			</g>
		</g>
		<g opacity="0.69" clip-path="url(#SVGID_15_)">
			<g>
				<defs>
					<rect id="SVGID_32_" x="87.1" y="43.9" width="14.4" height="8.3"/>
				</defs>
				<clipPath id="SVGID_33_">
					<use xlink:href="#SVGID_32_"  overflow="visible"/>
				</clipPath>
				<path clip-path="url(#SVGID_33_)" fill="#E5F3FF" d="M101.5,46.7c-0.5,0.8-1.6,2.6-1.5,2.6c0.1,0.1-2.5,2.2-2.5,2.2l-3.7,0.7
					l-2.8-0.9c0,0-2.2-1.9-2.2-2c-0.1-0.1-1.7-3.8-1.7-3.8l0.4-1.5C92.1,44.8,97,45.9,101.5,46.7"/>
			</g>
		</g>
		<g opacity="0.69" clip-path="url(#SVGID_15_)">
			<g>
				<defs>
					<rect id="SVGID_34_" x="88" y="40.2" width="13.6" height="5"/>
				</defs>
				<clipPath id="SVGID_35_">
					<use xlink:href="#SVGID_34_"  overflow="visible"/>
				</clipPath>
				<path clip-path="url(#SVGID_35_)" fill="#E5F3FF" d="M88.1,41.9l0.7-1.8c4,0.4,8.1,0.8,12.2,2.2c0.2,0.4,0.3,0.7,0.3,0.7
					l0.4,2.2c-4.4-1.1-9.1-2-13.6-3L88.1,41.9z"/>
			</g>
		</g>
		<path clip-path="url(#SVGID_15_)" fill="#5B3617" d="M87,42.3c-0.2,0.7-0.3,1.5-0.3,2.3c0.1,4.3,3.6,7.6,7.9,7.5
			c3.7-0.1,6.8-2.8,7.4-6.3c3.2-1,5.8,0.7,6.5,1.3c0,0.2,0,0.3,0,0.5c0.1,4.2,3.6,7.6,7.9,7.5c4.3-0.1,7.6-3.6,7.5-7.9c0,0,0,0,0,0
			l2.4-2.5l-3.3-1.1c-1.3-2.4-3.9-4-6.9-3.9c-3.7,0.1-6.7,2.7-7.4,6.1c-1.2-0.8-3.6-1.9-6.6-1.2c0-0.1,0-0.2,0-0.4
			c-0.1-4.2-3.6-7.6-7.9-7.5c-2.1,0-4.1,1-5.4,2.4c-1.2-0.1-3.5-0.1-3.5-0.1L87,42.3z M116.3,54.1c-3.6,0.1-6.7-2.8-6.7-6.5
			c-0.1-3.6,2.8-6.7,6.5-6.7c3.6-0.1,6.7,2.8,6.7,6.5C122.9,51,120,54,116.3,54.1 M94.5,51.1c-3.6,0.1-6.7-2.8-6.7-6.5
			c-0.1-3.6,2.8-6.7,6.5-6.7c3.6-0.1,6.7,2.8,6.7,6.5C101.1,48,98.2,51,94.5,51.1"/>
		<path clip-path="url(#SVGID_15_)" fill="#5B3617" d="M118.5,45.7c0,0-2-2.1-2.9-1c-0.9,1-1.6,5.5,0.2,5.6c1.8,0.1,1.7-4.5,1.7-4.5
			L118.5,45.7z"/>
		<path clip-path="url(#SVGID_15_)" fill="#5B3617" d="M96.3,42.9c0,0-2-2-2.9-1c-0.9,1-1.6,5.5,0.2,5.6c1.8,0.1,1.7-4.5,1.7-4.5
			L96.3,42.9z"/>
		<path clip-path="url(#SVGID_15_)" fill="#907D73" d="M110.7,262c0-0.1-6.6-10.5-6.4-15.4c0,0-2,2.2,5.7,16.6L110.7,262z"/>
		<path clip-path="url(#SVGID_15_)" fill="#F2D2A9" d="M105.8,58.2c0.1,0.2,0.1,0.4-0.1,0.5c-0.1,0-0.2,0.1-0.2,0.1
			c-0.5,0.1-1,0.1-1.6,0.2c-0.6,0-1.1,0-1.7-0.1c-1.7-0.4-1.7-1.7,0-2C103.4,56.7,105.4,57,105.8,58.2"/>
		<path clip-path="url(#SVGID_15_)" fill="#4C2E14" d="M105.6,0c0,0,0.5,0.4,1.2,1c0.8,0.6,1.9,1.5,3.2,2.6c1.3,1.1,2.8,2.4,4.4,3.8
			c1.6,1.4,3.3,3,4.8,4.6c0.8,0.8,1.6,1.7,2.3,2.5c0.7,0.9,1.4,1.7,2,2.6c0.3,0.4,0.6,0.9,0.8,1.3c0.2,0.4,0.5,0.9,0.7,1.3
			c0.2,0.4,0.4,0.9,0.5,1.3c0.1,0.2,0.1,0.4,0.2,0.6c0.1,0.2,0.1,0.4,0.1,0.6c0.1,0.4,0.1,0.8,0.2,1.2c0.1,0.4,0,0.7,0,1.1
			c-0.1,0.7-0.2,1.3-0.5,1.7c-0.2,0.5-0.4,0.8-0.6,1c-0.1,0.2-0.2,0.3-0.2,0.3s0.1-0.1,0.3-0.3c0.2-0.2,0.5-0.5,0.7-1
			c0.3-0.4,0.5-1,0.6-1.7c0.1-0.7,0.2-1.5,0-2.4c0-0.2-0.1-0.4-0.1-0.7c-0.1-0.2-0.1-0.4-0.2-0.7c-0.1-0.5-0.3-0.9-0.5-1.4
			c-0.2-0.5-0.4-0.9-0.7-1.4c-0.3-0.5-0.5-0.9-0.8-1.4c-0.6-0.9-1.3-1.8-2-2.7c-0.7-0.9-1.5-1.7-2.3-2.6c-1.6-1.7-3.3-3.2-4.9-4.6
			c-1.6-1.4-3.2-2.6-4.6-3.6c-1.4-1-2.6-1.8-3.4-2.4C106.1,0.3,105.6,0,105.6,0"/>
		<path clip-path="url(#SVGID_15_)" fill="#4C2E14" d="M105.3,3.4c0,0,0.3,0.3,0.8,0.8c0.5,0.5,1.2,1.3,2,2.2c0.8,0.9,1.8,2,2.7,3.2
			c1,1.2,1.9,2.5,2.8,3.9c0.4,0.7,0.9,1.4,1.2,2.1c0.4,0.7,0.7,1.4,1,2.1c0.1,0.4,0.2,0.7,0.4,1.1c0.1,0.4,0.2,0.7,0.3,1
			c0.1,0.7,0.2,1.3,0.2,1.9c0,0.3,0,0.6,0,0.9c0,0.3,0,0.5-0.1,0.8c-0.1,0.2-0.1,0.5-0.2,0.7c-0.1,0.2-0.1,0.4-0.2,0.6
			c-0.1,0.3-0.3,0.6-0.4,0.8c-0.1,0.2-0.1,0.3-0.1,0.3s0.1-0.1,0.2-0.2c0.1-0.2,0.3-0.4,0.5-0.7c0.1-0.2,0.2-0.3,0.3-0.5
			c0.1-0.2,0.2-0.4,0.2-0.7c0.2-0.5,0.3-1.1,0.3-1.7c0-0.6,0-1.3-0.1-2.1c-0.1-0.4-0.1-0.7-0.2-1.1c-0.1-0.4-0.2-0.7-0.3-1.1
			c-0.3-0.7-0.6-1.5-1-2.2c-0.4-0.7-0.8-1.5-1.2-2.2c-0.9-1.4-1.9-2.8-2.9-3.9c-1-1.2-2-2.2-2.9-3.1c-0.9-0.9-1.7-1.6-2.2-2
			C105.7,3.6,105.3,3.4,105.3,3.4"/>
		<path clip-path="url(#SVGID_15_)" fill="#4C2E14" d="M101.1,8.6c0,0,0.1,0.3,0.2,0.8c0.1,0.5,0.3,1.2,0.6,2.1
			c0.2,0.9,0.5,1.8,0.8,2.9c0.3,1.1,0.7,2.2,1,3.3c0.3,1.1,0.7,2.3,1,3.3c0.3,1.1,0.6,2,0.8,2.9c0.1,0.4,0.2,0.8,0.3,1.2
			c0.1,0.3,0.1,0.7,0.2,0.9c0,0.3,0,0.5,0,0.6c0,0.1-0.1,0.2-0.1,0.2s0-0.1,0.1-0.2c0-0.1,0.1-0.3,0.1-0.6c0-0.5,0-1.3-0.2-2.2
			c-0.2-0.9-0.3-1.9-0.6-3c-0.3-1.1-0.6-2.2-0.9-3.3c-0.3-1.1-0.7-2.3-1.1-3.3c-0.4-1-0.7-2-1.1-2.8c-0.3-0.8-0.6-1.5-0.8-2
			C101.2,8.9,101.1,8.6,101.1,8.6"/>
		<path clip-path="url(#SVGID_15_)" fill="#4C2E14" d="M94.3,13.2c0,0,0.1,0.7,0.3,1.7c0.2,1,0.5,2.4,0.9,3.7
			c0.4,1.3,0.8,2.6,1.2,3.6c0.4,1,0.7,1.6,0.7,1.6S97.3,23,97.1,22c-0.2-1-0.5-2.4-0.9-3.7c-0.4-1.3-0.8-2.6-1.2-3.6
			C94.6,13.8,94.3,13.2,94.3,13.2"/>
		<path clip-path="url(#SVGID_15_)" fill="#4C2E14" d="M88.5,15.6c0,0-0.1,0.4-0.1,1.1c0,0.3,0,0.7,0,1.2c0,0.4,0.1,0.9,0.2,1.3
			c0.1,0.4,0.3,0.9,0.5,1.3c0.1,0.2,0.2,0.4,0.4,0.5c0.1,0.2,0.3,0.3,0.4,0.4c0.1,0.1,0.3,0.2,0.4,0.3c0.1,0.1,0.2,0.1,0.3,0.1
			c0.2,0.1,0.3,0.1,0.3,0.1s-0.1-0.1-0.2-0.2c-0.1-0.1-0.2-0.1-0.2-0.2c-0.1-0.1-0.2-0.2-0.3-0.3c-0.1-0.1-0.2-0.3-0.3-0.4
			c-0.1-0.2-0.2-0.3-0.2-0.5c-0.1-0.2-0.1-0.4-0.2-0.6c-0.1-0.2-0.1-0.4-0.2-0.6c-0.1-0.4-0.2-0.8-0.3-1.2c-0.1-0.4-0.2-0.8-0.3-1.1
			C88.6,16.1,88.5,15.6,88.5,15.6"/>
		<path clip-path="url(#SVGID_15_)" fill="#DB9769" d="M101.5,26.1c0,0-0.7,6.8-1.9,7.1c-1.2,0.3-11.9-0.9-11.9-0.9l0-0.7l3.3-2.1
			L101.5,26.1z"/>
		<path clip-path="url(#SVGID_15_)" fill="#5B3617" d="M102,26.2c0,0-1,6.3-2.1,6.5c-1.1,0.3-11.8-1-11.8-1l0.5-5.3
			C88.6,26.5,101.3,26.7,102,26.2"/>
		<path clip-path="url(#SVGID_15_)" fill="#4C2E14" d="M118.9,62c0,0,0.2,0.3,0.4,0.9c0.3,0.6,0.6,1.4,0.9,2.5
			c0.4,1,0.7,2.2,1.1,3.5c0.3,1.3,0.7,2.7,0.9,4.1c0.3,1.4,0.4,2.8,0.5,4.2c0.1,1.3,0.1,2.6,0,3.7c-0.1,1.1-0.2,2-0.3,2.6
			c-0.1,0.6-0.2,1-0.2,1s0.1-0.3,0.3-0.9c0.2-0.6,0.4-1.5,0.6-2.6c0.2-1.1,0.3-2.4,0.2-3.7c0-1.4-0.2-2.8-0.4-4.3
			c-0.3-1.4-0.6-2.9-1-4.2c-0.4-1.3-0.9-2.5-1.3-3.5c-0.4-1-0.9-1.8-1.2-2.4c-0.2-0.3-0.3-0.5-0.4-0.6C118.9,62,118.9,61.9,118.9,62
			"/>
		<path clip-path="url(#SVGID_15_)" fill="#4C2E14" d="M111,65.5c0,0,0.1,0.4,0.3,1.1c0.2,0.7,0.5,1.7,0.8,2.9
			c0.3,1.2,0.7,2.6,1,4.1c0.3,1.5,0.7,3.1,0.9,4.8c0.3,1.6,0.4,3.3,0.5,4.8c0,0.8,0,1.5,0,2.2c0,0.7-0.1,1.4-0.2,2
			c0,0.3-0.1,0.6-0.1,0.9c0,0.3-0.1,0.5-0.2,0.8c-0.1,0.5-0.2,0.9-0.4,1.3c-0.1,0.3-0.2,0.6-0.3,0.8c-0.1,0.2-0.1,0.3-0.1,0.3
			s0.1-0.1,0.1-0.3c0.1-0.2,0.3-0.4,0.4-0.7c0.2-0.3,0.3-0.7,0.5-1.2c0.2-0.5,0.3-1,0.4-1.7c0.1-0.6,0.2-1.3,0.3-2
			c0.1-0.7,0.1-1.5,0.1-2.3c0-1.6-0.2-3.3-0.4-4.9c-0.1-0.8-0.3-1.7-0.4-2.5c-0.2-0.8-0.4-1.6-0.6-2.4c-0.4-1.5-0.8-2.9-1.2-4.1
			c-0.4-1.2-0.8-2.2-1.1-2.8C111.2,65.8,111,65.5,111,65.5"/>
		<path clip-path="url(#SVGID_15_)" fill="#4C2E14" d="M102.2,67.1c0,0,0,0.4-0.1,1.1c0,0.7-0.1,1.8-0.2,3c0,1.2-0.1,2.7-0.1,4.3
			c0,1.6-0.1,3.2-0.1,4.9c0,1.7,0,3.3,0,4.9c0,1.6,0.1,3,0.1,4.3c0,1.2,0.1,2.3,0.1,3c0,0.7,0.1,1.1,0.1,1.1s0-0.4,0.1-1.1
			c0-0.7,0.1-1.8,0.2-3c0-1.2,0.1-2.7,0.1-4.3c0-1.6,0.1-3.2,0.1-4.9c0-1.7,0-3.3,0-4.9c0-1.6-0.1-3-0.1-4.3c0-1.2-0.1-2.3-0.1-3
			C102.2,67.5,102.2,67.1,102.2,67.1"/>
		<path clip-path="url(#SVGID_15_)" fill="#4C2E14" d="M91.8,64.9c0,0-0.1,0.4-0.3,1.1c-0.2,0.7-0.5,1.7-0.7,2.9
			c-0.3,1.2-0.6,2.7-0.8,4.2c-0.1,0.8-0.3,1.6-0.4,2.4c-0.1,0.8-0.2,1.6-0.3,2.5c-0.1,0.8-0.1,1.7-0.2,2.5c-0.1,0.8-0.1,1.6-0.1,2.4
			c0,0.8,0,1.5,0.1,2.3c0,0.7,0.1,1.4,0.2,2c0,0.6,0.2,1.2,0.3,1.7c0,0.3,0.1,0.5,0.1,0.7c0.1,0.2,0.1,0.4,0.2,0.6
			c0.2,0.7,0.3,1.1,0.3,1.1s-0.1-0.4-0.2-1.1c0-0.2-0.1-0.4-0.1-0.6c0-0.2,0-0.5-0.1-0.7c0-0.5-0.1-1.1-0.1-1.7c0-0.6-0.1-1.3,0-2
			c0-0.7,0-1.5,0.1-2.2c0.1-1.5,0.2-3.2,0.3-4.9c0.1-1.7,0.4-3.3,0.5-4.8c0.2-1.5,0.4-3,0.6-4.2C91.6,66.5,91.8,64.9,91.8,64.9"/>
		<path clip-path="url(#SVGID_15_)" fill="#4C2E14" d="M83.9,58.3c0,0-0.6,1.4-1.3,3.6c-0.3,1.1-0.7,2.4-1.1,3.7
			c-0.4,1.4-0.7,2.9-1,4.4c-0.3,1.5-0.6,3-0.7,4.4c-0.1,0.7-0.2,1.4-0.2,2.1c0,0.7-0.1,1.3-0.1,1.8c0,0.6,0,1.1,0,1.6
			c0,0.5,0,0.9,0.1,1.2c0.1,0.7,0.1,1,0.1,1s0-0.4,0.1-1c0-0.3,0-0.7,0.1-1.2c0.1-0.5,0.1-1,0.1-1.5c0.1-0.6,0.1-1.2,0.2-1.8
			c0.1-0.6,0.2-1.3,0.3-2c0.2-1.4,0.5-2.9,0.8-4.4c0.2-0.7,0.3-1.5,0.5-2.2c0.2-0.7,0.3-1.4,0.5-2.1c0.3-1.4,0.6-2.7,0.9-3.8
			C83.5,59.8,83.9,58.3,83.9,58.3"/>
		<path clip-path="url(#SVGID_15_)" fill="#462A13" d="M123.2,59.3c0,0-4.8,16.2-17.1,12.5c0,0-3.9-1.2-4.5-4.6
			c0,0-3.8,6.5-11.8,2.6c-8-3.9-8.1-13.2-8.1-13.2l20.2,8.4c0,0,5.5,0.9,5.8,1C108,66.2,123.2,59.3,123.2,59.3"/>
		<path clip-path="url(#SVGID_15_)" fill="#683D19" d="M123.2,59.3L101.9,65c0,0-0.8,6,8,6.3C118.7,71.7,123.2,59.3,123.2,59.3"/>
		<path clip-path="url(#SVGID_15_)" fill="#683D19" d="M81.6,56.3l20.3,8.6c0,0-0.1,6.1-8.8,5.2C84.3,69.1,81.6,56.3,81.6,56.3"/>
		<path clip-path="url(#SVGID_15_)" fill="#412C25" d="M111.6,232.5c0,0-28.5,8.7-49.5-1.7l0.5,3.6c0,0,21.4,9.9,48.6,1L111.6,232.5
			z"/>
		<polygon clip-path="url(#SVGID_15_)" fill="#CFD1D2" points="87.1,235.9 87.1,240.1 80.1,239.5 80.6,235.2 		"/>
		<polygon clip-path="url(#SVGID_15_)" fill="#412C25" points="86.6,236.3 86.8,239.6 80.7,239.2 81.2,235.8 		"/>
		<polygon clip-path="url(#SVGID_15_)" fill="#CFD1D2" points="86.7,237.7 85.9,237.6 85.9,238 86.9,238 		"/>
	</g>
	<g clip-path="url(#SVGID_2_)">
		<defs>
			<path id="SVGID_36_" d="M101.5,238.2l-1.3,0.2v-4c0,0,1.8-0.3,2-0.3c0,0,0,0,0,0C102.4,234.2,101.5,238.2,101.5,238.2"/>
		</defs>
		<clipPath id="SVGID_37_">
			<use xlink:href="#SVGID_36_"  overflow="visible"/>
		</clipPath>
		
			<linearGradient id="SVGID_38_" gradientUnits="userSpaceOnUse" x1="-2.728484e-012" y1="378.5712" x2="1" y2="378.5712" gradientTransform="matrix(-0.3943 -2.6531 2.6531 -0.3943 -903.1219 385.5768)">
			<stop  offset="0" style="stop-color:#B6A28B"/>
			<stop  offset="1" style="stop-color:#8F8169"/>
		</linearGradient>
		<polygon clip-path="url(#SVGID_37_)" fill="url(#SVGID_38_)" points="103,238.4 102.3,233.8 99.5,234.2 100.2,238.8 		"/>
	</g>
	<g clip-path="url(#SVGID_2_)">
		<defs>
			<path id="SVGID_39_" d="M71.2,233.8c0.1,0.3,0.5,3.7,0.5,3.7s-1.4,0-1.9-0.3c-0.5-0.3-1.1-4.3-1.1-4.3S71.1,233.5,71.2,233.8"/>
		</defs>
		<clipPath id="SVGID_40_">
			<use xlink:href="#SVGID_39_"  overflow="visible"/>
		</clipPath>
		
			<linearGradient id="SVGID_41_" gradientUnits="userSpaceOnUse" x1="-3.637979e-012" y1="378.5184" x2="1" y2="378.5184" gradientTransform="matrix(-0.4859 -3.2691 3.2691 -0.4859 -1167.1525 419.2202)">
			<stop  offset="0" style="stop-color:#B6A28B"/>
			<stop  offset="1" style="stop-color:#8F8169"/>
		</linearGradient>
		<polygon clip-path="url(#SVGID_40_)" fill="url(#SVGID_41_)" points="72.4,237.5 71.6,232.6 68.1,233.1 68.9,238 		"/>
	</g>
	<g clip-path="url(#SVGID_2_)">
		<defs>
			<rect id="SVGID_42_" width="161.4" height="378.5"/>
		</defs>
		<clipPath id="SVGID_43_">
			<use xlink:href="#SVGID_42_"  overflow="visible"/>
		</clipPath>
		<path clip-path="url(#SVGID_43_)" fill="#354969" d="M159.4,201.8l-0.3-1.5c0,0-6.9,5.2-24.1-1.8l0.4,1.3
			C135.4,199.9,155.9,208.8,159.4,201.8"/>
		<path clip-path="url(#SVGID_43_)" fill="#AFB2BA" d="M147.5,210.7c-3.9-1-8.8-1-10.7-4.9c0-0.9-0.9-4.7,0.4-5.2
			c6.9,2.1,20.7,5,23,0c0,0,2.1,9.1,0.6,12.4c-1.5,3.3-5.3,8.3-5.3,8.3s-0.5,0.2-2.3-0.2c-4.7-3.4-8.7-7.5-13.5-10.5H147.5z"/>
		<path clip-path="url(#SVGID_43_)" fill="#9EA1A8" d="M134.4,199.1c0,0,0.4,0.8,2.8,1.6c-1.3,0.5-0.4,4.3-0.4,5.2
			c2,3.9,6.8,3.9,10.7,4.9h-7.8c4.8,3,8.9,7.1,13.5,10.5c-1.3-0.3-2.9-1-4.6-2.5c-4.2-3.6-13.9-5.5-13.9-5.5
			S136.7,203.8,134.4,199.1"/>
		<path clip-path="url(#SVGID_43_)" fill="#354969" d="M33,156.1l0.8,9.2c0,0-2.1-4.9-3.8-3.5c-1.6,1.4-16,10.7-20.2,9L33,156.1z"/>
		<path clip-path="url(#SVGID_43_)" fill="#354969" d="M116.8,129.1c0,0-1-10-2-10.8c-1-0.8-6-4.9-6.8-3.9
			c-0.8,1-15.1,15.9-15.1,15.9s12.8-12.4,14.5-12.6C109.1,117.5,114.3,120.1,116.8,129.1"/>
		<path clip-path="url(#SVGID_43_)" fill="#354969" d="M91.8,129.6c0.2,0.4-6.8-16.1-7.3-16.4s-6.8-1.4-7-0.5c-0.2,0.8-5,9.4-5,9.4
			s6-5.2,7.9-5.7C82.3,116,88.8,123.5,91.8,129.6"/>
		<path clip-path="url(#SVGID_43_)" fill="#AFB2BA" d="M10.1,164.3c1.8-3.7,6.4-3.7,8.2-6.4c-3.7-0.9-8.2,2.7-10.1-0.9
			c-1.7-3.4-0.3-6.4,2.3-8.8c4.6-0.3,11.7-0.9,20.5-11.4l2.6,18.2c0,0-2.4,3.5-5.7,6.7C22,164.2,15.9,166.6,10.1,164.3"/>
		<path clip-path="url(#SVGID_43_)" fill="#9EA1A8" d="M5.4,151c0.5-2.5,2.4-2.6,5.3-2.9c-2.6,2.5-4,5.5-2.3,8.8
			c1.8,3.7,6.4,0,10.1,0.9c-1.8,2.7-6.4,2.7-8.2,6.4c5.8,2.3,11.9-0.1,17.9-2.7c-2,1.9-4.4,3.7-6.8,4.5c-6.3,2.1-11.8,6.5-12.5,3.7
			C8.1,167.1,3.8,158.9,5.4,151"/>
		<path clip-path="url(#SVGID_43_)" fill="#354969" d="M117.8,102.3l-1,25.9C116.8,128.2,118.5,107.1,117.8,102.3"/>
		<path clip-path="url(#SVGID_43_)" fill="#354969" d="M76.2,98L73.1,121C73.1,121,74.1,102,76.2,98"/>
		<path clip-path="url(#SVGID_43_)" fill="#354969" d="M89.6,156.9c0,0-3.9,54.7-4.3,56.5c-0.4,1.8-3.7,10.1-2,12.3
			c1.7,2.1-1.7,0-1.2-2.9c0.5-2.9,2.1-8.4,2.4-13.8C84.8,203.5,89.6,156.9,89.6,156.9"/>
		<path clip-path="url(#SVGID_43_)" fill="#96ADD2" d="M87.2,132.6c0,0.8,0.7,1.4,1.5,1.4c0.9,0,1.5-0.6,1.5-1.4
			c0-0.8-0.7-1.4-1.5-1.4C87.9,131.2,87.2,131.8,87.2,132.6"/>
		<path clip-path="url(#SVGID_43_)" fill="#96ADD2" d="M84.1,160.9c0,0.8,0.7,1.4,1.5,1.4c0.9,0,1.5-0.6,1.5-1.4
			c0-0.8-0.7-1.4-1.5-1.4C84.8,159.5,84.1,160.1,84.1,160.9"/>
		<path clip-path="url(#SVGID_43_)" fill="#96ADD2" d="M81.5,193.1c0,0.8,0.7,1.4,1.5,1.4c0.9,0,1.5-0.6,1.5-1.4
			c0-0.8-0.7-1.4-1.5-1.4C82.2,191.7,81.5,192.4,81.5,193.1"/>
		<path clip-path="url(#SVGID_43_)" fill="#96ADD2" d="M77.6,224.2c0,0.8,0.7,1.4,1.5,1.4c0.9,0,1.5-0.6,1.5-1.4
			c0-0.8-0.7-1.4-1.5-1.4C78.3,222.8,77.6,223.5,77.6,224.2"/>
		<polygon clip-path="url(#SVGID_43_)" fill="#354969" points="126.8,173.4 125.5,165.3 116.4,183.9 125.7,169.8 		"/>
		<path clip-path="url(#SVGID_43_)" fill="#354969" d="M63.5,176.5C62.7,175,57,160,57,160l-1.2,5.2l1.1-2.1L63.5,176.5z"/>
	</g>
</g>
</svg>
