<?xml version="1.0" encoding="utf-8"?>
<!-- Generator: Adobe Illustrator 17.1.0, SVG Export Plug-In . SVG Version: 6.00 Build 0)  -->
<!DOCTYPE svg PUBLIC "-//W3C//DTD SVG 1.1//EN" "http://www.w3.org/Graphics/SVG/1.1/DTD/svg11.dtd">
<svg version="1.1" id="Слой_1" xmlns="http://www.w3.org/2000/svg" xmlns:xlink="http://www.w3.org/1999/xlink" x="0px" y="0px"
	 viewBox="0 0 363.6 182.2" enable-background="new 0 0 363.6 182.2" xml:space="preserve">
<g>
	<defs>
		<rect id="SVGID_1_" width="363.6" height="182.2"/>
	</defs>
	<clipPath id="SVGID_2_">
		<use xlink:href="#SVGID_1_"  overflow="visible"/>
	</clipPath>
	<path clip-path="url(#SVGID_2_)" fill="#15609E" d="M289.9,182.2v-29.5c0.6-0.2,34.5-1.8,39.2-2.3c13.5-1.2,21.7-2.1,30.6-13.6
		c5.6-11.1,3.5-73,3.7-88.7c0.3-21.8-5-31.3-29.1-33C238.6,8.6,139.5,4.1,43.4,0.2C2.3-1.5-0.2,8,0,48c0.2,30.4,1.1,61.4,0.5,91.7
		c-0.4,19.4,4.3,34.4,26.8,33.8c41.4-1,210.6-20.9,224.9-14.8C263.7,163.7,281,177.4,289.9,182.2"/>
</g>
</svg>
