<?xml version="1.0" encoding="utf-8"?>
<!-- Generator: Adobe Illustrator 17.1.0, SVG Export Plug-In . SVG Version: 6.00 Build 0)  -->
<!DOCTYPE svg PUBLIC "-//W3C//DTD SVG 1.1//EN" "http://www.w3.org/Graphics/SVG/1.1/DTD/svg11.dtd">
<svg version="1.1" id="content" xmlns="http://www.w3.org/2000/svg" xmlns:xlink="http://www.w3.org/1999/xlink" x="0px" y="0px"
	 viewBox="0 0 800 800" enable-background="new 0 0 800 800" xml:space="preserve">
<g>
	<g>
		<g>
			<path fill="#B13C3D" d="M726.3,37.3h-48.6c-4.2,0-7.6,3.4-7.6,7.6v99.4c0,4.2,3.4,7.6,7.6,7.6H754c4.2,0,7.6-3.4,7.6-7.6V68.7
				L726.3,37.3z"/>
		</g>
		<g opacity="0.2">
			<polygon points="761.6,68.7 726.3,68.7 761.6,96.2 			"/>
		</g>
		<g opacity="0.4">
			<polygon fill="#FFFFFF" points="761.6,68.7 726.3,37.3 726.3,68.7 			"/>
		</g>
	</g>
</g>
<g>
	<rect x="683.4" y="86" fill="#FFFFFF" width="65" height="3"/>
	<rect x="683.4" y="98.2" fill="#FFFFFF" width="65" height="3"/>
	<rect x="713.4" y="110.5" fill="#FFFFFF" width="35" height="3"/>
	<rect x="713.4" y="122.8" fill="#FFFFFF" width="35" height="3"/>
	<rect x="683.4" y="110.5" fill="#FFFFFF" width="25" height="27.5"/>
	<rect x="713.4" y="135" fill="#FFFFFF" width="35" height="3"/>
</g>
</svg>
