<svg xmlns="http://www.w3.org/2000/svg" viewBox="0 0 278.6 258.6">
  <path fill="#489098" d="M152.8 230.1H183c3 0 5.3.6 6.9 1.9 1.6 1.2 2.4 2.9 2.4 5 0 1.9-.6 3.5-1.9 4.8-1.3 1.3-3.2 2-5.7 2H142c-2.9 0-5.2-.8-6.8-2.4-1.6-1.6-2.4-3.5-2.4-5.7 0-1.4.5-3.2 1.6-5.5 1-2.3 2.2-4.1 3.4-5.4 5.1-5.3 9.8-9.9 13.9-13.7 4.1-3.8 7.1-6.3 8.9-7.5 3.2-2.2 5.8-4.5 7.9-6.8 2.1-2.3 3.7-4.6 4.8-6.9 1.1-2.4 1.6-4.7 1.6-7 0-2.5-.6-4.7-1.8-6.6-1.2-2-2.8-3.5-4.8-4.5-2-1.1-4.2-1.6-6.6-1.6-5.1 0-9 2.2-11.9 6.7-.4.6-1 2.2-2 4.7-.9 2.6-1.9 4.6-3.1 6-1.1 1.4-2.8 2.1-5 2.1-1.9 0-3.5-.7-4.8-1.9-1.3-1.3-1.9-3-1.9-5.2 0-2.6.6-5.4 1.8-8.3 1.2-2.9 3-5.5 5.4-7.9 2.4-2.4 5.4-4.2 9-5.7 3.6-1.4 7.9-2.2 12.8-2.2 5.9 0 10.9.9 15.1 2.8 2.7 1.2 5.1 2.9 7.1 5.1 2.1 2.2 3.7 4.7 4.8 7.5 1.1 2.8 1.7 5.8 1.7 8.8 0 4.8-1.2 9.2-3.6 13.1-2.4 3.9-4.8 7-7.3 9.2-2.5 2.2-6.6 5.7-12.4 10.5-5.8 4.7-9.8 8.4-12 11-.7.9-1.7 2.2-2.6 3.6zm78.3 6.3v-10.8H202c-3.7 0-6.4-.8-8.2-2.5-1.8-1.7-2.7-3.9-2.7-6.8 0-.7.1-1.5.4-2.2.3-.7.7-1.5 1.2-2.4.5-.8 1.1-1.6 1.7-2.4.6-.8 1.3-1.7 2.1-2.8l30.7-41c2-2.7 3.7-4.6 4.9-5.9 1.3-1.2 2.8-1.8 4.7-1.8 5.9 0 8.8 3.4 8.8 10.1v44.8h2.5c3 0 5.4.4 7.2 1.2 1.8.8 2.7 2.6 2.7 5.3 0 2.2-.7 3.9-2.2 4.9-1.5 1-3.7 1.5-6.6 1.5h-3.5v10.8c0 3-.7 5.2-2 6.6-1.3 1.4-3.1 2.2-5.3 2.2-2.2 0-3.9-.8-5.2-2.2-1.4-1.5-2.1-3.7-2.1-6.6zm-24.9-23.7h24.9V179l-24.9 33.7z"/>
  <path fill="none" stroke="#489098" stroke-width="6" stroke-linecap="round" stroke-linejoin="round" stroke-miterlimit="22.926" d="M102.6 233.7c-47.9-12.5-83.3-56.1-83.3-108 0-61.6 50-111.6 111.6-111.6 61.6 0 111.6 50 111.6 111.6m-47.8-61.3L141 118.1m-20.8 2.9L78.6 97"/>
  <path fill="none" stroke="#489098" stroke-width="6" stroke-miterlimit="22.926" d="M131.8 114.1c-7 0-12.6 5.6-12.6 12.6s5.6 12.6 12.6 12.6 12.6-5.6 12.6-12.6c0-6.9-5.6-12.6-12.6-12.6z"/>
  <path fill="none" stroke="#489098" stroke-width="6" stroke-linecap="round" stroke-linejoin="round" stroke-miterlimit="22.926" d="M131.8 41.9v7.9m-84.7 76.9h7.8M263 94.3l-19.1 40.3-27.7-35"/>
</svg>
