<svg xmlns="http://www.w3.org/2000/svg" viewBox="0 0 309.6 317.9">
  <path fill-rule="evenodd" clip-rule="evenodd" fill="#489098" stroke="#489098" stroke-miterlimit="10" d="M172 265.6c16.5-2.5 33.1-8.2 44.3-19.4 13.9-13.9 24.8-37.5 24.8-58.6v-71.8c0-21.1-10.8-42.5-24.8-56.4-13.9-13.9-35.3-24.8-56.4-24.8h-10.5c-21.1 0-42.5 10.8-56.4 24.8-13.9 13.9-24.8 35.3-24.8 56.4v71.8c0 5.2-2 7.2-7.2 7.2-4.1 0-5.1-6-7.4-5.8 0-27.1.2-46.4.2-73.2 0-26.3 10.8-50.2 28.1-67.5 17.3-17.3 41.2-28.1 67.5-28.1H160c26.3 0 50.2 10.8 67.5 28.1 17.3 17.3 28.1 41.2 28.1 67.5v4.6l-.5 77.1c-2.3 22.4-12.4 42.5-27.6 57.6-14.2 14.2-32.7 23.9-53.4 27-.5 1.7-1.1 3.2-2 4.7v-21.2h-.1z"/>
  <path fill="none" stroke="#489098" stroke-width="5" stroke-miterlimit="10" d="M59.8 188.9c-21.3-1.6-38-20.6-38-43.7s16.8-42 38-43.7m189.6 87.4c21.3-1.6 38-20.6 38-43.7s-16.8-42-38-43.7m-130.2 81.3c3.6 12.9 18.1 22.6 35.4 22.6 17.3 0 31.7-9.6 35.4-22.6m-34.4 72.8c10.2 0 18.6 8.3 18.6 18.6 0 10.2-8.3 18.6-18.6 18.6-10.2 0-18.6-8.3-18.6-18.6s8.3-18.6 18.6-18.6zM60.8 103.8c27.2-5.5 50.1-23 62.9-46.7 16.9 17.4 40.5 28.3 66.6 28.3 16.6 0 32.2-4.4 45.6-12"/>
  <path fill="#489098" stroke="#489098" stroke-miterlimit="10" d="M121.2 117.1c7.8 0 14.1 6.3 14.1 14.1s-6.3 14.1-14.1 14.1-14.1-6.3-14.1-14.1c.1-7.8 6.4-14.1 14.1-14.1zm66.7 0c7.8 0 14.1 6.3 14.1 14.1s-6.3 14.1-14.1 14.1-14.1-6.3-14.1-14.1 6.3-14.1 14.1-14.1z"/>
</svg>
