<svg xmlns="http://www.w3.org/2000/svg" viewBox="0 0 841.9 595.3">
  <path fill="none" stroke="#7B7876" stroke-width="2" stroke-miterlimit="10" d="M398.2 291.3l-22.7 62.1h-66.6L289.6 287l54.4-37.7z"/>
  <path fill="none" stroke="#E29026" stroke-width="2" stroke-miterlimit="10" d="M299.3 375.9l-50.7-42.4 22.5-62.6 69.1 4.2 17 64z"/>
  <path fill="none" stroke="#E29026" stroke-width="2" stroke-miterlimit="10" d="M317.3 363.4l22.8-62 66.5.1 19.3 66.4-54.4 37.6zm-40.8-112.7l22.8-62.1 66.5.1 19.3 66.5-54.4 37.5z"/>
  <path fill="none" stroke="#E29026" stroke-width="2" stroke-miterlimit="10" d="M343.9 218l22.8-62.1 66.6.1 19.3 66.4-54.5 37.6z"/>
  <path fill="none" stroke="#7B7876" stroke-width="2" stroke-miterlimit="10" d="M480.3 179.9l-55.1 36.7-53.6-39.3 23.5-65.1 66.2 1.8z"/>
  <path fill="none" stroke="#E29026" stroke-width="2" stroke-miterlimit="10" d="M452.6 187.9l22.8-62 66.5.1 19.3 66.4-54.4 37.6z"/>
  <path fill="none" stroke="#7B7876" stroke-width="2" stroke-miterlimit="10" d="M548.2 247.2l-22.7 62.1h-66.6l-19.3-66.4 54.4-37.7z"/>
  <path fill="none" stroke="#E29026" stroke-width="2" stroke-miterlimit="10" d="M420.5 332.6l-6.1-65.9 60.2-28.5 45.9 51.7-33 57.4zM228.4 198.7l22.8-62.1 66.6.1 19.3 66.4-54.5 37.6z"/>
  <path fill="none" stroke="#7B7876" stroke-width="2" stroke-miterlimit="10" d="M162.3 260.7l-55 36.7-53.7-39.3 23.6-65 66.1 1.7zm108.1-59.4l-22.8 62h-66.5l-19.4-66.4 54.4-37.6z"/>
  <path fill="none" stroke="#E29026" stroke-width="2" stroke-miterlimit="10" d="M161.9 237.1l57.4-32.9 50.9 42.8-27.9 63.3-65.9-6.2z"/>
  <path fill="none" stroke="#7B7876" stroke-width="2" stroke-miterlimit="10" d="M288.8 343.9l-39.2 53.2-63.9-18.7.1-69.1 62.7-20.9z"/>
  <path fill="none" stroke="#E29026" stroke-width="2" stroke-miterlimit="10" d="M90.1 180l22.8-62.1 66.6.1 19.3 66.4-54.5 37.6zm26.7 104.5L157 232l63.5 19.8-1.2 69.1-63.1 19.8z"/>
  <path fill="none" stroke="#7B7876" stroke-width="2" stroke-miterlimit="10" d="M378.4 157.2l-55.2 36.5-53.5-39.6 23.8-64.9 66.2 2z"/>
  <path fill="none" stroke="#E29026" stroke-width="2" stroke-miterlimit="10" d="M319.7 94l40.2-52.6 63.5 19.8-1.2 69.2-63.2 19.8zm-158 48.5l22.8-62.1 66.6.1 19.3 66.4-54.5 37.6z"/>
  <path fill="none" stroke="#7B7876" stroke-width="2" stroke-miterlimit="10" d="M162.4 261l-55.2 36.5-53.5-39.6L77.6 193l66.1 2z"/>
  <path fill="none" stroke="#E29026" stroke-width="2" stroke-miterlimit="10" d="M397.9 404.7l-6.1-65.9 60.1-28.5 46 51.7-33 57.4z"/>
</svg>
