<svg xmlns="http://www.w3.org/2000/svg" viewBox="0 0 70 70"><path fill="#F44336" d="M35-.2l7.2 8 10.3-3.3L54.9 15l10.5 2.4-3.3 10.3 8 7.2-8 7.2 3.3 10.4-10.5 2.3-2.4 10.5L42.2 62 35 70l-7.2-8-10.3 3.3-2.4-10.5-10.5-2.3 3.3-10.4-8-7.2 8-7.2-3.3-10.3L15.1 15l2.4-10.5 10.3 3.3z"/><path d="M28.3 48.8l-2.8-1.7L41.7 21l2.8 1.7zm-1.7-30.6c-3 0-6.7 1.8-6.7 6.7v1.7c0 3 1.8 6.7 6.7 6.7 3.5 0 6.7-2.3 6.7-6.7v-1.7c0-4.2-2.8-6.7-6.7-6.7zm3.1 8.3c0 2.2-1.2 3.3-3 3.3-1.5 0-3-1-3-3.3v-1.7c0-2.3 1.5-3.5 3-3.5 2.3 0 3 2.2 3 3.5v1.7zm13.7 25.1c3 0 6.7-1.8 6.7-6.7v-1.7c0-3-1.8-6.7-6.7-6.7-3.5 0-6.7 2.3-6.7 6.7v1.7c0 4.2 2.8 6.7 6.7 6.7zm-3.1-8.3c0-2.2 1.2-3.3 3-3.3 1.5 0 3 1 3 3.3V45c0 2.3-1.5 3.5-3 3.5-2.3 0-3-2.2-3-3.5v-1.7z" fill="#FFF"/></svg>