<?xml version="1.0" encoding="iso-8859-1"?>
<!-- Generator: Adobe Illustrator 19.0.0, SVG Export Plug-In . SVG Version: 6.00 Build 0)  -->
<svg version="1.1" id="Layer_1" xmlns="http://www.w3.org/2000/svg" xmlns:xlink="http://www.w3.org/1999/xlink" x="0px" y="0px"
	 viewBox="0 0 503.322 503.322" style="enable-background:new 0 0 503.322 503.322;" xml:space="preserve">
<g>
	<g>
		<path style="fill:#CAD3DB;" d="M34.715,130.169c-4.79,0-8.678-3.888-8.678-8.678v-17.356c0-4.79,3.888-8.678,8.678-8.678
			s8.678,3.888,8.678,8.678v17.356C43.393,126.282,39.506,130.169,34.715,130.169"/>
		<path style="fill:#CAD3DB;" d="M86.783,130.169c-4.79,0-8.678-3.888-8.678-8.678v-17.356c0-4.79,3.888-8.678,8.678-8.678
			c4.79,0,8.678,3.888,8.678,8.678v17.356C95.461,126.282,91.573,130.169,86.783,130.169"/>
	</g>
	<g>
		<path style="fill:#E6EEF3;" d="M225.631,43.39c-4.79,0-8.678-3.888-8.678-8.678V17.356c0-4.79,3.888-8.678,8.678-8.678
			s8.678,3.888,8.678,8.678v17.356C234.309,39.502,230.421,43.39,225.631,43.39"/>
		<path style="fill:#E6EEF3;" d="M277.698,43.39c-4.79,0-8.678-3.888-8.678-8.678V17.356c0-4.79,3.888-8.678,8.678-8.678
			c4.79,0,8.678,3.888,8.678,8.678v17.356C286.376,39.502,282.489,43.39,277.698,43.39"/>
	</g>
	<g>
		<path style="fill:#CAD3DB;" d="M416.546,130.169c-4.799,0-8.678-3.888-8.678-8.678v-17.356c0-4.79,3.879-8.678,8.678-8.678
			c4.799,0,8.678,3.888,8.678,8.678v17.356C425.224,126.282,421.345,130.169,416.546,130.169"/>
		<path style="fill:#CAD3DB;" d="M468.614,130.169c-4.799,0-8.678-3.888-8.678-8.678v-17.356c0-4.79,3.879-8.678,8.678-8.678
			c4.799,0,8.678,3.888,8.678,8.678v17.356C477.292,126.282,473.413,130.169,468.614,130.169"/>
		<polygon style="fill:#CAD3DB;" points="138.847,494.644 364.475,494.644 364.475,26.034 138.847,26.034 		"/>
	</g>
	<polygon style="fill:#E6EEF3;" points="0,425.22 138.847,425.22 138.847,112.814 0,112.814 	"/>
	<polygon style="fill:#D0E8F9;" points="182.237,494.644 321.085,494.644 321.085,407.864 182.237,407.864 	"/>
	<polygon style="fill:#8697CB;" points="242.983,494.644 260.339,494.644 260.339,407.864 242.983,407.864 	"/>
	<g>
		<polygon style="fill:#E6EEF3;" points="0,494.644 138.847,494.644 138.847,425.22 0,425.22 		"/>
		<polygon style="fill:#E6EEF3;" points="364.475,425.22 503.322,425.22 503.322,112.814 364.475,112.814 		"/>
		<polygon style="fill:#E6EEF3;" points="364.475,494.644 503.322,494.644 503.322,425.22 364.475,425.22 		"/>
	</g>
	<g>
		<path style="fill:#8697CB;" d="M216.953,86.771h-17.356c-4.79,0-8.678,3.888-8.678,8.678v17.356c0,4.79,3.888,8.678,8.678,8.678
			h17.356c4.79,0,8.678-3.888,8.678-8.678V95.449C225.631,90.659,221.743,86.771,216.953,86.771"/>
		<path style="fill:#8697CB;" d="M303.732,86.771h-17.356c-4.79,0-8.678,3.888-8.678,8.678v17.356c0,4.79,3.888,8.678,8.678,8.678
			h17.356c4.79,0,8.678-3.888,8.678-8.678V95.449C312.41,90.659,308.523,86.771,303.732,86.771"/>
		<path style="fill:#8697CB;" d="M216.953,156.203h-17.356c-4.79,0-8.678,3.888-8.678,8.678v17.356c0,4.79,3.888,8.678,8.678,8.678
			h17.356c4.79,0,8.678-3.888,8.678-8.678v-17.356C225.631,160.091,221.743,156.203,216.953,156.203"/>
		<path style="fill:#8697CB;" d="M303.732,156.203h-17.356c-4.79,0-8.678,3.888-8.678,8.678v17.356c0,4.79,3.888,8.678,8.678,8.678
			h17.356c4.79,0,8.678-3.888,8.678-8.678v-17.356C312.41,160.091,308.523,156.203,303.732,156.203"/>
		<path style="fill:#8697CB;" d="M216.953,225.627h-17.356c-4.79,0-8.678,3.888-8.678,8.678v17.356c0,4.79,3.888,8.678,8.678,8.678
			h17.356c4.79,0,8.678-3.888,8.678-8.678v-17.356C225.631,229.515,221.743,225.627,216.953,225.627"/>
		<path style="fill:#8697CB;" d="M303.732,225.627h-17.356c-4.79,0-8.678,3.888-8.678,8.678v17.356c0,4.79,3.888,8.678,8.678,8.678
			h17.356c4.79,0,8.678-3.888,8.678-8.678v-17.356C312.41,229.515,308.523,225.627,303.732,225.627"/>
		<path style="fill:#8697CB;" d="M216.953,295.051h-17.356c-4.79,0-8.678,3.888-8.678,8.678v17.356c0,4.79,3.888,8.678,8.678,8.678
			h17.356c4.79,0,8.678-3.888,8.678-8.678v-17.356C225.631,298.939,221.743,295.051,216.953,295.051"/>
		<path style="fill:#8697CB;" d="M303.732,295.051h-17.356c-4.79,0-8.678,3.888-8.678,8.678v17.356c0,4.79,3.888,8.678,8.678,8.678
			h17.356c4.79,0,8.678-3.888,8.678-8.678v-17.356C312.41,298.939,308.523,295.051,303.732,295.051"/>
		<path style="fill:#8697CB;" d="M442.58,147.525h-17.356c-4.79,0-8.678,3.888-8.678,8.678v17.356c0,4.79,3.888,8.678,8.678,8.678
			h17.356c4.79,0,8.678-3.888,8.678-8.678v-17.356C451.258,151.413,447.37,147.525,442.58,147.525"/>
		<path style="fill:#8697CB;" d="M442.58,216.949h-17.356c-4.79,0-8.678,3.888-8.678,8.678v17.356c0,4.79,3.888,8.678,8.678,8.678
			h17.356c4.79,0,8.678-3.888,8.678-8.678v-17.356C451.258,220.837,447.37,216.949,442.58,216.949"/>
		<path style="fill:#8697CB;" d="M442.58,286.373h-17.356c-4.79,0-8.678,3.888-8.678,8.678v17.356c0,4.79,3.888,8.678,8.678,8.678
			h17.356c4.79,0,8.678-3.888,8.678-8.678v-17.356C451.258,290.261,447.37,286.373,442.58,286.373"/>
		<path style="fill:#8697CB;" d="M442.58,355.797h-17.356c-4.79,0-8.678,3.888-8.678,8.678v17.356c0,4.79,3.888,8.678,8.678,8.678
			h17.356c4.79,0,8.678-3.888,8.678-8.678v-17.356C451.258,359.684,447.37,355.797,442.58,355.797"/>
		<path style="fill:#8697CB;" d="M78.105,147.525H60.749c-4.79,0-8.678,3.888-8.678,8.678v17.356c0,4.79,3.888,8.678,8.678,8.678
			h17.356c4.79,0,8.678-3.888,8.678-8.678v-17.356C86.783,151.413,82.895,147.525,78.105,147.525"/>
		<path style="fill:#8697CB;" d="M78.105,216.949H60.749c-4.79,0-8.678,3.888-8.678,8.678v17.356c0,4.79,3.888,8.678,8.678,8.678
			h17.356c4.79,0,8.678-3.888,8.678-8.678v-17.356C86.783,220.837,82.895,216.949,78.105,216.949"/>
		<path style="fill:#8697CB;" d="M78.105,286.373H60.749c-4.79,0-8.678,3.888-8.678,8.678v17.356c0,4.79,3.888,8.678,8.678,8.678
			h17.356c4.79,0,8.678-3.888,8.678-8.678v-17.356C86.783,290.261,82.895,286.373,78.105,286.373"/>
		<path style="fill:#8697CB;" d="M78.105,355.797H60.749c-4.79,0-8.678,3.888-8.678,8.678v17.356c0,4.79,3.888,8.678,8.678,8.678
			h17.356c4.79,0,8.678-3.888,8.678-8.678v-17.356C86.783,359.684,82.895,355.797,78.105,355.797"/>
	</g>
</g>
<g>
</g>
<g>
</g>
<g>
</g>
<g>
</g>
<g>
</g>
<g>
</g>
<g>
</g>
<g>
</g>
<g>
</g>
<g>
</g>
<g>
</g>
<g>
</g>
<g>
</g>
<g>
</g>
<g>
</g>
</svg>
